<svg width="21" height="22" viewBox="0 0 21 22" fill="none" xmlns="http://www.w3.org/2000/svg">
<mask id="path-1-inside-1_509_15496" fill="white">
<path d="M17.399 21.3846H0.399902V0.615356H20.5102V18.3751C20.5103 18.7704 20.4298 19.1618 20.2734 19.527C20.117 19.8922 19.8879 20.224 19.5989 20.5035C19.31 20.7829 18.967 21.0046 18.5896 21.1558C18.2121 21.307 17.8075 21.3847 17.399 21.3846"/>
</mask>
<path d="M17.399 21.3846H0.399902V0.615356H20.5102V18.3751C20.5103 18.7704 20.4298 19.1618 20.2734 19.527C20.117 19.8922 19.8879 20.224 19.5989 20.5035C19.31 20.7829 18.967 21.0046 18.5896 21.1558C18.2121 21.307 17.8075 21.3847 17.399 21.3846" fill="#00437A"/>
<path d="M0.399902 21.3846H0.199902V21.5846H0.399902V21.3846ZM0.399902 0.615356V0.415356H0.199902V0.615356H0.399902ZM20.5102 0.615356H20.7102V0.415356H20.5102V0.615356ZM20.5102 18.3751H20.3102V18.3751L20.5102 18.3751ZM17.399 21.1846H0.399902V21.5846H17.399V21.1846ZM0.599902 21.3846V0.615356H0.199902V21.3846H0.599902ZM0.399902 0.815356H20.5102V0.415356H0.399902V0.815356ZM20.3102 0.615356V18.3751H20.7102V0.615356H20.3102ZM20.3102 18.3751C20.3103 18.7432 20.2353 19.1079 20.0896 19.4483L20.4573 19.6057C20.6242 19.2158 20.7103 18.7976 20.7102 18.3751L20.3102 18.3751ZM20.0896 19.4483C19.9438 19.7887 19.7299 20.0985 19.4599 20.3597L19.738 20.6472C20.0458 20.3495 20.2903 19.9957 20.4573 19.6057L20.0896 19.4483ZM19.4599 20.3597C19.1898 20.6209 18.8689 20.8285 18.5152 20.9701L18.6639 21.3414C19.0652 21.1807 19.4302 20.9449 19.738 20.6472L19.4599 20.3597ZM18.5152 20.9701C18.1615 21.1118 17.7822 21.1847 17.3991 21.1846L17.3989 21.5846C17.8328 21.5847 18.2627 21.5022 18.6639 21.3414L18.5152 20.9701Z" fill="white" mask="url(#path-1-inside-1_509_15496)"/>
<path d="M10.9265 3.14783L16.0363 8.00319C16.104 8.06757 16.1578 8.14436 16.1946 8.22908C16.2313 8.3138 16.2502 8.40475 16.2503 8.49663C16.2503 8.5885 16.2314 8.67946 16.1947 8.7642C16.158 8.84893 16.1042 8.92575 16.0365 8.99016L10.9286 13.8445L10.9292 11.1308L13.3281 8.83994C13.3751 8.79503 13.4124 8.74155 13.4379 8.68259C13.4634 8.62363 13.4765 8.56037 13.4765 8.49647C13.4765 8.43257 13.4634 8.3693 13.438 8.31033C13.4126 8.25135 13.3753 8.19785 13.3284 8.15291L10.9265 5.85458V3.14783Z" fill="white"/>
<path d="M9.98387 3.14783L4.87411 8.00319C4.80636 8.06758 4.75255 8.14437 4.71581 8.2291C4.67908 8.31383 4.66016 8.40479 4.66016 8.49668C4.66016 8.58856 4.67908 8.67952 4.71581 8.76425C4.75255 8.84898 4.80636 8.92578 4.87411 8.99016L9.98183 13.8445L9.98111 11.1308L7.58225 8.83994C7.53528 8.79502 7.49799 8.74152 7.47254 8.68256C7.44709 8.62359 7.43398 8.56032 7.43398 8.49642C7.43398 8.43252 7.44709 8.36926 7.47254 8.31029C7.49799 8.25132 7.53528 8.19783 7.58225 8.15291L9.98411 5.85458L9.98387 3.14783Z" fill="white"/>
<path d="M7.93523 17.6435L7.435 16.1159L6.94538 17.6437L7.93523 17.6435ZM7.90829 15.6114L9.03806 18.8414H8.32787L8.10201 18.1721H6.77341L6.54184 18.8414H5.83179L6.87515 15.858C6.90036 15.7861 6.94819 15.7236 7.01194 15.6794C7.07569 15.6352 7.15216 15.6114 7.23061 15.6113L7.90829 15.6114Z" fill="white"/>
<path d="M11.1317 18.0218C11.1317 18.2594 11.0026 18.337 10.6958 18.337H10.0018V17.4544H10.7552C11.0241 17.4544 11.1317 17.561 11.1317 17.7793V18.0218ZM10.0018 16.1156H10.6528C10.9003 16.1156 11.008 16.1983 11.008 16.3776V16.6637C11.008 16.8529 10.9113 16.9644 10.6476 16.9644H10.0018V16.1156ZM11.2876 17.1584C11.562 17.0517 11.6859 16.9015 11.6859 16.6347V16.3002C11.6859 15.8637 11.4113 15.6116 10.7334 15.6116H9.32373V18.8416H10.8301C11.4811 18.8416 11.8091 18.5553 11.8091 18.0995V17.7549C11.8091 17.4397 11.6157 17.2216 11.2873 17.1584" fill="white"/>
<path d="M4.5973 16.066H5.5713V15.8319C5.57134 15.7898 5.56281 15.7482 5.5462 15.7093C5.52959 15.6705 5.50523 15.6352 5.47451 15.6054C5.44379 15.5757 5.40731 15.5521 5.36716 15.536C5.32701 15.5199 5.28397 15.5116 5.24051 15.5116H4.5973C3.72685 15.5197 3.35278 15.8623 3.35278 16.4467V17.9019C3.35278 18.4865 3.72685 18.829 4.5973 18.8371V18.8392H5.5344V18.6043C5.53438 18.5195 5.49956 18.4382 5.43761 18.3783C5.37566 18.3183 5.29165 18.2847 5.20404 18.2846H4.5973V18.2825C4.17248 18.271 4.03074 18.1253 4.03074 17.7949V16.5536C4.03074 16.2232 4.17257 16.0774 4.5973 16.066Z" fill="white"/>
<path d="M16.0834 18.3033V15.5637H15.7809C15.7316 15.5637 15.6828 15.5731 15.6373 15.5914C15.5918 15.6097 15.5504 15.6364 15.5156 15.6702C15.4808 15.7039 15.4531 15.7439 15.4343 15.788C15.4154 15.832 15.4057 15.8793 15.4058 15.927V18.8417H17.5573V18.3033H16.0834Z" fill="white"/>
<path d="M14.0629 17.6435L13.5626 16.1159L13.073 17.6436L14.0629 17.6435ZM14.0359 15.6113L15.1658 18.8413H14.4556L14.2296 18.1721H12.9011L12.6695 18.8413H11.9595L12.9711 15.9491C13.0055 15.8507 13.071 15.7651 13.1583 15.7045C13.2456 15.6439 13.3503 15.6113 13.4578 15.6113H14.0359Z" fill="white"/>
</svg>
