<svg xmlns="http://www.w3.org/2000/svg" xmlns:xlink="http://www.w3.org/1999/xlink" width="270.372" height="55.576" viewBox="0 0 270.372 55.576">
  <defs>
    <clipPath id="clip-path">
      <rect id="Retângulo_488" data-name="Retângulo 488" width="270.372" height="55.576" fill="#4fb645"/>
    </clipPath>
  </defs>
  <g id="Grupo_516" data-name="Grupo 516" clip-path="url(#clip-path)">
    <path id="Caminho_1314" data-name="Caminho 1314" d="M279.3,83.191c1.883,0,1.883,0,1.883,1.91,0,1.963,0,1.963-1.883,1.963s-1.883,0-1.883-1.963c0-1.91,0-1.91,1.883-1.91m-1.816,18.056V90.416c0-1.75,0-1.75,1.816-1.75s1.816,0,1.816,1.75v10.831c0,1.75,0,1.75-1.816,1.75s-1.816,0-1.816-1.75" transform="translate(-217.889 -65.34)" fill="#4fb645"/>
    <path id="Caminho_1315" data-name="Caminho 1315" d="M311.587,120.361v-9.135c0-1.509.053-1.883.948-2.391a11.273,11.273,0,0,1,5.422-1.309c3.913,0,6.157,2.177,6.157,5.689v7.145c0,1.75,0,1.75-1.816,1.75s-1.83,0-1.83-1.75v-6.745a2.323,2.323,0,0,0-2.578-2.591,5.27,5.27,0,0,0-2.658.654v8.681c0,1.75,0,1.75-1.83,1.75s-1.816,0-1.816-1.75" transform="translate(-244.727 -84.453)" fill="#4fb645"/>
    <path id="Caminho_1316" data-name="Caminho 1316" d="M386.089,107.032V96.08c0-1.749,0-1.749,1.816-1.749s1.816,0,1.816,1.749v1.336h3.272c1.656,0,1.656,0,1.656,1.656s0,1.656-1.656,1.656h-3.272v5.93c0,1.389.508,1.963,1.749,1.963a4.926,4.926,0,0,0,1.71-.347,2.922,2.922,0,0,1,.855-.24c.414,0,.561.254.988,1.3a3.063,3.063,0,0,1,.361,1.162c0,.347-.267.521-.882.8a8.494,8.494,0,0,1-3.272.708c-3.045,0-5.142-1.683-5.142-4.968" transform="translate(-303.243 -74.09)" fill="#4fb645"/>
    <path id="Caminho_1317" data-name="Caminho 1317" d="M439.241,107.032V96.08c0-1.749,0-1.749,1.816-1.749s1.816,0,1.816,1.749v1.336h3.272c1.656,0,1.656,0,1.656,1.656s0,1.656-1.656,1.656h-3.272v5.93c0,1.389.508,1.963,1.75,1.963a4.925,4.925,0,0,0,1.709-.347,2.923,2.923,0,0,1,.855-.24c.414,0,.561.254.988,1.3a3.06,3.06,0,0,1,.361,1.162c0,.347-.267.521-.881.8a8.494,8.494,0,0,1-3.272.708c-3.045,0-5.142-1.683-5.142-4.968" transform="translate(-344.989 -74.09)" fill="#4fb645"/>
    <path id="Caminho_1318" data-name="Caminho 1318" d="M489.969,116.911a26.913,26.913,0,0,1-.013-3.592,6.109,6.109,0,0,1,6.464-5.729c3.793,0,6.023,2.4,6.023,6.036v.708c0,1.6-.347,1.843-1.776,1.843h-7.319l.013.4c.053,1.563,1.322,2.618,3.179,2.618a6.885,6.885,0,0,0,2.818-.547,3.212,3.212,0,0,1,1.1-.361c.347,0,.534.254.948,1.189a3.063,3.063,0,0,1,.374,1.162c0,.294-.174.481-.935.828a10.708,10.708,0,0,1-4.3.948c-3.766,0-6.291-2.284-6.571-5.5m9.162-3.192a2.675,2.675,0,0,0-2.858-3.112,2.834,2.834,0,0,0-2.912,3.018v.094Z" transform="translate(-384.78 -84.503)" fill="#4fb645"/>
    <path id="Caminho_1319" data-name="Caminho 1319" d="M561.511,125.956c-.588-.267-.868-.468-.868-.815a3.4,3.4,0,0,1,.387-1.215c.4-.988.6-1.162.962-1.162a4,4,0,0,1,1.229.388,7.01,7.01,0,0,0,2.938.6c1.95,0,2.925-.989,2.925-2.6v-.427a7.63,7.63,0,0,1-3.085.641,5.678,5.678,0,0,1-5.876-5.128,24.624,24.624,0,0,1,0-3.579c.281-3.018,2.845-5.128,6.437-5.128a10.562,10.562,0,0,1,5.222,1.309c.881.507.948.881.948,2.391v9.522c0,4.22-2.578,6.291-6.2,6.291a11.565,11.565,0,0,1-5.022-1.082m5.048-7.893a4.757,4.757,0,0,0,2.524-.641v-5.863a4.757,4.757,0,0,0-2.524-.641,2.539,2.539,0,0,0-2.818,2.284,12.8,12.8,0,0,0,0,2.578,2.523,2.523,0,0,0,2.818,2.284" transform="translate(-439.88 -84.453)" fill="#4fb645"/>
    <path id="Caminho_1320" data-name="Caminho 1320" d="M635.547,120.361V112.4c0-2.978,1.83-4.875,4.7-4.875a10.357,10.357,0,0,1,2.765.361c.721.227,1.189.334,1.189.842a5.216,5.216,0,0,1-.307,1.349c-.267.975-.427,1.3-.868,1.3a3.622,3.622,0,0,1-.828-.147,6.649,6.649,0,0,0-1.509-.2c-1.029,0-1.509.494-1.509,1.549v7.786c0,1.75,0,1.75-1.816,1.75s-1.816,0-1.816-1.75" transform="translate(-499.172 -84.453)" fill="#4fb645"/>
    <path id="Caminho_1321" data-name="Caminho 1321" d="M681.356,117.756c0-2.257,1.736-4.354,5.422-4.354a12.12,12.12,0,0,1,3.152.427V112.8c0-1.309-.721-2.03-2.765-2.03a8.2,8.2,0,0,0-2.725.6,2.535,2.535,0,0,1-.895.227c-.361,0-.548-.24-.922-1.2a3.629,3.629,0,0,1-.347-1.215c0-.36.174-.521,1.068-.868a10.787,10.787,0,0,1,4.074-.788c3.846,0,6,1.7,6,5.422v6.638a1.329,1.329,0,0,1-.641,1.309,11.068,11.068,0,0,1-5.756,1.469c-3.726,0-5.663-2.11-5.663-4.608m5.917,1.71a6.133,6.133,0,0,0,2.658-.6v-2.6a8.767,8.767,0,0,0-2.5-.414c-1.79,0-2.631.8-2.631,1.87,0,1.109,1.015,1.749,2.471,1.749" transform="translate(-535.152 -84.453)" fill="#4fb645"/>
    <path id="Caminho_1322" data-name="Caminho 1322" d="M753.246,120.361V112.4c0-2.978,1.83-4.875,4.7-4.875a10.357,10.357,0,0,1,2.765.361c.721.227,1.189.334,1.189.842a5.218,5.218,0,0,1-.307,1.349c-.267.975-.427,1.3-.868,1.3a3.623,3.623,0,0,1-.828-.147,6.647,6.647,0,0,0-1.509-.2c-1.028,0-1.509.494-1.509,1.549v7.786c0,1.75,0,1.75-1.816,1.75s-1.816,0-1.816-1.75" transform="translate(-591.616 -84.453)" fill="#4fb645"/>
    <path id="Caminho_1323" data-name="Caminho 1323" d="M47.07,35.052V20.523a4.795,4.795,0,1,0-4.763-8.048L29.9,5.31a4.859,4.859,0,0,0,.028-.515,4.8,4.8,0,1,0-9.555.586L8.086,12.475a4.794,4.794,0,1,0-4.764,8.048v14.53A4.8,4.8,0,1,0,8,43.182l12.358,7.135c-.015.152-.023.306-.023.462a4.8,4.8,0,1,0,9.592,0c0-.131-.007-.26-.017-.388l12.485-7.209a4.795,4.795,0,1,0,4.676-8.13M7.919,19.594l5.1,2.942L6.27,34.232V20.523a4.793,4.793,0,0,0,1.65-.928M25.13,29.637a1.849,1.849,0,1,1,1.849-1.849,1.851,1.851,0,0,1-1.849,1.849m-4.667-.745L8.906,35.559l6.669-11.551,4.859,2.8a4.785,4.785,0,0,0,.029,2.081M21.9,24.25l-4.846-2.794,6.608-11.445V23.224A4.8,4.8,0,0,0,21.9,24.25M26.6,23.224V9.781l6.742,11.678L28.419,24.3A4.8,4.8,0,0,0,26.6,23.224m3.236,3.659,4.98-2.873,6.655,11.527L29.814,28.815a4.767,4.767,0,0,0,.026-1.931m7.532-4.346,5.1-2.944a4.791,4.791,0,0,0,1.649.928V34.232Zm3.563-5.457L35.9,19.986,29.136,8.273l11.751,6.785a4.769,4.769,0,0,0,.048,2.023M14.5,19.984l-5.037-2.9a4.764,4.764,0,0,0,.047-2.021L21.257,8.274Zm7.5,11.427a4.8,4.8,0,0,0,1.664.941v5.858H10.209Zm4.611.941a4.8,4.8,0,0,0,1.722-.992l11.879,6.849H26.6ZM45.6,14.11a1.849,1.849,0,1,1-1.849,1.849A1.851,1.851,0,0,1,45.6,14.11M25.13,2.947A1.849,1.849,0,1,1,23.281,4.8,1.851,1.851,0,0,1,25.13,2.947M4.8,14.11a1.849,1.849,0,1,1-1.849,1.849A1.851,1.851,0,0,1,4.8,14.11m0,27.355a1.849,1.849,0,1,1,1.849-1.849A1.851,1.851,0,0,1,4.8,41.465m5.585-.309H23.657v5.06A4.807,4.807,0,0,0,21.544,47.6ZM25.13,52.629a1.849,1.849,0,1,1,1.849-1.849,1.851,1.851,0,0,1-1.849,1.849M26.6,46.216v-5.06H40.011l-11.25,6.5A4.811,4.811,0,0,0,26.6,46.216M45.6,41.465a1.849,1.849,0,1,1,1.849-1.849A1.851,1.851,0,0,1,45.6,41.465" fill="#4fb645"/>
    <path id="Caminho_1324" data-name="Caminho 1324" d="M799.568,157.741V156.66c0-1.973,0-1.973,1.973-1.973s1.973,0,1.973,1.973v1.081c0,1.946,0,1.946-1.973,1.946s-1.973,0-1.973-1.946" transform="translate(-627.998 -121.495)" fill="#4fb645"/>
    <path id="Caminho_1325" data-name="Caminho 1325" d="M834.012,105.608V90.933c0-2.243,0-2.243,2.284-2.243s2.284,0,2.284,2.243V96.2h7.256v-5.27c0-2.243,0-2.243,2.284-2.243s2.284,0,2.284,2.243v14.675c0,2.243,0,2.243-2.284,2.243s-2.284,0-2.284-2.243v-5.189h-7.256v5.189c0,2.243,0,2.243-2.284,2.243s-2.284,0-2.284-2.243" transform="translate(-655.051 -69.659)" fill="#4fb645"/>
    <path id="Caminho_1326" data-name="Caminho 1326" d="M925.676,99.376a27.1,27.1,0,0,1,.014-4.189,8.632,8.632,0,0,1,17.175,0,28.907,28.907,0,0,1-.014,4.189,8.632,8.632,0,0,1-17.175,0m4.554-.527a4.04,4.04,0,1,0,8.08,0,24.243,24.243,0,0,0-.027-3.135c-.162-2.513-1.757-4.067-4.013-4.067a3.958,3.958,0,0,0-4.054,4.067,26.99,26.99,0,0,0,.013,3.135" transform="translate(-726.988 -68.67)" fill="#4fb645"/>
    <path id="Caminho_1327" data-name="Caminho 1327" d="M1020.6,99.379V90.974c0-2.284,0-2.284,2.284-2.284s2.284,0,2.284,2.284v8.784c0,2.581,1.595,4.148,3.838,4.148s3.824-1.567,3.824-4.148V90.974c0-2.284,0-2.284,2.284-2.284s2.283,0,2.283,2.284v8.405c0,5.27-3.338,8.743-8.418,8.743-5.054,0-8.378-3.473-8.378-8.743" transform="translate(-801.598 -69.659)" fill="#4fb645"/>
    <path id="Caminho_1328" data-name="Caminho 1328" d="M1112.369,105.159c-.649-.405-.906-.662-.906-1.013,0-.54.406-1.054,1.014-2.054.513-.838.851-1.135,1.243-1.135a1.844,1.844,0,0,1,1.027.419,8.817,8.817,0,0,0,4.689,1.54c1.824,0,2.878-.513,2.878-1.581,0-1.176-1.676-1.622-3.824-2.067-4.527-.946-6.54-2.541-6.54-5.987,0-3.513,3.094-5.851,7.121-5.851a11.946,11.946,0,0,1,6.149,1.513c.5.284.824.608.824.932,0,.379-.189.689-.8,1.676s-.892,1.514-1.419,1.514a2.4,2.4,0,0,1-1.081-.46,7.54,7.54,0,0,0-3.676-.959c-1.77,0-2.527.649-2.527,1.5,0,.973.973,1.5,3.3,1.932,4.851.892,7.067,2.676,7.067,6.04s-2.865,6.013-7.473,6.013a12.488,12.488,0,0,1-7.067-1.973" transform="translate(-872.967 -68.67)" fill="#4fb645"/>
    <path id="Caminho_1329" data-name="Caminho 1329" d="M1196.791,104.742V91.8c0-3.108,0-3.108,3.108-3.108h8.216c2.189,0,2.189,0,2.189,2.082,0,2.135,0,2.135-2.189,2.135h-6.743v3.446h6c2.054,0,2.054,0,2.054,1.946,0,1.973,0,1.973-2.054,1.973h-6v3.365h6.8c2.189,0,2.189,0,2.189,2.081,0,2.135,0,2.135-2.189,2.135h-8.27c-3.108,0-3.108,0-3.108-3.108" transform="translate(-939.986 -69.658)" fill="#4fb645"/>
  </g>
</svg>
