<svg xmlns="http://www.w3.org/2000/svg" xmlns:xlink="http://www.w3.org/1999/xlink" width="309.789" height="79.531" viewBox="0 0 309.789 79.531">
  <defs>
    <clipPath id="clip-path">
      <rect id="Retângulo_598" data-name="Retângulo 598" width="309.789" height="79.531" transform="translate(0 0)" fill="none"/>
    </clipPath>
  </defs>
  <g id="Grupo_730" data-name="Grupo 730" transform="translate(0 0)">
    <g id="Grupo_729" data-name="Grupo 729" clip-path="url(#clip-path)">
      <path id="Caminho_1523" data-name="Caminho 1523" d="M70.992,6.161h34.43c13.64,0,20.79,7.81,20.79,18.7,0,7.26-3.41,12.87-9.351,15.84v.219c7.92,2.531,12.651,9.132,12.651,17.712,0,11.219-7.26,19.469-21.23,19.469H70.992Zm32.67,29.15c5.83,0,8.579-3.52,8.579-8.03,0-4.62-2.2-8.03-8.689-8.03H85.072v16.06Zm2.2,29.81c6.6,0,9.24-3.85,9.24-8.58,0-4.84-3.3-8.69-9.13-8.69h-20.9v17.27Z" fill="#fff"/>
      <path id="Caminho_1524" data-name="Caminho 1524" d="M131.69,51.481c0-17.271,12.1-29.151,29.37-29.151,17.05,0,28.93,11.55,28.93,29.04V78.1H178V67.431c-3.3,8.03-10.67,12.1-19.25,12.1-13.2,0-27.06-9.46-27.06-28.05m45.21-.55c0-9.571-6.38-16.391-15.95-16.391s-16.06,6.82-16.06,16.391,6.489,16.39,16.06,16.39S176.9,60.5,176.9,50.931" fill="#fff"/>
      <path id="Caminho_1525" data-name="Caminho 1525" d="M196.29,49.831c0-18.15,10.78-27.5,26.841-27.5s26.84,9.241,26.84,27.5V78.1h-13.09V49.831c0-10.34-5.5-15.291-13.75-15.291s-13.75,4.951-13.75,15.291V78.1H196.29Z" fill="#fff"/>
      <path id="Caminho_1526" data-name="Caminho 1526" d="M257.428,0h13.091V47.521L292.078,23.76H308.8L283.279,50.381,309.788,78.1H292.739l-22.22-24.53V78.1H257.428Z" fill="#fff"/>
      <path id="Caminho_1527" data-name="Caminho 1527" d="M44.63,6.12,0,78.1H7.567L52.2,6.12" fill="#fff"/>
      <path id="Caminho_1528" data-name="Caminho 1528" d="M58.213,6.12,13.583,78.1H21.15L65.779,6.12" fill="#fff"/>
      <path id="Caminho_1529" data-name="Caminho 1529" d="M65.779,78.1H44.63L0,6.119H21.149Z" fill="#b3f402"/>
    </g>
  </g>
</svg>
