<svg id="Componente_4_1" data-name="Componente 4 1" xmlns="http://www.w3.org/2000/svg" xmlns:xlink="http://www.w3.org/1999/xlink" viewBox="0 0 566.32 626.47"><defs><style>.cls-1{fill:none;}.cls-2{clip-path:url(#clip-path);}.cls-3{fill:#fff;}.cls-4{opacity:0.25;}.cls-5{clip-path:url(#clip-path-2);}.cls-6{clip-path:url(#clip-path-3);}.cls-7{fill:url(#Gradiente_sem_nome);}.cls-8{clip-path:url(#clip-path-4);}.cls-9{clip-path:url(#clip-path-5);}.cls-10{fill:url(#Gradiente_sem_nome_2);}</style><clipPath id="clip-path"/><clipPath id="clip-path-2"><rect class="cls-1" x="186.36" y="402.05" width="48.94" height="88.33"/></clipPath><clipPath id="clip-path-3"><polygon class="cls-1" points="235.31 490.38 191.21 453.04 186.36 402.05 229.01 424.21 235.31 490.38"/></clipPath><linearGradient id="Gradiente_sem_nome" x1="-675.52" y1="844.11" x2="-675.51" y2="844.11" gradientTransform="matrix(100.78, 0, 0, -88.66, 68171.49, 75283.41)" gradientUnits="userSpaceOnUse"><stop offset="0" stop-color="#fff"/><stop offset="0.25" stop-color="#fff"/><stop offset="1" stop-color="#1d1d1b"/></linearGradient><clipPath id="clip-path-4"><rect class="cls-1" x="196.69" y="510.58" width="47.96" height="80.37"/></clipPath><clipPath id="clip-path-5"><polygon class="cls-1" points="196.69 510.58 239.97 539.42 244.65 590.95 202 568.78 196.69 510.58"/></clipPath><linearGradient id="Gradiente_sem_nome_2" x1="-674.29" y1="844.45" x2="-674.28" y2="844.45" gradientTransform="matrix(92.11, 0, 0, -88.94, 62197.75, 75652.68)" gradientUnits="userSpaceOnUse"><stop offset="0" stop-color="#fff"/><stop offset="0.17" stop-color="#fff"/><stop offset="1" stop-color="#1d1d1b"/></linearGradient></defs><g class="cls-2"><g id="Grupo_71" data-name="Grupo 71"><g id="Grupo_70" data-name="Grupo 70"><g id="Grupo_69" data-name="Grupo 69"><path id="Caminho_16" data-name="Caminho 16" class="cls-3" d="M367.34,746.47A163.65,163.65,0,0,1,205,598.42l-8.36-87.84-55.38-46.9a145.52,145.52,0,0,1-27.84-190.11,56.53,56.53,0,0,1,103.66,25.52l18.19,191.29.81.68a59.28,59.28,0,0,0,91.63-19.35L473,172.77A93.11,93.11,0,0,1,556.75,120h.5a93.1,93.1,0,0,1,83.83,51.91A144.31,144.31,0,0,1,545.32,376.7a50.79,50.79,0,0,0-38.2,59.49l22.21,112.08A165.8,165.8,0,0,1,427,735.15a163.48,163.48,0,0,1-59.61,11.32M240,539.42l5.25,55.17A122.93,122.93,0,0,0,412.28,697.52a125.45,125.45,0,0,0,77.46-141.39L467.53,444A91.06,91.06,0,0,1,536,337.39a103.91,103.91,0,0,0,69-147.45c-9.28-18.61-27.2-29.94-48-29.55a52.32,52.32,0,0,0-47.7,30L364.05,489.37a99.79,99.79,0,0,1-124.08,50M160.56,288.24a15.26,15.26,0,0,0-13.28,7.38,105,105,0,0,0,20.1,137.23L191.22,453,176.94,302.91a15.76,15.76,0,0,0-12.24-14.18,18.09,18.09,0,0,0-4.14-.49"/><g id="Grupo_63" data-name="Grupo 63" class="cls-4"><g id="Grupo_62" data-name="Grupo 62"><g class="cls-5"><g id="Grupo_61" data-name="Grupo 61"><g id="Grupo_60" data-name="Grupo 60"><g class="cls-6"><g id="Grupo_59" data-name="Grupo 59"><rect id="Retângulo_38" data-name="Retângulo 38" class="cls-7" x="160.45" y="401.86" width="100.78" height="88.66" transform="translate(-278.85 384.97) rotate(-57.58)"/></g></g></g></g></g></g></g><g id="Grupo_68" data-name="Grupo 68" class="cls-4"><g id="Grupo_67" data-name="Grupo 67"><g class="cls-8"><g id="Grupo_66" data-name="Grupo 66"><g id="Grupo_65" data-name="Grupo 65"><g class="cls-9"><g id="Grupo_64" data-name="Grupo 64"><rect id="Retângulo_40" data-name="Retângulo 40" class="cls-10" x="174.64" y="506.29" width="92.11" height="88.94" transform="translate(-339.64 355.65) rotate(-48.97)"/></g></g></g></g></g></g></g></g></g></g></g></svg>