<?xml version="1.0" encoding="utf-8"?>
<!-- Generator: Adobe Illustrator 25.3.0, SVG Export Plug-In . SVG Version: 6.00 Build 0)  -->
<svg version="1.1" id="Componente_4_1" xmlns="http://www.w3.org/2000/svg" xmlns:xlink="http://www.w3.org/1999/xlink" x="0px"
	 y="0px" viewBox="0 0 566.3 626.5" style="enable-background:new 0 0 566.3 626.5;" xml:space="preserve">
<style type="text/css">
	.st0{fill:#FFFFFF;}
	.st1{clip-path:url(#SVGID_2_);}
	.st2{clip-path:url(#SVGID_4_);fill:url(#SVGID_5_);}
	.st3{clip-path:url(#SVGID_4_);fill:url(#SVGID_6_);}
	.st4{clip-path:url(#SVGID_8_);}
	.st5{clip-path:url(#SVGID_10_);fill:url(#SVGID_11_);}
	.st6{clip-path:url(#SVGID_10_);fill:url(#SVGID_12_);}
</style>
<g>
	<path class="st0" d="M357.3,756.5c-84.1-0.3-154.3-64.3-162.3-148.1l-8.4-87.8l-55.4-46.9c-55.7-47.4-67.7-128.7-27.8-190.1
		c13-20.3,37.5-30,60.9-24.1c23.5,5.6,40.7,25.6,42.8,49.6l18.2,191.3l0.8,0.7c25,21.2,62.4,18.1,83.5-6.9c3.2-3.8,5.9-8,8.1-12.4
		L463,182.8c15.5-32.2,48-52.7,83.8-52.8c0.2,0,0.3,0,0.5,0c35.6-0.1,68.1,20,83.8,51.9c35.6,71.3,6.6,158-64.7,193.5
		c-9.9,4.9-20.3,8.7-31,11.3c-26.7,6.3-43.6,32.6-38.2,59.5l22.2,112.1C535,637.2,491.9,715.9,417,745.1
		C398,752.6,377.7,756.4,357.3,756.5 M230,549.4l5.2,55.2c6.4,67.6,66.4,117.2,134,110.8c11.3-1.1,22.5-3.7,33.1-7.9
		c56.7-22.1,89.4-81.7,77.5-141.4L457.5,454c-9.7-48.2,20.6-95.4,68.5-106.7c55.8-13.3,90.3-69.3,77-125.1
		c-1.8-7.7-4.6-15.2-8.1-22.3c-9.3-18.6-27.2-29.9-48-29.5c-20.4-0.1-39,11.6-47.7,30L354.1,499.4C331.7,545.4,278,567,230,549.4
		L230,549.4 M150.6,298.2c-5.4-0.1-10.5,2.7-13.3,7.4c-28.7,44.3-20.1,103,20.1,137.2l23.8,20.2l-14.3-150.1
		c-0.5-6.9-5.5-12.7-12.2-14.2C153.3,298.4,152,298.2,150.6,298.2L150.6,298.2"/>
	<g>
		<defs>
			<polyline id="SVGID_1_" points="176.4,412 225.3,412 225.3,500.4 176.4,500.4 176.4,412 			"/>
		</defs>
		<clipPath id="SVGID_2_">
			<use xlink:href="#SVGID_1_"  style="overflow:visible;"/>
		</clipPath>
		<g class="st1">
			<defs>
				<polyline id="SVGID_3_" points="225.3,500.4 181.2,463 176.4,412 219,434.2 225.3,500.4 				"/>
			</defs>
			<clipPath id="SVGID_4_">
				<use xlink:href="#SVGID_3_"  style="overflow:visible;"/>
			</clipPath>
			
				<linearGradient id="SVGID_5_" gradientUnits="userSpaceOnUse" x1="0" y1="594.1994" x2="1" y2="594.1994" gradientTransform="matrix(0.5403 -0.8508 0.7484 0.4753 -332.7971 260.4421)">
				<stop  offset="0" style="stop-color:#FFFFFF"/>
				<stop  offset="0.252" style="stop-color:#FFFFFF"/>
				<stop  offset="1" style="stop-color:#C6C6C6"/>
			</linearGradient>
			<polyline class="st2" points="176.4,412.1 176.4,412.1 181.2,463 181.2,463 176.4,412.1 176.4,412.1 			"/>
			
				<linearGradient id="SVGID_6_" gradientUnits="userSpaceOnUse" x1="0" y1="626.4748" x2="1" y2="626.4748" gradientTransform="matrix(0.5403 -0.8508 0.7484 0.4753 -332.7971 260.4421)">
				<stop  offset="0" style="stop-color:#FFFFFF"/>
				<stop  offset="0.252" style="stop-color:#FFFFFF"/>
				<stop  offset="1" style="stop-color:#C6C6C6"/>
			</linearGradient>
			<polyline class="st3" points="176.4,412.1 181.2,463 181.2,463 181.2,463 225.3,500.4 225.3,500.4 219,434.2 176.4,412.1 			"/>
		</g>
	</g>
	<g>
		<defs>
			<polyline id="SVGID_7_" points="186.7,520.6 234.6,520.6 234.6,600.9 186.7,600.9 186.7,520.6 			"/>
		</defs>
		<clipPath id="SVGID_8_">
			<use xlink:href="#SVGID_7_"  style="overflow:visible;"/>
		</clipPath>
		<g class="st4">
			<defs>
				<polyline id="SVGID_9_" points="186.7,520.6 230,549.4 234.7,600.9 192,578.8 186.7,520.6 				"/>
			</defs>
			<clipPath id="SVGID_10_">
				<use xlink:href="#SVGID_9_"  style="overflow:visible;"/>
			</clipPath>
			
				<linearGradient id="SVGID_11_" gradientUnits="userSpaceOnUse" x1="0" y1="609.3065" x2="1" y2="609.3065" gradientTransform="matrix(0.7257 -0.8337 0.805 0.7007 -379.44 220.4061)">
				<stop  offset="0" style="stop-color:#FFFFFF"/>
				<stop  offset="0.166" style="stop-color:#FFFFFF"/>
				<stop  offset="1" style="stop-color:#C6C6C6"/>
			</linearGradient>
			<path class="st5" d="M230,549.4L230,549.4l0,0.3L230,549.4C230,549.4,230,549.4,230,549.4 M186.8,521.4l5.2,57.4l0.2,0.1
				L186.8,521.4"/>
			
				<linearGradient id="SVGID_12_" gradientUnits="userSpaceOnUse" x1="0" y1="626.465" x2="1" y2="626.465" gradientTransform="matrix(0.7257 -0.8337 0.805 0.7007 -379.44 220.4061)">
				<stop  offset="0" style="stop-color:#FFFFFF"/>
				<stop  offset="0.166" style="stop-color:#FFFFFF"/>
				<stop  offset="1" style="stop-color:#C6C6C6"/>
			</linearGradient>
			<polyline class="st6" points="186.7,520.6 186.7,520.6 186.8,521.4 192.2,578.9 234.7,600.9 234.6,600.9 230,549.7 230,549.4 
				230,549.4 230,549.4 230,549.4 186.7,520.6 			"/>
		</g>
	</g>
</g>
</svg>
