<?xml version="1.0" encoding="utf-8"?>
<!-- Generator: Adobe Illustrator 25.3.0, SVG Export Plug-In . SVG Version: 6.00 Build 0)  -->
<svg version="1.1" id="Componente_4_1" xmlns="http://www.w3.org/2000/svg" xmlns:xlink="http://www.w3.org/1999/xlink" x="0px"
	 y="0px" viewBox="0 0 566.3 626.5" style="enable-background:new 0 0 566.3 626.5;" xml:space="preserve">
<style type="text/css">
	.st0{clip-path:url(#SVGID_2_);}
	.st1{fill:#FFFFFF;}
	.st2{opacity:0.25;}
	.st3{clip-path:url(#SVGID_4_);}
	.st4{clip-path:url(#SVGID_6_);}
	.st5{fill:url(#Retângulo_38_1_);}
	.st6{clip-path:url(#SVGID_8_);}
	.st7{clip-path:url(#SVGID_10_);}
	.st8{fill:url(#Retângulo_40_1_);}
</style>
<g>
	<defs>
		<polyline id="SVGID_1_" points="566.3,636.5 0,636.5 0,10 566.3,10 		"/>
	</defs>
	<clipPath id="SVGID_2_">
		<use xlink:href="#SVGID_1_"  style="display:none;overflow:visible;"/>
	</clipPath>
	<g id="Grupo_71" class="st0">
		<g id="Grupo_70">
			<g>
				<g id="Grupo_69">
					<path id="Caminho_16" class="st1" d="M367.3,746.5c-84.1-0.3-154.3-64.3-162.3-148l-8.4-87.8l-55.4-46.9
						c-55.7-47.4-67.7-128.7-27.8-190.1c13-20.3,37.5-30,60.9-24.1c23.5,5.6,40.7,25.6,42.8,49.6l18.2,191.3l0.8,0.7
						c25,21.2,62.4,18.1,83.5-6.9c3.2-3.8,5.9-8,8.1-12.4L473,172.8c15.5-32.2,48-52.7,83.8-52.8c0.2,0,0.3,0,0.5,0
						c35.6-0.1,68.1,20,83.8,51.9c35.6,71.3,6.6,158-64.7,193.5c-9.9,4.9-20.3,8.7-31,11.3c-26.7,6.3-43.6,32.6-38.2,59.5
						l22.2,112.1C545,627.2,501.9,705.9,427,735.1C408,742.6,387.7,746.4,367.3,746.5 M240,539.4l5.2,55.2
						c6.4,67.6,66.4,117.2,134,110.8c11.3-1.1,22.5-3.7,33.1-7.9c56.7-22.1,89.4-81.7,77.5-141.4L467.5,444
						c-9.7-48.2,20.6-95.4,68.5-106.7c55.8-13.3,90.3-69.3,77.1-125.1c-1.8-7.7-4.6-15.2-8.1-22.3c-9.3-18.6-27.2-29.9-48-29.5
						c-20.4-0.1-39,11.6-47.7,30L364.1,489.4C341.7,535.4,288,557,240,539.4 M160.6,288.2c-5.4-0.1-10.5,2.7-13.3,7.4
						c-28.7,44.3-20.1,103,20.1,137.2l23.8,20.2l-14.3-150.1c-0.5-6.9-5.5-12.7-12.2-14.2C163.3,288.4,162,288.2,160.6,288.2"/>
					<g id="Grupo_63" transform="translate(96.364 282.048)" class="st2">
						<g id="Grupo_62">
							<g>
								<defs>
									<rect id="SVGID_3_" x="90" y="120" width="48.9" height="88.3"/>
								</defs>
								<clipPath id="SVGID_4_">
									<use xlink:href="#SVGID_3_"  style="overflow:visible;"/>
								</clipPath>
								<g id="Grupo_61" class="st3">
									<g id="Grupo_60" transform="translate(0)">
										<g>
											<defs>
												<polygon id="SVGID_5_" points="138.9,208.3 94.8,171 90,120 132.6,142.2 												"/>
											</defs>
											<clipPath id="SVGID_6_">
												<use xlink:href="#SVGID_5_"  style="overflow:visible;"/>
											</clipPath>
											<g id="Grupo_59" class="st4">
												
													<linearGradient id="Retângulo_38_1_" gradientUnits="userSpaceOnUse" x1="-771.8865" y1="562.0663" x2="-771.8765" y2="562.0663" gradientTransform="matrix(54.0299 -85.0769 -74.8409 -47.5293 83820.1484 -38688.9492)">
													<stop  offset="0" style="stop-color:#FFFFFF"/>
													<stop  offset="0.252" style="stop-color:#FFFFFF"/>
													<stop  offset="1" style="stop-color:#1D1D1B"/>
												</linearGradient>
												<polygon id="Retângulo_38" class="st5" points="50,182.9 104.1,97.8 178.9,145.4 124.9,230.4 												"/>
											</g>
										</g>
									</g>
								</g>
							</g>
						</g>
					</g>
					<g id="Grupo_68" transform="translate(106.687 390.58)" class="st2">
						<g id="Grupo_67">
							<g>
								<defs>
									<rect id="SVGID_7_" x="90" y="120" width="48" height="80.4"/>
								</defs>
								<clipPath id="SVGID_8_">
									<use xlink:href="#SVGID_7_"  style="overflow:visible;"/>
								</clipPath>
								<g id="Grupo_66" class="st6">
									<g id="Grupo_65" transform="translate(0)">
										<g>
											<defs>
												<polygon id="SVGID_9_" points="90,120 133.3,148.8 138,200.4 95.3,178.2 												"/>
											</defs>
											<clipPath id="SVGID_10_">
												<use xlink:href="#SVGID_9_"  style="overflow:visible;"/>
											</clipPath>
											<g id="Grupo_64" class="st7">
												
													<linearGradient id="Retângulo_40_1_" gradientUnits="userSpaceOnUse" x1="-780.9797" y1="453.869" x2="-780.9677" y2="453.869" gradientTransform="matrix(60.4707 -69.4779 -67.0852 -58.3883 77702.5156 -27501.4102)">
													<stop  offset="0" style="stop-color:#FFFFFF"/>
													<stop  offset="0.166" style="stop-color:#FFFFFF"/>
													<stop  offset="1" style="stop-color:#1D1D1B"/>
												</linearGradient>
												<polygon id="Retângulo_40" class="st8" points="50.2,165.7 110.7,96.2 177.8,154.6 117.3,224.1 												"/>
											</g>
										</g>
									</g>
								</g>
							</g>
						</g>
					</g>
				</g>
			</g>
		</g>
	</g>
</g>
</svg>
