<svg xmlns="http://www.w3.org/2000/svg" width="29" height="22.245" viewBox="0 0 29 22.245">
  <path id="Icon_zocial-persona" data-name="Icon zocial-persona" d="M11.9,17.46a54.3,54.3,0,0,1-6.012-.2s.235-3.589,1.878-4.234,2.044-.554,2.613-.9l.043-.024v-.966A4.451,4.451,0,0,1,9.184,9.106a1.6,1.6,0,0,1-.468-1.094,1.49,1.49,0,0,1,.228-.778c.1-2.024,1.384-3.363,2.959-3.363s2.863,1.339,2.959,3.363a1.486,1.486,0,0,1,.228.778,1.6,1.6,0,0,1-.468,1.094,4.441,4.441,0,0,1-1.237,2.027V12.1l.042.024c.571.344.972.252,2.615.9s1.876,4.234,1.876,4.234a54.585,54.585,0,0,1-6.02.2M19.46-.035H1.053A1.059,1.059,0,0,0-.006,1.025V21.152a1.058,1.058,0,0,0,1.059,1.058H19.46l9.533-11.122L19.46-.035Z" transform="translate(0.006 0.035)" fill="#fff"/>
</svg>
