<svg xmlns="http://www.w3.org/2000/svg" width="24" height="15.597" viewBox="0 0 24 15.597">
  <g id="Icon_ionic-ios-people" data-name="Icon ionic-ios-people" transform="translate(-2.215 -7.748)">
    <path id="Caminho_35" data-name="Caminho 35" d="M20.624,19.748c-.6-.214-1.577-.225-2.01-.39a2.839,2.839,0,0,1-.93-.433,5.747,5.747,0,0,1-.155-1.523,2.461,2.461,0,0,0,.529-.748,8.317,8.317,0,0,0,.257-1.47s.353.15.492-.556c.118-.609.342-.93.283-1.379s-.31-.342-.31-.342a4,4,0,0,0,.31-2,3.2,3.2,0,0,0-3.453-3.159,3.21,3.21,0,0,0-3.458,3.159,4.062,4.062,0,0,0,.3,2s-.251-.107-.31.342.16.77.283,1.379c.139.711.492.556.492.556a8.4,8.4,0,0,0,.257,1.47,2.461,2.461,0,0,0,.529.748,5.747,5.747,0,0,1-.155,1.523,2.733,2.733,0,0,1-.93.428c-.428.166-1.406.187-2.01.4a3.772,3.772,0,0,0-2.448,3.592H23.067A3.765,3.765,0,0,0,20.624,19.748Z" transform="translate(-1.433)" fill="#fff"/>
    <path id="Caminho_36" data-name="Caminho 36" d="M8.014,17.975a3.629,3.629,0,0,0,1.785-.5c-.829-1.256-.38-2.721-.551-4.089a2.255,2.255,0,0,0-2.5-2.181H6.732a2.262,2.262,0,0,0-2.475,2.181c-.171,1.363.3,2.993-.545,4.089a3.358,3.358,0,0,0,1.791.444h0a2.707,2.707,0,0,1-.053.9,1.35,1.35,0,0,1-.641.294,12.4,12.4,0,0,0-1.384.385,2.25,2.25,0,0,0-1.208,1.988H6.507a3.84,3.84,0,0,1,1.71-1.593,3.589,3.589,0,0,1,1.32-.278s.2-.321-.465-.444a4.557,4.557,0,0,1-1.026-.358C7.945,18.7,8.014,17.975,8.014,17.975Z" transform="translate(0 -0.83)" fill="#fff"/>
    <path id="Caminho_37" data-name="Caminho 37" d="M25.593,17.975a3.629,3.629,0,0,1-1.785-.5c.829-1.256.38-2.721.551-4.089a2.255,2.255,0,0,1,2.5-2.181h.021a2.262,2.262,0,0,1,2.475,2.181c.171,1.363-.3,2.993.545,4.089a3.358,3.358,0,0,1-1.791.444h0a2.707,2.707,0,0,0,.053.9,1.35,1.35,0,0,0,.641.294,12.4,12.4,0,0,1,1.384.385,2.25,2.25,0,0,1,1.208,1.988H27.1a3.84,3.84,0,0,0-1.71-1.593,3.589,3.589,0,0,0-1.32-.278s-.2-.321.465-.444a4.557,4.557,0,0,0,1.026-.358C25.663,18.7,25.593,17.975,25.593,17.975Z" transform="translate(-5.178 -0.83)" fill="#fff"/>
  </g>
</svg>
