<svg width="40" height="27" viewBox="0 0 40 27" fill="none" xmlns="http://www.w3.org/2000/svg">
<g clip-path="url(#clip0_4_2)">
<path fill-rule="evenodd" clip-rule="evenodd" d="M0 0H39.957L40 12.4521C35.1764 10.6175 19.8288 6.22683 0 11.6983V0Z" fill="#2C328C"/>
<path fill-rule="evenodd" clip-rule="evenodd" d="M0 26.4134H39.957V16.4514C32.7507 14.0395 19.9409 10.4256 0 15.5456V26.4134Z" fill="#FFF200"/>
<path fill-rule="evenodd" clip-rule="evenodd" d="M39.957 16.4514C32.7507 14.0395 19.9409 10.4256 0 15.5456V11.6983C19.8288 6.22683 35.1764 10.6237 40 12.4521L39.957 16.4514Z" fill="#ED1C24"/>
<path fill-rule="evenodd" clip-rule="evenodd" d="M12.7285 9.35252C13.7172 6.61984 15.9801 4.26022 19.9118 4.28632C23.8435 4.31242 26.4656 6.55843 27.1733 9.49683C22.1071 8.97026 18.7297 8.87814 12.7285 9.35252Z" fill="#FFF200"/>
<path d="M8.92725 21.3671L11.6031 17.3755H12.5887L15.4396 21.3671H14.3957L13.5836 20.1589H10.6666L9.89904 21.3671H8.92725ZM10.9368 19.729H13.2995L12.5718 18.6252C12.3917 18.3592 12.2271 18.0829 12.079 17.7977C11.9846 18.0676 11.8583 18.3253 11.7029 18.5653L10.9353 19.7336L10.9368 19.729ZM20.1266 21.3671V20.9434C19.7326 21.2699 19.1983 21.4331 18.5239 21.4331C18.2431 21.4353 17.9631 21.4028 17.6902 21.3364C17.4842 21.2941 17.2889 21.2106 17.1161 21.0908C16.9948 20.9981 16.9031 20.8723 16.852 20.7285C16.8106 20.5786 16.793 20.4232 16.7998 20.2679V18.4794H17.6549V20.0806C17.6455 20.2547 17.6631 20.4292 17.7071 20.598C17.7761 20.7416 17.8992 20.852 18.0495 20.905C18.2562 20.9836 18.4763 21.0207 18.6973 21.014C18.9423 21.0159 19.186 20.9781 19.4189 20.9019C19.6064 20.8524 19.7735 20.7449 19.8964 20.5949C20.0011 20.4259 20.0505 20.2284 20.0376 20.0299V18.4794H20.8927V21.3671H20.1266ZM22.9668 21.3671V18.4794H23.7344V18.9169C23.8855 18.7449 24.0712 18.6068 24.2794 18.5116C24.4543 18.4447 24.6402 18.4114 24.8275 18.4134C25.1273 18.4142 25.4248 18.4661 25.7071 18.5669L25.4124 19.0274C25.211 18.9569 24.9993 18.9206 24.786 18.92C24.6128 18.9172 24.4409 18.9502 24.2809 19.0167C24.1478 19.0679 24.0358 19.1626 23.9631 19.2854C23.8673 19.4603 23.8181 19.657 23.8204 19.8565V21.3686L22.9668 21.3671ZM30.2544 21.0109C29.9614 21.1559 29.6522 21.2656 29.3333 21.3379C29.0228 21.403 28.7064 21.4349 28.3892 21.4331C27.8349 21.4331 27.4097 21.3564 27.1103 21.2013C26.811 21.0462 26.6636 20.8482 26.6636 20.6072C26.6643 20.5344 26.6796 20.4626 26.7086 20.3958C26.7376 20.3291 26.7797 20.2689 26.8324 20.2188C26.9569 20.0939 27.1073 19.9979 27.2731 19.9378C27.4718 19.8653 27.6776 19.8139 27.8871 19.7843C28.0545 19.7597 28.3078 19.7336 28.6455 19.7106C29.1571 19.6844 29.6666 19.628 30.1715 19.5417C30.1715 19.4742 30.1715 19.4327 30.1715 19.4143C30.178 19.328 30.1583 19.2416 30.1151 19.1666C30.0718 19.0916 30.007 19.0313 29.929 18.9937C29.6211 18.8658 29.2884 18.8092 28.9556 18.8279C28.6534 18.813 28.351 18.8541 28.0637 18.9491C27.8713 19.0308 27.7187 19.1845 27.6384 19.3775L26.8033 19.3115C26.8753 19.1122 27.0059 18.9394 27.1779 18.8156C27.4068 18.6672 27.664 18.5679 27.9332 18.5239C28.3106 18.4518 28.6943 18.4178 29.0785 18.4226C29.4306 18.4159 29.7824 18.4452 30.1286 18.5101C30.339 18.5459 30.5409 18.6203 30.7242 18.7296C30.8447 18.8109 30.9374 18.9272 30.9898 19.0627C31.0244 19.2106 31.0384 19.3625 31.0313 19.5141V20.1666C31.0177 20.4553 31.0362 20.7447 31.0865 21.0294C31.1294 21.1609 31.2037 21.28 31.303 21.3763H30.4095C30.3212 21.2754 30.2622 21.1522 30.2391 21.0201L30.2544 21.0109ZM30.1823 19.9179C29.7214 20.0116 29.2546 20.0737 28.7852 20.1036C28.5346 20.1181 28.2852 20.1504 28.0391 20.2003C27.9158 20.2235 27.7999 20.2762 27.7014 20.3539C27.6656 20.3813 27.6364 20.4164 27.6157 20.4564C27.595 20.4965 27.5833 20.5406 27.5816 20.5857C27.5816 20.7162 27.6691 20.8252 27.8411 20.9127C28.0805 21.012 28.3391 21.0566 28.5979 21.0432C28.8958 21.0482 29.1926 21.0068 29.4776 20.9204C29.6944 20.8623 29.8906 20.7448 30.0441 20.5811C30.1461 20.4391 30.195 20.2657 30.1823 20.0913V19.9179Z" fill="#2C328C" stroke="#2C328C" stroke-width="0.22" stroke-miterlimit="22.93"/>
</g>
<defs>
<clipPath id="clip0_4_2">
<rect width="40" height="26.4134" fill="white"/>
</clipPath>
</defs>
</svg>
