<svg width="34" height="20" viewBox="0 0 34 20" fill="none" xmlns="http://www.w3.org/2000/svg">
<path fill-rule="evenodd" clip-rule="evenodd" d="M0.26179 0.769287C0.246321 1.70886 0.213175 2.64843 0.209861 3.588C0.166357 4.88135 0.26618 6.17549 0.50763 7.44799C2.03965 14.2349 7.64786 18.2547 14.6019 18.7793H33.8V6.10159C33.8 3.30333 30.9724 0.823099 28.1586 0.823099C18.8593 0.823099 9.56055 0.772516 0.26179 0.769287Z" fill="#BCCD19"/>
<path fill-rule="evenodd" clip-rule="evenodd" d="M3.7582 8.18054V8.25427C4.68581 8.26395 5.61839 8.25427 6.546 8.25427C7.47361 8.25427 8.26808 8.31184 9.02276 7.91955C9.33877 7.76699 9.61051 7.53976 9.81317 7.2586C10.0158 6.97745 10.143 6.65133 10.183 6.31001C10.2508 5.92395 10.1765 5.52694 9.97302 5.18909C9.78747 4.90485 9.50026 4.69776 9.16697 4.60791C9.38787 4.56867 9.59777 4.48444 9.78294 4.36074C9.96812 4.23703 10.1244 4.07664 10.2415 3.89005C10.3677 3.65932 10.4459 3.40659 10.4716 3.14636C10.4973 2.88614 10.47 2.62353 10.3912 2.37361C10.0482 1.32426 8.71614 1.39099 7.70677 1.39099C6.88081 1.39099 6.05375 1.39637 5.2278 1.39099C5.15045 1.92427 4.98028 2.5485 4.86426 3.09201L4.13112 6.49028C4.07587 6.75235 3.82726 8.05085 3.75488 8.18L3.7582 8.18054ZM5.50625 7.07738L5.91949 5.20577C6.23717 5.18909 6.58854 5.20255 6.91008 5.20255C7.40124 5.20255 8.21615 5.12613 8.51947 5.52273C8.6143 5.69051 8.66035 5.88031 8.65268 6.07169C8.64501 6.26308 8.5839 6.4488 8.47593 6.60888C8.36796 6.76895 8.21722 6.89732 8.03992 6.98015C7.86263 7.06299 7.66549 7.09716 7.46974 7.079C6.81892 7.08545 6.16425 7.079 5.50845 7.079L5.50625 7.07738ZM6.13883 4.16396L6.40181 2.93433C6.42778 2.81648 6.44766 2.58778 6.52169 2.56895C7.06146 2.56895 7.71836 2.53612 8.24432 2.5754C8.35499 2.57406 8.46448 2.59764 8.56425 2.64432C8.66401 2.69099 8.75136 2.75949 8.81946 2.84447C9.06421 3.22869 8.97802 4.16934 7.83108 4.16826C7.30401 4.16826 6.64931 4.20163 6.13827 4.16342L6.13883 4.16396ZM11.889 8.38934C11.694 8.29947 11.1896 8.30054 10.8559 7.89964C10.1785 7.08653 10.5321 5.71269 12.3183 5.41564C12.8321 5.33008 13.9818 5.31985 14.2691 5.07232C14.6702 4.7263 14.3995 3.92449 13.3299 4.08647C13.1321 4.09993 12.9447 4.17777 12.7978 4.30748C12.6509 4.43718 12.5531 4.61123 12.52 4.80164H11.2106C11.357 2.90904 14.2299 2.89559 15.2188 3.48753C15.9878 3.94817 15.7321 4.85545 15.5354 5.73905C15.4442 6.14642 15.3547 6.54625 15.2591 6.95846C15.1232 7.37795 15.089 7.82241 15.1591 8.25695H13.7564V7.7974C13.5088 8.03046 13.2076 8.20259 12.878 8.29947C12.7575 8.33606 12.5874 8.34575 12.4818 8.39202L11.889 8.38934ZM12.7045 7.47452C13.6929 7.47452 13.9481 6.76688 14.152 5.89296C13.8656 6.02294 13.5546 6.09314 13.2387 6.09907C12.914 6.09847 12.5927 6.16428 12.2956 6.29225C12.154 6.35905 12.0423 6.47387 11.9813 6.6152C11.9204 6.75653 11.9145 6.91464 11.9647 7.0599C12.015 7.20516 12.1179 7.32758 12.2542 7.40421C12.3905 7.48084 12.5508 7.50641 12.705 7.47613L12.7045 7.47452ZM23.7198 8.38934H24.4783C24.7521 8.34328 25.0226 8.28056 25.2883 8.20153C25.5174 8.11939 25.7302 7.99903 25.917 7.84583C26.0946 7.69451 26.25 7.52014 26.3789 7.32761C26.5132 7.12631 26.621 6.90936 26.6998 6.68186L25.3187 6.67594C25.1164 6.89119 25.1452 6.99451 24.8363 7.19308C24.6587 7.31823 24.4461 7.38754 24.2269 7.39171C24.0077 7.39589 23.7924 7.33473 23.6099 7.21643C23.4274 7.09814 23.2864 6.92835 23.2057 6.7298C23.125 6.53126 23.1085 6.31344 23.1585 6.10552H26.9092C27.0337 5.54908 27.0075 4.97066 26.833 4.4271C26.2026 2.80088 23.8391 2.9155 22.9104 3.7383C22.5216 4.07342 22.219 4.49282 22.0271 4.96269C21.8352 5.43256 21.7593 5.93978 21.8054 6.44347C21.8309 6.94025 22.0275 7.41418 22.3634 7.78879C22.5321 7.9471 22.7267 8.07695 22.9391 8.17301C23.1927 8.26638 23.4541 8.33839 23.7203 8.38826L23.7198 8.38934ZM23.3126 5.23483C23.3921 4.97846 23.5309 4.74321 23.7181 4.5471C23.9257 4.35631 24.1898 4.23427 24.4728 4.1984C24.6295 4.16685 24.7914 4.1694 24.947 4.20586C25.1026 4.24233 25.248 4.31181 25.3728 4.40934C25.4727 4.52185 25.5463 4.65424 25.5882 4.79728C25.6302 4.94032 25.6397 5.09056 25.6159 5.23752H23.3121L23.3126 5.23483ZM18.1138 3.97023L18.2652 3.28681H16.9155L15.8553 8.24996L17.263 8.25588C17.3287 7.81408 17.6497 6.44885 17.7602 5.92794C17.9154 5.21869 18.1254 4.44755 18.9629 4.26297C19.39 4.1688 19.8679 4.32701 19.9165 4.68756C19.8933 5.09524 19.8263 5.49943 19.7165 5.8935C19.5508 6.67378 19.353 7.47506 19.2149 8.25642H20.6055C20.6607 8.14879 20.9961 6.49781 21.0552 6.23252C21.1784 5.68094 21.4773 4.63374 21.3535 4.09561C21.095 2.97577 19.5856 2.99461 18.8121 3.40897C18.5795 3.53564 18.3696 3.6983 18.1906 3.89059C18.1447 3.93794 18.1668 3.93149 18.1099 3.97131L18.1138 3.97023ZM28.7854 8.38934C28.6556 8.33552 28.2578 8.29624 28.0529 8.22252C27.7072 8.13244 27.4069 7.9232 27.2078 7.6337C27.0086 7.34419 26.9241 6.99411 26.97 6.64849L28.2772 6.63719C28.2827 6.99021 28.3385 7.14465 28.5722 7.29155C28.9816 7.54824 29.8114 7.56062 30.0749 7.17263C30.1497 7.06425 30.1805 6.93272 30.1614 6.80349C30.1423 6.67427 30.0747 6.55653 29.9716 6.47306C29.4998 6.27323 29.0131 6.10828 28.5158 5.9796C27.9932 5.80686 27.5987 5.58461 27.5059 5.02819C27.2998 3.79534 28.3727 3.23192 29.5114 3.16196C30.0798 3.10435 30.6535 3.20121 31.1688 3.44179C31.3933 3.57559 31.5745 3.76825 31.6918 3.9977C31.809 4.22716 31.8575 4.48414 31.8318 4.73922L30.5705 4.74298C30.449 4.71016 30.5943 4.51482 30.3434 4.26782C29.9981 3.92826 28.8407 3.99875 28.8871 4.59069C28.9424 5.26443 31.097 5.05402 31.4987 6.25889C31.6176 6.65064 31.5762 7.07201 31.3832 7.4347C31.2394 7.65395 31.051 7.84224 30.8298 7.98799C30.6085 8.13375 30.359 8.23388 30.0965 8.28225C29.9412 8.32099 29.5771 8.35436 29.481 8.38987L28.7854 8.38934Z" fill="#04234E"/>
<path fill-rule="evenodd" clip-rule="evenodd" d="M5.23435 13.524C5.40009 13.4503 5.57966 13.4008 5.75203 13.3405L9.25418 12.1109C9.44124 12.0087 9.65098 11.9522 9.86537 11.9463C10.0798 11.9404 10.2924 11.9853 10.4851 12.077C10.659 12.1678 10.8071 12.2993 10.916 12.4596C10.9756 12.5596 11.025 12.6651 11.0635 12.7744C11.1243 12.9278 11.1812 13.0833 11.2365 13.2383C11.3232 13.4815 11.4055 13.7264 11.4906 13.9701L11.8851 15.1002L11.7646 15.1798C11.6982 15.2172 11.628 15.2481 11.5553 15.2719C11.4542 15.3095 11.3525 15.345 11.2508 15.3795C11.0995 15.4333 10.947 15.4812 10.7962 15.5339L8.94424 16.1834C8.27578 16.4288 7.53499 16.4075 6.8825 16.1244C6.23 15.8412 5.71841 15.3189 5.45866 14.6708V14.6659L5.0791 13.5929L5.23435 13.524Z" fill="#BFBEBE"/>
<path fill-rule="evenodd" clip-rule="evenodd" d="M5.31055 13.6931L5.63153 14.6015C5.87233 15.2049 6.34787 15.6913 6.95481 15.9551C7.56175 16.2189 8.25105 16.2387 8.87292 16.0103L10.727 15.3597C10.8795 15.3059 11.5729 15.0794 11.6535 15.0266L11.306 14.03C11.1482 13.532 10.9638 13.0423 10.7536 12.5631C10.6622 12.4279 10.5379 12.317 10.3917 12.2402C10.2219 12.1622 10.0352 12.1256 9.84765 12.1333C9.6601 12.1411 9.47728 12.1931 9.3149 12.2849L5.81275 13.5145C5.65308 13.5726 5.46248 13.6264 5.31055 13.6931Z" fill="#003065"/>
<path fill-rule="evenodd" clip-rule="evenodd" d="M3.71655 10.1033L6.92093 9.00063C7.00988 8.96996 7.09717 8.93552 7.18667 8.90646C7.40539 8.82084 7.64801 8.81265 7.87229 8.88333C8.01759 8.93509 8.14743 9.02119 8.25013 9.1339C8.35283 9.24661 8.42517 9.3824 8.46068 9.52908L9.32973 11.8742L4.93478 13.3885L3.71655 10.1033Z" fill="#BFBEBE"/>
<path fill-rule="evenodd" clip-rule="evenodd" d="M3.96143 10.217L5.04927 13.1498L9.08235 11.7593L8.2785 9.59009C8.25141 9.47016 8.19393 9.35875 8.11133 9.26598C8.02873 9.17322 7.92363 9.10204 7.80557 9.05895C7.52543 9.00077 7.23315 9.0424 6.98183 9.17627L3.96143 10.217Z" fill="#7FAB30"/>
<path fill-rule="evenodd" clip-rule="evenodd" d="M27.67 16.3518H28.1855C28.4506 16.3085 28.7069 16.2246 28.9451 16.1032C29.1467 15.9636 29.3262 15.7959 29.4777 15.6055L29.3446 16.2178L30.7014 16.2114C30.7396 15.9423 30.8268 15.6141 30.8843 15.3504L31.8036 11.1175C31.8699 10.8177 32.0876 9.61771 32.1821 9.44551V9.3551L30.7799 9.35887L30.2147 11.9042C30.1727 11.8569 30.1147 11.7352 30.0727 11.6766C29.6561 11.0992 28.7595 11.0271 28.0971 11.1923C27.7376 11.2844 27.4027 11.4509 27.1152 11.6803C26.8277 11.9098 26.5942 12.1968 26.4308 12.522C26.0378 13.287 25.9076 14.1548 26.0595 14.9974C26.14 15.3551 26.3332 15.6794 26.612 15.9251C27.1462 16.3481 27.3634 16.2329 27.6705 16.3556L27.67 16.3518ZM28.7401 12.1625C30.6119 11.88 30.0351 15.0431 28.6075 15.3025C26.7893 15.6329 27.1766 12.3966 28.7401 12.1625ZM18.3127 16.3518H18.8651C18.9955 16.3143 19.1277 16.2832 19.2613 16.2587C19.5903 16.1586 19.8912 15.986 20.1408 15.7545V16.2173H21.5392C21.3342 15.3197 22.1253 13.4481 22.1242 12.4106C22.1242 10.9517 19.8966 11.0023 19.0414 11.2267C18.6624 11.2979 18.317 11.4859 18.0562 11.7629C17.7953 12.0399 17.6329 12.3913 17.5928 12.7652L18.8972 12.7571C19.0154 12.4628 18.974 12.4757 19.1734 12.2809C19.5519 11.9155 20.6265 11.9317 20.7927 12.473C21.0734 13.3878 19.5596 13.2334 18.6828 13.3819C17.821 13.5277 17.1121 13.9335 16.9558 14.724C16.8764 15.0184 16.9102 15.3309 17.051 15.6027C17.1917 15.8745 17.4296 16.0868 17.7199 16.1996C17.9105 16.2808 18.174 16.298 18.311 16.3535L18.3127 16.3518ZM19.0663 15.437C18.914 15.4602 18.7583 15.4295 18.6272 15.3506C18.4962 15.2716 18.3985 15.1496 18.3517 15.0066C18.305 14.8636 18.3124 14.709 18.3725 14.5708C18.4326 14.4326 18.5415 14.3199 18.6795 14.2531C18.9774 14.1269 19.2988 14.0618 19.6237 14.0621C19.9378 14.0508 20.2469 13.9817 20.5347 13.8587C20.3093 14.6686 20.1397 15.437 19.0668 15.437H19.0663ZM13.8934 16.3518C13.6384 16.3206 13.3865 16.2688 13.1404 16.1969C12.8205 16.0884 12.539 15.8936 12.3286 15.635C12.1183 15.3765 11.9878 15.065 11.9525 14.7369C11.8012 14.0459 11.8988 13.3253 12.2289 12.6962C12.5591 12.067 13.1016 11.5679 13.7652 11.2827C14.9757 10.8382 17.1243 11.1939 17.0757 12.9745L15.6785 12.9702C15.6519 12.5909 15.5459 12.3514 15.2481 12.2303C14.9262 12.112 14.5698 12.1197 14.2536 12.2518C13.9986 12.4082 13.7851 12.621 13.6304 12.8729C13.4758 13.1248 13.3844 13.4088 13.3636 13.7016C13.0509 15.5468 14.4133 15.5097 14.9613 15.0905C15.1728 14.9035 15.3301 14.6658 15.4177 14.4011H16.8039C16.6927 14.7819 16.5049 15.1373 16.2514 15.4467C16.0048 15.7429 15.6903 15.9787 15.3332 16.135C15.06 16.234 14.7774 16.3061 14.4895 16.3502L13.8934 16.3518ZM24.433 12.1421C24.6342 11.7633 24.9582 11.46 25.3546 11.2791C25.7511 11.0983 26.1978 11.0502 26.6253 11.1422C26.559 11.5884 26.4636 12.03 26.3396 12.4644C26.0885 12.4127 25.8322 12.3892 25.5756 12.3945C25.2594 12.4252 24.9612 12.5521 24.7232 12.7571C24.4852 12.9622 24.3195 13.235 24.2496 13.5369C24.133 13.8598 23.7043 15.8288 23.6452 16.2168H22.2358L23.3076 11.2493L24.6336 11.2585L24.433 12.1421Z" fill="#04234E"/>
</svg>
