<svg width="38" height="14" viewBox="0 0 38 14" fill="none" xmlns="http://www.w3.org/2000/svg">
<path d="M5.65235 3.31249C6.04675 3.18731 6.47015 3.122 6.91095 3.122C8.83656 3.122 10.4432 4.40641 10.8086 6.10989L13.5346 5.58742C12.9082 2.69205 10.1822 0.509644 6.91095 0.509644C6.16275 0.509644 5.44355 0.623934 4.77075 0.836188L5.65235 3.31249V3.31249Z" fill="black"/>
<path d="M2.43321 11.6066L4.27762 9.64731C3.45402 8.96157 2.93781 7.96561 2.93781 6.84991C2.93781 5.73966 3.45402 4.73825 4.27762 4.05795L2.43321 2.10413C1.03541 3.2688 0.153809 4.96139 0.153809 6.85535C0.153809 8.74387 1.03541 10.4418 2.43321 11.6066V11.6066Z" fill="black"/>
<path d="M10.8085 7.60083C10.4373 9.30431 8.8365 10.5833 6.9109 10.5833C6.4701 10.5833 6.04669 10.518 5.64649 10.3928L4.76489 12.8691C5.43769 13.0813 6.16269 13.1956 6.9109 13.1956C10.1821 13.1956 12.9081 11.0187 13.5345 8.1233L10.8085 7.60083V7.60083Z" fill="black"/>
<path d="M22.6173 9.35365C22.165 9.76733 21.556 10.0176 20.8831 10.0067C20.4191 10.0013 19.99 9.87068 19.6303 9.65298L18.7255 11.0028C19.346 11.3673 20.071 11.585 20.86 11.5959C22.0025 11.6123 23.0464 11.1877 23.8064 10.4966L22.6173 9.35365ZM20.9818 3.85137C18.7081 3.81871 16.829 5.52763 16.7941 7.66106C16.7825 8.46109 17.0261 9.21215 17.4611 9.83258L24.9315 6.83376C24.514 5.15211 22.9132 3.88402 20.9818 3.85137H20.9818ZM18.5052 7.96578C18.4936 7.8787 18.4878 7.78618 18.4878 7.69366C18.511 6.43646 19.613 5.42961 20.9528 5.45138C21.6836 5.46227 22.3331 5.77249 22.7681 6.2623L18.5052 7.96578ZM27.2806 2.10974V9.58218L28.661 10.121L28.0056 11.5959L26.6368 11.0625C26.3294 10.9373 26.1206 10.7469 25.964 10.5292C25.8132 10.3115 25.6972 10.0066 25.6972 9.60395V2.10974H27.2806V2.10974ZM32.2628 5.56567C32.5065 5.48948 32.7616 5.45138 33.0343 5.45138C34.2116 5.45138 35.1861 6.23509 35.4123 7.27459L37.0768 6.95349C36.694 5.18471 35.0295 3.85676 33.0343 3.85676C32.5761 3.85676 32.1353 3.92751 31.7293 4.05268L32.2628 5.56567ZM30.2966 10.6217L31.4218 9.42979C30.9172 9.01072 30.604 8.40117 30.604 7.72087C30.604 7.04057 30.923 6.43102 31.4218 6.0174L30.2966 4.82551C29.444 5.53302 28.9046 6.57252 28.9046 7.72631C28.9046 8.88011 29.444 9.91416 30.2966 10.6217ZM35.4123 8.18342C35.1861 9.22298 34.2058 10.0066 33.0343 10.0066C32.7675 10.0066 32.5065 9.96309 32.2628 9.88695L31.7235 11.3999C32.1353 11.5305 32.576 11.6013 33.0343 11.6013C35.0295 11.6013 36.6941 10.2734 37.0768 8.50458L35.4123 8.18342Z" fill="black"/>
</svg>
