<svg width="31" height="12" viewBox="0 0 31 12" fill="none" xmlns="http://www.w3.org/2000/svg">
<path d="M0.847168 0.717041V9.06991H2.87707V5.58027H6.20926V9.06991H8.22385V0.717041H6.20926V3.92968H2.87707V0.717041H0.847168Z" fill="#ED6C05"/>
<path d="M25.6922 6.65343C25.737 6.40966 25.7577 6.16256 25.7541 5.91524C25.7541 4.40958 24.9638 2.88893 22.856 2.88893C22.4089 2.88351 21.9655 2.96472 21.5537 3.12739C21.1419 3.29006 20.7706 3.53068 20.4634 3.83407C20.1561 4.13747 19.9195 4.49704 19.7684 4.89014C19.6173 5.28323 19.5551 5.70131 19.5857 6.11799C19.5857 8.01488 20.8413 9.20213 23.0424 9.20213C23.846 9.21468 24.6451 9.08708 25.3987 8.82589L25.135 7.55154C24.5532 7.72174 23.9463 7.80487 23.3367 7.79784C22.3913 7.79784 21.5705 7.4216 21.5086 6.63986H25.6929L25.6922 6.65343ZM21.5078 5.36839C21.5092 5.05474 21.638 4.75327 21.868 4.52483C22.0981 4.2964 22.4124 4.15801 22.7474 4.13759C22.912 4.14037 23.0742 4.17538 23.2234 4.24038C23.3726 4.30538 23.5055 4.39891 23.6135 4.51492C23.7216 4.63093 23.8024 4.76685 23.8507 4.91386C23.899 5.06088 23.9136 5.21573 23.8938 5.36839H21.5078Z" fill="#ED6C05"/>
<path d="M26.4061 9.07127H28.4207V6.00141C28.4191 5.86028 28.4347 5.71945 28.4673 5.58164C28.5343 5.29401 28.7106 5.03877 28.9635 4.86316C29.2164 4.68756 29.5288 4.60345 29.843 4.6264C30.0247 4.62984 30.206 4.64439 30.3856 4.66995V2.903C30.2481 2.87712 30.1077 2.8673 29.9676 2.87374C29.5738 2.88721 29.1941 3.01408 28.8805 3.23697C28.5669 3.45987 28.3348 3.76787 28.2159 4.11881H28.1692L28.1073 3.00368H26.3748C26.4061 3.52484 26.4214 4.10382 26.4214 5.00264V9.07199L26.4061 9.07127Z" fill="#ED6C05"/>
<path fill-rule="evenodd" clip-rule="evenodd" d="M10.2864 0.384644C10.4919 0.384644 10.6927 0.441547 10.8635 0.548156C11.0343 0.654764 11.1674 0.806287 11.246 0.983571C11.3246 1.16085 11.3452 1.35593 11.3051 1.54413C11.2651 1.73233 11.1661 1.90521 11.0209 2.0409C10.8756 2.17659 10.6906 2.269 10.4891 2.30644C10.2876 2.34388 10.0788 2.32466 9.88897 2.25123C9.69918 2.1778 9.53695 2.05343 9.42282 1.89388C9.3087 1.73433 9.2478 1.54676 9.2478 1.35487C9.2478 1.22746 9.27467 1.10128 9.32687 0.983571C9.37907 0.865859 9.45554 0.758906 9.55199 0.668813C9.64844 0.57872 9.76295 0.50726 9.88897 0.458502C10.015 0.409744 10.1501 0.384644 10.2864 0.384644Z" fill="#FFE700"/>
<path fill-rule="evenodd" clip-rule="evenodd" d="M14.549 7.66673H15.5563C15.7432 7.68746 15.9327 7.67055 16.112 7.61714C16.2913 7.56373 16.4563 7.47504 16.5958 7.35707C16.7354 7.2391 16.8463 7.09458 16.921 6.93322C16.9957 6.77187 17.0326 6.59742 17.0291 6.42164C17.0291 5.78482 16.9824 4.35128 15.7298 4.35128C14.2884 4.35128 14.5207 6.13179 14.5207 7.05845C14.5207 7.26121 14.5368 7.46397 14.5521 7.66673H14.549ZM9.24805 3.00483H11.3246V6.42164C11.3062 6.57956 11.3239 6.73932 11.3764 6.89039C11.429 7.04146 11.5152 7.18041 11.6295 7.29807C11.7437 7.41572 11.8834 7.50941 12.0392 7.57296C12.1951 7.6365 12.3636 7.66846 12.5336 7.66673C12.5336 6.1318 12.5336 4.53905 12.4717 3.00483H14.2081C14.2387 3.29397 14.2846 3.5981 14.3167 3.88795C15.1383 2.35302 17.7115 2.7007 18.579 3.98933C19.4778 5.3215 19.7881 9.14383 15.5563 9.14383H14.5796C14.5956 9.92914 14.5956 10.693 14.5956 11.4748H12.5183C12.5183 10.7366 12.5184 9.95413 12.5336 9.14383C10.2859 9.12955 9.26335 7.81164 9.26335 6.42164V3.00483H9.24805Z" fill="#ED6C05"/>
</svg>
