<svg width="41" height="17" viewBox="0 0 41 17" fill="none" xmlns="http://www.w3.org/2000/svg">
<path fill-rule="evenodd" clip-rule="evenodd" d="M11.8322 0.262939H7.68587C5.8573 0.344658 4.35673 1.04386 3.92472 2.48665C3.70472 3.23781 3.58187 4.06311 3.39844 4.84404C2.50358 8.80765 1.71044 12.8757 0.846436 16.7576H33.1196C35.6168 16.7576 37.3288 16.2592 37.7916 14.3851C38.0036 13.5148 38.2156 12.5261 38.4202 11.5666C39.2202 7.83244 40.0202 4.09829 40.8465 0.262939H11.8322Z" fill="#B82327"/>
<path fill-rule="evenodd" clip-rule="evenodd" d="M11.51 6.12333C11.6815 6.01185 11.91 5.49881 11.6512 5.28287C11.5917 5.24554 11.5243 5.22089 11.4538 5.21061C11.3833 5.20033 11.3112 5.20468 11.2426 5.22335C11.1764 5.22908 11.112 5.24713 11.0532 5.27648C10.9943 5.30583 10.9422 5.34588 10.8998 5.39436C10.79 5.53561 10.6878 5.96693 10.8603 6.12333C10.9582 6.17978 11.0706 6.20964 11.1852 6.20964C11.2998 6.20964 11.4122 6.17978 11.51 6.12333V6.12333ZM9.04432 5.28287C8.91861 6.04865 8.77746 6.79277 8.63575 7.54339C7.73289 7.55097 6.81403 7.58777 5.9426 7.5212C6.10775 6.79223 6.22546 6.0113 6.39003 5.28287H5.42432C5.08146 7.14941 4.75689 9.04571 4.37231 10.8754H5.36146C5.5186 9.93866 5.65974 8.98672 5.86375 8.10135C6.75336 8.06025 7.64474 8.06766 8.53346 8.12354C8.36832 9.05328 8.16432 9.9457 8.00718 10.8836H8.99632C9.31804 8.98943 9.64832 7.11315 10.0483 5.291H9.04432V5.28287ZM23.0609 6.8891C22.7464 6.78337 22.4014 6.79351 22.0944 6.91753C21.7874 7.04155 21.5409 7.27036 21.4038 7.55854C21.4666 7.35019 21.49 7.10503 21.5449 6.8891H20.7758C20.5872 8.27236 20.3123 9.56632 20.0455 10.8754H20.9169C20.9906 10.0099 21.1403 9.15171 21.3643 8.3097C21.4027 8.1512 21.4761 8.0022 21.5797 7.87255C21.6834 7.74289 21.8149 7.63553 21.9655 7.55754C22.1162 7.47954 22.2826 7.43269 22.4538 7.42009C22.625 7.40748 22.797 7.4294 22.9586 7.4844C22.9666 7.26847 23.0375 7.09746 23.0609 6.8891V6.8891ZM23.5478 9.93812C23.4687 9.69024 23.4421 9.43 23.4695 9.17235C23.494 8.61627 23.6998 8.08104 24.0586 7.64026C24.5158 7.21652 25.4095 7.29066 26.1238 7.52878C26.1472 7.29823 26.1946 7.09583 26.2261 6.87449C25.0558 6.6959 23.9403 6.80738 23.3523 7.3951C23.0321 7.77233 22.8038 8.21189 22.6838 8.68237C22.5638 9.15285 22.555 9.64264 22.658 10.1167C22.9723 11.0833 24.3723 11.145 25.5083 10.771C25.5552 10.5778 25.5866 10.3619 25.6261 10.1611C25.0083 10.4512 23.8226 10.6076 23.5478 9.93812ZM33.3083 6.91129C32.5386 6.54708 31.9026 7.15644 31.6512 7.5212C31.7221 7.33503 31.7295 7.0823 31.7923 6.8891H31.0226C30.8186 8.25721 30.5655 9.58094 30.2769 10.8754H31.1643C31.1926 10.3927 31.2608 9.91285 31.3683 9.44023C31.5569 8.33189 31.8255 7.12019 33.1901 7.4844C33.2375 7.29823 33.2535 7.0823 33.3083 6.91129ZM10.6226 6.8891C10.5992 6.8891 10.5992 6.91887 10.5992 6.94863C10.4106 8.30159 10.1518 9.59609 9.86889 10.8754H10.7403C10.9523 9.50734 11.1878 8.16954 11.486 6.8891H10.6226ZM18.2632 6.81496C17.6889 6.82077 17.1386 7.03365 16.7243 7.41026C16.1562 8.09429 15.894 8.96206 15.994 9.82718C16.1512 11.1509 17.894 11.1065 19.2918 10.7867C19.3152 10.5561 19.378 10.3537 19.4095 10.1324C18.838 10.3332 17.8392 10.6233 17.242 10.2661C16.7946 9.99819 16.7946 9.32171 16.9358 8.73399C17.87 8.70423 18.8518 8.7118 19.786 8.73399C19.9174 8.3168 19.9442 7.87633 19.8643 7.4476C19.6866 6.90425 18.9855 6.76246 18.2632 6.81496V6.81496ZM19.0958 8.27236H17.054C17.0976 8.00985 17.237 7.77011 17.4479 7.59481C17.6588 7.41951 17.9278 7.31975 18.2083 7.31285C18.8295 7.29066 19.2866 7.52878 19.0958 8.27236V8.27236ZM14.9735 6.8891C14.6316 6.79439 14.271 6.77668 13.9206 6.83738C13.5702 6.89808 13.2396 7.03551 12.9552 7.23871C12.9552 7.25332 12.9472 7.25332 12.9318 7.25332C12.9398 7.24574 12.9472 7.24574 12.9552 7.23871C12.9632 7.11207 13.0123 7.02223 13.018 6.89668H12.2718C11.9575 8.86008 11.586 10.771 11.2038 12.6603H12.0609C12.1866 11.9243 12.2729 11.1504 12.4455 10.4587C12.642 11.1877 13.9375 11.0465 14.4872 10.7634C15.6169 10.1838 16.4809 7.43191 14.9729 6.8891H14.9735ZM14.2826 10.1243C13.8192 10.5929 12.6729 10.5854 12.5866 9.79957C12.5887 9.442 12.6443 9.08652 12.7518 8.74373C12.8226 8.38655 12.8695 8.04452 12.9323 7.72468C13.3895 7.19649 14.7386 7.12939 14.8718 8.01476C14.9702 8.76367 14.7589 9.5196 14.282 10.1243H14.2826ZM36.5512 5.16382C36.4836 5.76396 36.3813 6.36015 36.2449 6.94971C34.1089 6.31004 32.8055 7.79774 32.8289 9.63451C32.8084 9.97855 32.9168 10.3184 33.1352 10.594C33.4364 10.8166 33.7996 10.9513 34.1803 10.9817C34.5611 11.0121 34.9429 10.9368 35.2792 10.765C35.3946 10.6818 35.4976 10.5842 35.5855 10.475C35.6426 10.4079 35.7346 10.2298 35.7506 10.2818C35.7071 10.4778 35.681 10.6769 35.6724 10.8771H36.4575C36.6654 8.95963 36.9898 7.05513 37.4289 5.17302H36.5495L36.5512 5.16382ZM34.6038 10.4365C34.0146 10.4512 33.7243 10.1021 33.7163 9.53656C33.6929 8.54024 34.1563 7.43191 35.0878 7.33503C35.4545 7.30502 35.8235 7.35865 36.1638 7.49144C35.8684 8.60681 35.9781 10.4068 34.6038 10.4365V10.4365ZM27.1049 6.8891C27.0655 7.11965 26.9952 7.32205 26.9398 7.54339C27.4501 7.42433 29.0541 7.04496 29.2015 7.69979C29.2299 7.90818 29.1944 8.11992 29.0992 8.3097C27.6546 8.18307 26.4763 8.40658 26.1701 9.3807C26.0555 9.63904 26.0391 9.92698 26.1236 10.1955C26.2081 10.464 26.3883 10.6965 26.6335 10.8533C27.0254 10.9976 27.4562 11.0175 27.8611 10.9102C28.2661 10.8028 28.6233 10.574 28.8792 10.258C28.8327 10.4582 28.8116 10.6629 28.8163 10.8679H29.5621C29.5809 10.2508 29.6545 9.63643 29.7821 9.0311C29.9158 8.54183 29.9974 8.04106 30.0255 7.53635C29.9723 6.48754 28.1335 6.85934 27.1049 6.8891ZM28.5186 10.1091C28.0712 10.5258 26.8146 10.6444 26.9403 9.64804C27.0501 8.82274 27.9923 8.65173 29.0215 8.77025C29.0009 9.25447 28.8256 9.72137 28.5186 10.1091V10.1091Z" fill="white"/>
</svg>
