<svg xmlns="http://www.w3.org/2000/svg" viewBox="0 0 194.61 41.49"><defs><style>.cls-1{font-size:6.45px;font-family:MicrogrammaD-BoldExte, MicrogrammaD BoldExte;font-weight:700;}.cls-1,.cls-5,.cls-6{fill:#d6d6d6;}.cls-2{letter-spacing:0.11em;}.cls-3{letter-spacing:0.12em;}.cls-4{letter-spacing:0.1em;}.cls-6{fill-rule:evenodd;}</style></defs><g id="Layer_2" data-name="Layer 2"><g id="type"><text class="cls-1" transform="translate(55.15 39.88)"><tspan class="cls-2">B</tspan><tspan class="cls-3" x="4.18" y="0">A</tspan><tspan class="cls-4" x="8.88" y="0">N</tspan><tspan x="13.75" y="0">K</tspan></text><polygon class="cls-5" points="188.2 20.39 184.72 27.97 181.25 20.39 174.8 20.39 174.8 32.06 178.31 32.06 178.22 23.32 178.85 23.32 183.25 32.06 186.2 32.06 190.61 23.32 191.19 23.32 191.1 32.06 194.61 32.06 194.61 20.39 188.2 20.39"/><rect class="cls-5" x="168.57" y="20.39" width="3.74" height="11.67"/><rect class="cls-5" x="145.44" y="20.39" width="3.74" height="11.67"/><polygon class="cls-5" points="136.53 20.39 133.06 27.97 129.59 20.39 123.14 20.39 123.14 32.06 126.64 32.06 126.56 23.32 127.19 23.32 131.59 32.06 134.54 32.06 138.94 23.32 139.53 23.32 139.44 32.06 142.95 32.06 142.95 20.39 136.53 20.39"/><polygon class="cls-5" points="107.71 20.39 107.71 32.06 120.71 32.06 120.71 29.26 111.22 29.26 111.22 27.39 120.17 27.39 120.17 24.82 111.22 24.82 111.22 23.13 120.65 23.13 120.65 20.39 107.71 20.39"/><polygon class="cls-5" points="60.8 20.39 60.8 23.36 66 23.36 66 32.06 69.74 32.06 69.74 23.36 74.93 23.36 74.93 20.39 60.8 20.39"/><rect class="cls-5" x="55.57" y="20.39" width="3.74" height="11.67"/><path class="cls-6" d="M151.67,32.06V20.39h8.6c2,0,3.22,0,3.62.06a2.68,2.68,0,0,1,1.16.4A2,2,0,0,1,166,22a7.08,7.08,0,0,1,.25,2.22,7.72,7.72,0,0,1-.16,1.87,1.77,1.77,0,0,1-.59,1,3.08,3.08,0,0,1-1.42.53,2.27,2.27,0,0,1,1.61.64,1.78,1.78,0,0,1,.36.8,19.45,19.45,0,0,1,.07,2v1.08h-3.51v-.62a9.06,9.06,0,0,0-.07-1.39,1.31,1.31,0,0,0-.27-.64.92.92,0,0,0-.54-.26,10.72,10.72,0,0,0-1.45-.06h-5v3Zm3.56-5.88h5l1.56-.05a.91.91,0,0,0,.43-.13.76.76,0,0,0,.33-.43,3.2,3.2,0,0,0,.09-.87,2.38,2.38,0,0,0-.11-.86.71.71,0,0,0-.37-.41,1.15,1.15,0,0,0-.45-.1l-1.49,0h-5Z"/><path class="cls-6" d="M91.82,32.06V20.39h8q2.39,0,3.06.09a3.23,3.23,0,0,1,2.35,1.12,5.86,5.86,0,0,1,.61,3.16,6.46,6.46,0,0,1-.5,3,2.25,2.25,0,0,1-1,.9,5,5,0,0,1-1.68.43c-.51.05-1.46.08-2.84.08H95.38v2.86Zm3.56-5.77h4.45c.81,0,1.3,0,1.49,0a1.32,1.32,0,0,0,.48-.13.8.8,0,0,0,.37-.44,3,3,0,0,0,.11-.92,2.57,2.57,0,0,0-.13-.92.84.84,0,0,0-.45-.42,10.28,10.28,0,0,0-1.87-.12H95.38Z"/><path class="cls-6" d="M86.85,32.06l-1-2H78.13l-1,2H73.06l6.2-11.67h5.52l6.11,11.67ZM84.6,27.53l-2.25-4.42h-.71l-2.25,4.42Z"/><polygon class="cls-6" points="32.01 8.71 26.97 0 26.05 0 31.08 8.71 32.01 8.71"/><polygon class="cls-6" points="30.18 8.71 25.14 0 24.22 0 29.25 8.71 30.18 8.71"/><polygon class="cls-6" points="28.33 8.71 23.29 0 22.37 0 27.4 8.71 28.33 8.71"/><polygon class="cls-6" points="26.5 8.71 21.46 0 20.54 0 25.57 8.71 26.5 8.71"/><polygon class="cls-6" points="24.65 8.71 19.61 0 18.69 0 23.73 8.71 24.65 8.71"/><polygon class="cls-6" points="22.82 8.71 17.79 0 16.86 0 21.9 8.71 22.82 8.71"/><polygon class="cls-6" points="45.47 32.06 33.7 11.64 32.78 11.64 44.55 32.06 45.47 32.06"/><polygon class="cls-6" points="43.64 32.06 31.86 11.64 30.95 11.64 42.72 32.06 43.64 32.06"/><polygon class="cls-6" points="41.79 32.06 30.03 11.64 29.1 11.64 40.87 32.06 41.79 32.06"/><polygon class="cls-6" points="39.96 32.06 28.18 11.64 27.27 11.64 39.04 32.06 39.96 32.06"/><polygon class="cls-6" points="38.12 32.06 26.35 11.64 25.42 11.64 37.19 32.06 38.12 32.06"/><polygon class="cls-6" points="36.29 32.06 24.52 11.64 23.59 11.64 35.36 32.06 36.29 32.06"/><polygon class="cls-6" points="21.88 32.06 10.11 11.64 9.19 11.64 20.95 32.06 21.88 32.06"/><polygon class="cls-6" points="20.05 32.06 8.26 11.64 7.36 11.64 19.12 32.06 20.05 32.06"/><polygon class="cls-6" points="18.2 32.06 6.43 11.64 5.51 11.64 17.28 32.06 18.2 32.06"/><polygon class="cls-6" points="16.37 32.06 4.58 11.64 3.68 11.64 15.45 32.06 16.37 32.06"/><polygon class="cls-6" points="14.52 32.06 2.75 11.64 1.83 11.64 13.6 32.06 14.52 32.06"/><polygon class="cls-6" points="12.69 32.06 0.92 11.64 0 11.64 11.77 32.06 12.69 32.06"/><polygon class="cls-6" points="4.13 20.39 0 13.16 0 14.8 3.21 20.39 4.13 20.39"/><polygon class="cls-6" points="0 18.03 0 18.03 1.36 20.39 2.28 20.39 0 16.45 0 18.03"/><polygon class="cls-6" points="0 20.39 0.45 20.39 0 19.61 0 20.39"/><polygon class="cls-6" points="41.34 23.33 45.47 30.53 45.47 28.91 42.27 23.33 41.34 23.33"/><polygon class="cls-6" points="45.47 25.69 45.47 25.69 44.11 23.33 43.19 23.33 45.47 27.27 45.47 25.69"/><polygon class="cls-6" points="45.47 23.33 45.02 23.33 45.47 24.1 45.47 23.33"/><polygon class="cls-6" points="17.3 22.54 17.75 21.76 22.8 30.52 22.35 31.29 17.3 22.54"/><polygon class="cls-6" points="18.2 20.99 18.63 20.2 23.69 28.95 23.24 29.72 18.2 20.99"/><polygon class="cls-6" points="19.09 19.43 19.54 18.65 24.59 27.4 24.14 28.18 19.09 19.43"/><polygon class="cls-6" points="19.99 17.88 20.45 17.09 25.48 25.84 25.05 26.61 19.99 17.88"/><polygon class="cls-6" points="20.9 16.31 21.33 15.54 26.39 24.27 25.93 25.07 20.9 16.31"/><polygon class="cls-6" points="21.78 14.75 22.24 13.97 27.29 22.73 26.84 23.5 21.78 14.75"/><polygon class="cls-6" points="22.69 13.2 23.14 12.43 28.18 21.16 27.74 21.95 22.69 13.2"/></g></g></svg>