<svg xmlns="http://www.w3.org/2000/svg" xmlns:xlink="http://www.w3.org/1999/xlink" width="153" height="22.68" viewBox="0 0 153 22.68">
  <defs>
    <clipPath id="clip-path">
      <rect id="Retângulo_486" data-name="Retângulo 486" width="153" height="22.68" transform="translate(0 0)" fill="none"/>
    </clipPath>
  </defs>
  <g id="horizonal_colorida" transform="translate(0 0)">
    <g id="Grupo_507" data-name="Grupo 507" transform="translate(0 0)" clip-path="url(#clip-path)">
      <path id="Caminho_1244" data-name="Caminho 1244" d="M7.89,23.284a10.351,10.351,0,0,1-4.486-.9A9.928,9.928,0,0,1,0,19.7L2.785,16.91A7.337,7.337,0,0,0,5.012,18.86a6.35,6.35,0,0,0,3.094.712,4.727,4.727,0,0,0,2.63-.65,2.019,2.019,0,0,0,.959-1.794,2.313,2.313,0,0,0-.557-1.609,4.76,4.76,0,0,0-1.454-1.052c-.619-.279-1.3-.557-2.011-.8a18.671,18.671,0,0,1-2.2-.8,8.578,8.578,0,0,1-2.011-1.176A4.981,4.981,0,0,1,1.98,9.887a5.974,5.974,0,0,1-.557-2.754A5.7,5.7,0,0,1,2.383,3.76a6.2,6.2,0,0,1,2.63-2.135A9.239,9.239,0,0,1,8.787.883a9.45,9.45,0,0,1,4.022.836,8.459,8.459,0,0,1,2.939,2.166L12.964,6.669a7.12,7.12,0,0,0-1.949-1.547,5.071,5.071,0,0,0-2.29-.495,4.107,4.107,0,0,0-2.29.557A1.8,1.8,0,0,0,5.6,6.793a1.983,1.983,0,0,0,.557,1.454,4.914,4.914,0,0,0,1.485.959,18.308,18.308,0,0,0,2.011.774c.712.248,1.454.526,2.2.836a8.906,8.906,0,0,1,2.011,1.206,5.6,5.6,0,0,1,1.454,1.887,6.629,6.629,0,0,1,.557,2.878,5.8,5.8,0,0,1-2.135,4.765A9.084,9.084,0,0,1,7.89,23.284m12.9-17.667a2.15,2.15,0,0,1-1.64-.681A2.24,2.24,0,0,1,18.5,3.3a2.291,2.291,0,0,1,.65-1.64,2.15,2.15,0,0,1,1.64-.681,2.172,2.172,0,0,1,1.671.681,2.4,2.4,0,0,1,.619,1.64,2.346,2.346,0,0,1-.619,1.64,2.172,2.172,0,0,1-1.671.681M18.75,8.03h4.084V22.975H18.75Zm7.673,0h4.053V22.975H26.423Zm9.746,14.944V14.157a2.678,2.678,0,0,0-.8-2.042,3.094,3.094,0,0,0-2.042-.712,3.233,3.233,0,0,0-1.454.309,2.544,2.544,0,0,0-1.021.959,2.784,2.784,0,0,0-.371,1.485L28.9,13.383a5.562,5.562,0,0,1,.773-3A5.234,5.234,0,0,1,31.714,8.4a6.145,6.145,0,0,1,2.939-.681,5.741,5.741,0,0,1,2.816.681,5.286,5.286,0,0,1,2.011,1.949,5.875,5.875,0,0,1,.742,3.032v9.591Zm9.746,0V14.157a2.678,2.678,0,0,0-.8-2.042,3.34,3.34,0,0,0-3.465-.4,2.44,2.44,0,0,0-1.052.959,2.787,2.787,0,0,0-.371,1.485L37.9,13.6a6.755,6.755,0,0,1,.959-3.125,6.051,6.051,0,0,1,2.2-2.042,6.538,6.538,0,0,1,3.032-.712,6.4,6.4,0,0,1,3,.681,5.261,5.261,0,0,1,2.1,2.011,5.82,5.82,0,0,1,.773,3.094v9.468Zm14.48.309a8.356,8.356,0,0,1-4.177-1.021,7.454,7.454,0,0,1-2.877-2.754,7.6,7.6,0,0,1-1.083-4.022A7.542,7.542,0,0,1,53.31,11.5a7.835,7.835,0,0,1,2.816-2.785A7.984,7.984,0,0,1,60.118,7.69a7.038,7.038,0,0,1,6.436,3.62,7.909,7.909,0,0,1,.928,3.837,7,7,0,0,1-.031.8,6.449,6.449,0,0,1-.186.959L54.7,16.941V13.909l10.675-.031-1.64,1.269a5.676,5.676,0,0,0-.464-2.228,3.307,3.307,0,0,0-1.207-1.392,3.788,3.788,0,0,0-1.949-.464,4.161,4.161,0,0,0-2.1.526A3.593,3.593,0,0,0,56.652,13.1a4.939,4.939,0,0,0-.495,2.32,5.068,5.068,0,0,0,.526,2.352,3.362,3.362,0,0,0,1.454,1.547,4.411,4.411,0,0,0,2.228.557,4.959,4.959,0,0,0,2.073-.4,4.165,4.165,0,0,0,1.609-1.145l2.383,2.382a7.056,7.056,0,0,1-2.63,1.918,8.884,8.884,0,0,1-3.4.65M69.987,8.03H74.04V22.975H69.987Zm4.053,6.683-1.578-1.052A7.929,7.929,0,0,1,74.071,9.3a4.751,4.751,0,0,1,3.837-1.578,5.6,5.6,0,0,1,1.95.34,4.4,4.4,0,0,1,1.578,1.176L78.9,12.145a2.089,2.089,0,0,0-.8-.557A3.239,3.239,0,0,0,76.98,11.4a2.869,2.869,0,0,0-2.1.8,3.4,3.4,0,0,0-.836,2.506" transform="translate(0 -0.605)" fill="#205e6b"/>
      <path id="Caminho_1245" data-name="Caminho 1245" d="M265.843.619h4.177V22.37h-4.177Zm3.094,21.751V18.936H274.6a3.1,3.1,0,0,0,2.383-.928,3.194,3.194,0,0,0,.835-2.2,3.3,3.3,0,0,0-.371-1.578,2.961,2.961,0,0,0-1.083-1.145,3.538,3.538,0,0,0-1.764-.4h-5.662v-3.4h5.2a3.224,3.224,0,0,0,2.1-.65,2.37,2.37,0,0,0,.774-1.949,2.4,2.4,0,0,0-.774-1.98,3.224,3.224,0,0,0-2.1-.65h-5.2V.619h5.693a7.679,7.679,0,0,1,3.651.773,5.693,5.693,0,0,1,2.2,2.073,5.552,5.552,0,0,1,.742,2.816,4.823,4.823,0,0,1-1.114,3.187,6.78,6.78,0,0,1-3.311,2.011l.186-1.361a7.644,7.644,0,0,1,3.744,2.228,5.769,5.769,0,0,1,1.3,3.775,5.981,5.981,0,0,1-.835,3.125,6.049,6.049,0,0,1-2.475,2.259,8.231,8.231,0,0,1-3.96.866Zm22.246.309a6.8,6.8,0,0,1-3.682-1.021,7.192,7.192,0,0,1-2.568-2.785,8.4,8.4,0,0,1-.928-3.961,8.44,8.44,0,0,1,.928-3.991A7.193,7.193,0,0,1,287.5,8.137a6.8,6.8,0,0,1,3.682-1.021,6.164,6.164,0,0,1,2.877.65A5.445,5.445,0,0,1,296.1,9.561a5.154,5.154,0,0,1,.8,2.63v5.384a5.063,5.063,0,0,1-.8,2.63A5.443,5.443,0,0,1,294.061,22a5.821,5.821,0,0,1-2.877.681m.742-3.744a3.53,3.53,0,0,0,2.754-1.145,4,4,0,0,0,1.052-2.908,4.672,4.672,0,0,0-.464-2.1,3.929,3.929,0,0,0-1.331-1.423,3.881,3.881,0,0,0-2.011-.5,3.655,3.655,0,0,0-1.949.5,3.466,3.466,0,0,0-1.331,1.423,4.313,4.313,0,0,0-.495,2.1,4.151,4.151,0,0,0,.495,2.1,3.288,3.288,0,0,0,1.331,1.423,3.671,3.671,0,0,0,1.949.526m3.589,3.434V18.348l.65-3.651-.65-3.589V7.426h4.022V22.37Zm7.611-14.945h4.053V22.37h-4.053ZM313.182,22.37V13.8a2.864,2.864,0,0,0-3-3,3.177,3.177,0,0,0-1.547.371,2.464,2.464,0,0,0-1.052,1.052,3,3,0,0,0-.4,1.578L305.6,13a5.969,5.969,0,0,1,.774-3.094,5.343,5.343,0,0,1,2.1-2.042,6.114,6.114,0,0,1,3.032-.743,5.588,5.588,0,0,1,2.94.8,6.127,6.127,0,0,1,2.042,2.135,5.748,5.748,0,0,1,.742,2.847V22.37ZM320.514,0h4.053V22.37h-4.053Zm9.53,22.37-5.786-7.7,5.755-7.24h4.672l-6.745,8.168.155-1.98,6.9,8.756Z" transform="translate(-181.995 0)" fill="#f60"/>
    </g>
  </g>
</svg>
