<svg xmlns="http://www.w3.org/2000/svg" xmlns:xlink="http://www.w3.org/1999/xlink" width="358.545" height="53.148" viewBox="0 0 358.545 53.148">
  <defs>
    <clipPath id="clip-path">
      <rect id="Retângulo_486" data-name="Retângulo 486" width="358.545" height="53.148" fill="#fff"/>
    </clipPath>
  </defs>
  <g id="horizonal_positiva" transform="translate(0 0)">
    <g id="Grupo_507" data-name="Grupo 507" transform="translate(0 0)" clip-path="url(#clip-path)">
      <path id="Caminho_1244" data-name="Caminho 1244" d="M18.489,53.378a24.257,24.257,0,0,1-10.513-2.1A23.267,23.267,0,0,1,0,44.968l6.526-6.526a17.193,17.193,0,0,0,5.22,4.568A14.882,14.882,0,0,0,19,44.677a11.077,11.077,0,0,0,6.163-1.523,4.731,4.731,0,0,0,2.248-4.2,5.421,5.421,0,0,0-1.3-3.77A11.156,11.156,0,0,0,22.7,32.714c-1.45-.653-3.045-1.305-4.713-1.885a43.754,43.754,0,0,1-5.148-1.886,20.1,20.1,0,0,1-4.713-2.755,11.673,11.673,0,0,1-3.481-4.2,14,14,0,0,1-1.3-6.453,13.365,13.365,0,0,1,2.248-7.9,14.525,14.525,0,0,1,6.163-5A21.651,21.651,0,0,1,20.592.883a22.146,22.146,0,0,1,9.426,1.958,19.822,19.822,0,0,1,6.888,5.075l-6.526,6.526a16.685,16.685,0,0,0-4.568-3.625,11.884,11.884,0,0,0-5.365-1.16,9.623,9.623,0,0,0-5.365,1.305,4.227,4.227,0,0,0-1.958,3.77,4.646,4.646,0,0,0,1.305,3.407,11.516,11.516,0,0,0,3.48,2.248A42.9,42.9,0,0,0,22.623,22.2c1.667.58,3.407,1.233,5.148,1.958a20.87,20.87,0,0,1,4.713,2.827,13.129,13.129,0,0,1,3.408,4.423A15.534,15.534,0,0,1,37.2,38.152c0,4.713-1.668,8.483-5,11.166s-7.9,4.06-13.7,4.06m30.235-41.4a5.039,5.039,0,0,1-3.843-1.6,5.249,5.249,0,0,1-1.523-3.843A5.368,5.368,0,0,1,44.882,2.7a5.039,5.039,0,0,1,3.843-1.6A5.089,5.089,0,0,1,52.64,2.7a5.626,5.626,0,0,1,1.45,3.843,5.5,5.5,0,0,1-1.45,3.843,5.089,5.089,0,0,1-3.916,1.6m-4.785,5.656H53.51V52.654H43.939Zm17.982,0h9.5V52.654h-9.5Zm22.84,35.021V31.989A6.276,6.276,0,0,0,82.876,27.2a7.251,7.251,0,0,0-4.786-1.668,7.576,7.576,0,0,0-3.408.725,5.962,5.962,0,0,0-2.393,2.248,6.524,6.524,0,0,0-.87,3.481l-3.7-1.812a13.035,13.035,0,0,1,1.812-7.034A12.266,12.266,0,0,1,74.32,18.5a14.4,14.4,0,0,1,6.888-1.6,13.455,13.455,0,0,1,6.6,1.6,12.388,12.388,0,0,1,4.713,4.568,13.769,13.769,0,0,1,1.74,7.106V52.653Zm22.84,0V31.989a6.276,6.276,0,0,0-1.885-4.785,7.827,7.827,0,0,0-8.121-.943,5.717,5.717,0,0,0-2.466,2.248,6.531,6.531,0,0,0-.87,3.481l-5.438-1.305a15.83,15.83,0,0,1,2.248-7.323,14.18,14.18,0,0,1,5.148-4.785,15.321,15.321,0,0,1,7.105-1.667,14.987,14.987,0,0,1,7.034,1.6,12.328,12.328,0,0,1,4.931,4.713,13.639,13.639,0,0,1,1.812,7.251V52.653Zm33.933.725a19.581,19.581,0,0,1-9.788-2.393A17.469,17.469,0,0,1,125,44.532a17.805,17.805,0,0,1-2.538-9.426,17.675,17.675,0,0,1,2.466-9.353,18.361,18.361,0,0,1,6.6-6.526,18.71,18.71,0,0,1,9.354-2.393,17.435,17.435,0,0,1,8.991,2.248,17.323,17.323,0,0,1,6.09,6.235,18.533,18.533,0,0,1,2.175,8.991,16.407,16.407,0,0,1-.072,1.886,15.112,15.112,0,0,1-.435,2.248l-29.438.072V31.408l25.015-.072-3.843,2.973a13.3,13.3,0,0,0-1.087-5.22,7.75,7.75,0,0,0-2.828-3.263,8.877,8.877,0,0,0-4.568-1.088,9.751,9.751,0,0,0-4.931,1.233,8.42,8.42,0,0,0-3.191,3.553,11.574,11.574,0,0,0-1.16,5.438,11.876,11.876,0,0,0,1.233,5.511A7.879,7.879,0,0,0,136.24,44.1a10.336,10.336,0,0,0,5.22,1.3,11.62,11.62,0,0,0,4.858-.942,9.761,9.761,0,0,0,3.77-2.682l5.583,5.583a16.535,16.535,0,0,1-6.164,4.5,20.82,20.82,0,0,1-7.976,1.523M164.01,17.632h9.5V52.654h-9.5Zm9.5,15.661-3.7-2.465c.435-4.278,1.667-7.686,3.77-10.224,2.1-2.466,5.076-3.7,8.991-3.7a13.121,13.121,0,0,1,4.569.8,10.309,10.309,0,0,1,3.7,2.755l-5.946,6.816a4.9,4.9,0,0,0-1.885-1.305,7.591,7.591,0,0,0-2.611-.435,6.723,6.723,0,0,0-4.93,1.886q-1.958,1.958-1.958,5.873" transform="translate(0 -0.231)" fill="#fff"/>
      <path id="Caminho_1245" data-name="Caminho 1245" d="M265.843,1.45h9.788V52.423h-9.788Zm7.251,50.973V44.374h13.269a7.265,7.265,0,0,0,5.583-2.175,7.485,7.485,0,0,0,1.957-5.148,7.734,7.734,0,0,0-.87-3.7A6.94,6.94,0,0,0,290.5,30.67a8.292,8.292,0,0,0-4.133-.942H273.094V21.752h12.182a7.555,7.555,0,0,0,4.93-1.523,5.553,5.553,0,0,0,1.813-4.568,5.612,5.612,0,0,0-1.813-4.64,7.555,7.555,0,0,0-4.93-1.523H273.094V1.45h13.341a18,18,0,0,1,8.556,1.812,13.341,13.341,0,0,1,5.148,4.858,13.011,13.011,0,0,1,1.74,6.6,11.3,11.3,0,0,1-2.61,7.468,15.89,15.89,0,0,1-7.759,4.713l.435-3.19a17.913,17.913,0,0,1,8.773,5.22,13.519,13.519,0,0,1,3.045,8.846,14.017,14.017,0,0,1-1.958,7.323,14.175,14.175,0,0,1-5.8,5.293,19.289,19.289,0,0,1-9.281,2.03Zm52.132.725a15.931,15.931,0,0,1-8.629-2.393,16.853,16.853,0,0,1-6.018-6.526,19.689,19.689,0,0,1-2.175-9.281,19.776,19.776,0,0,1,2.175-9.354A16.856,16.856,0,0,1,316.6,19.07a15.925,15.925,0,0,1,8.629-2.393,14.444,14.444,0,0,1,6.743,1.523,12.762,12.762,0,0,1,4.785,4.206,12.077,12.077,0,0,1,1.886,6.163V41.184a11.864,11.864,0,0,1-1.886,6.163,12.755,12.755,0,0,1-4.785,4.206,13.641,13.641,0,0,1-6.743,1.6m1.74-8.773a8.271,8.271,0,0,0,6.453-2.683,9.379,9.379,0,0,0,2.465-6.816,10.949,10.949,0,0,0-1.087-4.931,9.206,9.206,0,0,0-3.118-3.335,9.094,9.094,0,0,0-4.713-1.16,8.567,8.567,0,0,0-4.568,1.16,8.123,8.123,0,0,0-3.118,3.335,10.108,10.108,0,0,0-1.16,4.931,9.729,9.729,0,0,0,1.16,4.931,7.705,7.705,0,0,0,3.118,3.335,8.6,8.6,0,0,0,4.568,1.233m8.411,8.048V43l1.523-8.555-1.523-8.411V17.4H344.8V52.423ZM353.213,17.4h9.5V52.423h-9.5Zm23.565,35.022V32.338a6.711,6.711,0,0,0-7.033-7.034,7.444,7.444,0,0,0-3.625.87,5.773,5.773,0,0,0-2.465,2.466,7.022,7.022,0,0,0-.943,3.7l-3.7-1.886a13.988,13.988,0,0,1,1.813-7.251,12.521,12.521,0,0,1,4.93-4.785,14.328,14.328,0,0,1,7.106-1.741,13.1,13.1,0,0,1,6.889,1.886,14.358,14.358,0,0,1,4.785,5,13.47,13.47,0,0,1,1.74,6.671V52.423ZM393.962,0h9.5V52.423h-9.5Zm22.332,52.423L402.735,34.368,416.221,17.4H427.17L411.363,36.543l.363-4.64L427.9,52.423Z" transform="translate(-69.35 0)" fill="#fff"/>
    </g>
  </g>
</svg>
