<svg xmlns="http://www.w3.org/2000/svg" xmlns:xlink="http://www.w3.org/1999/xlink" width="195.639" height="29" viewBox="0 0 195.639 29">
  <defs>
    <clipPath id="clip-path">
      <rect id="Retângulo_486" data-name="Retângulo 486" width="195.639" height="29" fill="#fff"/>
    </clipPath>
  </defs>
  <g id="horizonal_positiva" transform="translate(0 0)">
    <g id="Grupo_507" data-name="Grupo 507" transform="translate(0 0)" clip-path="url(#clip-path)">
      <path id="Caminho_1244" data-name="Caminho 1244" d="M10.089,29.527a13.236,13.236,0,0,1-5.737-1.147A12.7,12.7,0,0,1,0,24.938l3.561-3.561a9.381,9.381,0,0,0,2.849,2.492,8.12,8.12,0,0,0,3.956.91,6.044,6.044,0,0,0,3.363-.831,2.582,2.582,0,0,0,1.226-2.294,2.958,2.958,0,0,0-.712-2.057,6.087,6.087,0,0,0-1.86-1.345c-.791-.356-1.662-.712-2.571-1.028A23.874,23.874,0,0,1,7,16.194a10.968,10.968,0,0,1-2.572-1.5,6.369,6.369,0,0,1-1.9-2.294A7.639,7.639,0,0,1,1.82,8.875,7.293,7.293,0,0,1,3.047,4.562a7.925,7.925,0,0,1,3.363-2.73A11.814,11.814,0,0,1,11.236.883a12.084,12.084,0,0,1,5.143,1.068A10.816,10.816,0,0,1,20.138,4.72L16.577,8.281A9.1,9.1,0,0,0,14.085,6.3a6.485,6.485,0,0,0-2.928-.633,5.251,5.251,0,0,0-2.928.712A2.306,2.306,0,0,0,7.161,8.44,2.535,2.535,0,0,0,7.873,10.3a6.284,6.284,0,0,0,1.9,1.226,23.41,23.41,0,0,0,2.572.989c.91.317,1.859.673,2.809,1.068a11.388,11.388,0,0,1,2.571,1.543,7.164,7.164,0,0,1,1.86,2.413,8.476,8.476,0,0,1,.712,3.68,7.421,7.421,0,0,1-2.73,6.093,11.615,11.615,0,0,1-7.478,2.215m16.5-22.591a2.749,2.749,0,0,1-2.1-.87,2.864,2.864,0,0,1-.831-2.1,2.929,2.929,0,0,1,.831-2.1,2.749,2.749,0,0,1,2.1-.87,2.777,2.777,0,0,1,2.137.87,3.07,3.07,0,0,1,.791,2.1,3,3,0,0,1-.791,2.1,2.777,2.777,0,0,1-2.137.87m-2.611,3.086H29.2V29.132H23.975Zm9.812,0H38.97V29.132H33.787ZM46.249,29.131V17.856a3.424,3.424,0,0,0-1.028-2.611,3.957,3.957,0,0,0-2.611-.91,4.134,4.134,0,0,0-1.86.4,3.253,3.253,0,0,0-1.305,1.226,3.56,3.56,0,0,0-.475,1.9l-2.018-.989a7.113,7.113,0,0,1,.989-3.838A6.693,6.693,0,0,1,40.552,10.5a7.857,7.857,0,0,1,3.758-.87,7.341,7.341,0,0,1,3.6.87,6.76,6.76,0,0,1,2.572,2.492,7.513,7.513,0,0,1,.949,3.877V29.131Zm12.463,0V17.856a3.424,3.424,0,0,0-1.028-2.611,4.271,4.271,0,0,0-4.431-.515,3.12,3.12,0,0,0-1.345,1.226,3.563,3.563,0,0,0-.475,1.9l-2.967-.712a8.638,8.638,0,0,1,1.226-4A7.737,7.737,0,0,1,52.5,10.536a8.36,8.36,0,0,1,3.877-.91,8.177,8.177,0,0,1,3.838.87,6.727,6.727,0,0,1,2.69,2.571,7.442,7.442,0,0,1,.989,3.956V29.131Zm18.515.4a10.684,10.684,0,0,1-5.341-1.305A9.532,9.532,0,0,1,68.207,24.7a9.715,9.715,0,0,1-1.385-5.143,9.644,9.644,0,0,1,1.345-5.1,10.019,10.019,0,0,1,3.6-3.561,10.209,10.209,0,0,1,5.1-1.305,9.513,9.513,0,0,1,4.906,1.226,9.452,9.452,0,0,1,3.323,3.4,10.113,10.113,0,0,1,1.187,4.906,8.953,8.953,0,0,1-.04,1.029,8.246,8.246,0,0,1-.238,1.226l-16.063.04V17.539L83.6,17.5l-2.1,1.622a7.258,7.258,0,0,0-.593-2.849,4.229,4.229,0,0,0-1.543-1.78,4.844,4.844,0,0,0-2.492-.594,5.32,5.32,0,0,0-2.69.673,4.594,4.594,0,0,0-1.741,1.939,6.315,6.315,0,0,0-.633,2.967,6.48,6.48,0,0,0,.673,3.007,4.3,4.3,0,0,0,1.859,1.978,5.64,5.64,0,0,0,2.849.712,6.341,6.341,0,0,0,2.651-.514A5.326,5.326,0,0,0,81.9,23.2l3.047,3.046A9.022,9.022,0,0,1,81.579,28.7a11.36,11.36,0,0,1-4.352.831m12.264-19.5h5.183V29.132H89.492Zm5.183,8.546-2.018-1.345a10.138,10.138,0,0,1,2.057-5.579A6.075,6.075,0,0,1,99.62,9.627a7.159,7.159,0,0,1,2.493.435,5.625,5.625,0,0,1,2.018,1.5l-3.245,3.719a2.671,2.671,0,0,0-1.028-.712,4.142,4.142,0,0,0-1.424-.238,3.669,3.669,0,0,0-2.69,1.029,4.352,4.352,0,0,0-1.068,3.2" transform="translate(0 -0.527)" fill="#fff"/>
      <path id="Caminho_1245" data-name="Caminho 1245" d="M265.843.791h5.341V28.6h-5.341ZM269.8,28.6V24.213h7.24a3.964,3.964,0,0,0,3.047-1.187,4.084,4.084,0,0,0,1.068-2.809,4.22,4.22,0,0,0-.475-2.018,3.787,3.787,0,0,0-1.385-1.464,4.524,4.524,0,0,0-2.255-.514H269.8V11.869h6.647a4.122,4.122,0,0,0,2.69-.831,3.03,3.03,0,0,0,.989-2.492,3.062,3.062,0,0,0-.989-2.532,4.122,4.122,0,0,0-2.69-.831H269.8V.791h7.28a9.819,9.819,0,0,1,4.669.989,7.279,7.279,0,0,1,2.809,2.651,7.1,7.1,0,0,1,.949,3.6,6.167,6.167,0,0,1-1.424,4.075,8.67,8.67,0,0,1-4.233,2.571l.238-1.741a9.774,9.774,0,0,1,4.787,2.849,7.377,7.377,0,0,1,1.662,4.827,7.648,7.648,0,0,1-1.068,4A7.735,7.735,0,0,1,282.3,27.5a10.525,10.525,0,0,1-5.064,1.108Zm28.446.4a8.693,8.693,0,0,1-4.708-1.305,9.2,9.2,0,0,1-3.284-3.561,10.743,10.743,0,0,1-1.187-5.064,10.791,10.791,0,0,1,1.187-5.1,9.2,9.2,0,0,1,3.284-3.56A8.689,8.689,0,0,1,298.245,9.1a7.882,7.882,0,0,1,3.679.831,6.963,6.963,0,0,1,2.611,2.295,6.59,6.59,0,0,1,1.029,3.363v6.884a6.474,6.474,0,0,1-1.029,3.363,6.96,6.96,0,0,1-2.611,2.295,7.443,7.443,0,0,1-3.679.87m.949-4.787a4.513,4.513,0,0,0,3.521-1.464,5.118,5.118,0,0,0,1.345-3.719,5.974,5.974,0,0,0-.593-2.69,5.023,5.023,0,0,0-1.7-1.82,4.962,4.962,0,0,0-2.571-.633,4.674,4.674,0,0,0-2.492.633,4.432,4.432,0,0,0-1.7,1.82,5.516,5.516,0,0,0-.633,2.69A5.309,5.309,0,0,0,295,21.72a4.2,4.2,0,0,0,1.7,1.82,4.694,4.694,0,0,0,2.492.673m4.589,4.392V23.461l.831-4.668-.831-4.59V9.495h5.143V28.6Zm9.732-19.109H318.7V28.6h-5.183ZM326.374,28.6V17.645a3.662,3.662,0,0,0-3.837-3.838,4.062,4.062,0,0,0-1.978.475,3.15,3.15,0,0,0-1.345,1.345,3.831,3.831,0,0,0-.515,2.018l-2.018-1.029a7.632,7.632,0,0,1,.989-3.956,6.832,6.832,0,0,1,2.69-2.611,7.818,7.818,0,0,1,3.877-.95A7.145,7.145,0,0,1,328,10.128a7.835,7.835,0,0,1,2.611,2.73,7.35,7.35,0,0,1,.949,3.64V28.6ZM335.751,0h5.183V28.6h-5.183Zm12.185,28.6-7.4-9.852L347.9,9.495h5.974L345.246,19.94l.2-2.532,8.823,11.2Z" transform="translate(-158.627 0)" fill="#fff"/>
    </g>
  </g>
</svg>
