<svg width="40" height="33" viewBox="0 0 40 33" fill="none" xmlns="http://www.w3.org/2000/svg">
<path d="M24.551 25.851H4.771C3.97535 25.851 3.21228 25.5349 2.64968 24.9723C2.08707 24.4097 1.771 23.6466 1.771 22.851V4.85095C1.771 4.0553 2.08707 3.29224 2.64968 2.72963C3.21228 2.16702 3.97535 1.85095 4.771 1.85095H31.771C32.5666 1.85095 33.3297 2.16702 33.8923 2.72963C34.4549 3.29224 34.771 4.0553 34.771 4.85095V15.731" stroke="white" stroke-width="3" stroke-linecap="round" stroke-linejoin="round"/>
<path d="M1.771 10.851H34.771" stroke="white" stroke-width="3" stroke-linecap="round" stroke-linejoin="round"/>
<path d="M38.478 24.3509H37.728V22.8909C37.7307 22.497 37.6558 22.1063 37.5075 21.7413C37.3592 21.3763 37.1405 21.0441 36.8638 20.7636C36.5872 20.4831 36.258 20.2599 35.895 20.1066C35.5321 19.9534 35.1425 19.8731 34.7485 19.8704C34.3546 19.8677 33.9639 19.9427 33.5989 20.0909C33.2339 20.2392 32.9017 20.4579 32.6212 20.7346C32.3407 21.0113 32.1175 21.3405 31.9642 21.7034C31.811 22.0664 31.7307 22.456 31.728 22.8499V24.3499H30.978C30.6468 24.351 30.3295 24.483 30.0953 24.7172C29.8611 24.9514 29.7291 25.2687 29.728 25.5999V31.5999C29.7288 31.9313 29.8607 32.2489 30.095 32.4833C30.3292 32.7177 30.6467 32.8499 30.978 32.8509H38.478C38.8092 32.8499 39.1266 32.7178 39.3607 32.4837C39.5949 32.2495 39.727 31.9321 39.728 31.6009V25.6009C39.727 25.2697 39.5949 24.9524 39.3607 24.7182C39.1266 24.484 38.8092 24.352 38.478 24.3509ZM35.166 28.2509V30.4009C35.1668 30.5148 35.1243 30.6246 35.047 30.7082C34.9697 30.7918 34.8636 30.8428 34.75 30.8509C34.6908 30.8538 34.6315 30.8446 34.576 30.8238C34.5204 30.8031 34.4696 30.7713 34.4266 30.7303C34.3837 30.6894 34.3496 30.6401 34.3263 30.5855C34.3029 30.531 34.291 30.4723 34.291 30.4129V28.2509C34.0876 28.152 33.9238 27.987 33.8263 27.7829C33.7287 27.5788 33.7033 27.3477 33.754 27.1272C33.8048 26.9068 33.9288 26.7101 34.1058 26.5693C34.2828 26.4284 34.5023 26.3517 34.7285 26.3517C34.9547 26.3517 35.1742 26.4284 35.3512 26.5693C35.5282 26.7101 35.6522 26.9068 35.703 27.1272C35.7538 27.3477 35.7283 27.5788 35.6308 27.7829C35.5333 27.987 35.3694 28.152 35.166 28.2509ZM36.854 24.3509H32.603V22.8509C32.603 22.2873 32.8269 21.7468 33.2254 21.3483C33.6239 20.9498 34.1644 20.7259 34.728 20.7259C35.2916 20.7259 35.8321 20.9498 36.2306 21.3483C36.6291 21.7468 36.853 22.2873 36.853 22.8509L36.854 24.3509Z" fill="white"/>
</svg>
