<svg width="58" height="13" viewBox="0 0 58 13" fill="none" xmlns="http://www.w3.org/2000/svg">
<path d="M5.47727 12.4545L5.64773 7.76704L1.68466 10.2812L0.661932 8.49148L4.83807 6.31818L0.661932 4.14489L1.68466 2.35511L5.64773 4.86932L5.47727 0.181818H7.52273L7.35227 4.86932L11.3153 2.35511L12.3381 4.14489L8.16193 6.31818L12.3381 8.49148L11.3153 10.2812L7.35227 7.76704L7.52273 12.4545H5.47727ZM20.4773 12.4545L20.6477 7.76704L16.6847 10.2812L15.6619 8.49148L19.8381 6.31818L15.6619 4.14489L16.6847 2.35511L20.6477 4.86932L20.4773 0.181818H22.5227L22.3523 4.86932L26.3153 2.35511L27.3381 4.14489L23.1619 6.31818L27.3381 8.49148L26.3153 10.2812L22.3523 7.76704L22.5227 12.4545H20.4773ZM35.4773 12.4545L35.6477 7.76704L31.6847 10.2812L30.6619 8.49148L34.8381 6.31818L30.6619 4.14489L31.6847 2.35511L35.6477 4.86932L35.4773 0.181818H37.5227L37.3523 4.86932L41.3153 2.35511L42.3381 4.14489L38.1619 6.31818L42.3381 8.49148L41.3153 10.2812L37.3523 7.76704L37.5227 12.4545H35.4773ZM50.4773 12.4545L50.6477 7.76704L46.6847 10.2812L45.6619 8.49148L49.8381 6.31818L45.6619 4.14489L46.6847 2.35511L50.6477 4.86932L50.4773 0.181818H52.5227L52.3523 4.86932L56.3153 2.35511L57.3381 4.14489L53.1619 6.31818L57.3381 8.49148L56.3153 10.2812L52.3523 7.76704L52.5227 12.4545H50.4773Z" fill="white"/>
</svg>
