<svg xmlns="http://www.w3.org/2000/svg" viewBox="0 0 366.8 528.44"><defs><style>.cls-1{fill:#ffdd06;}.cls-2{fill:#c79311;}.cls-2,.cls-5{fill-rule:evenodd;}.cls-3{font-size:72.94px;fill:#ecbe02;font-family:MicrogrammaD-BoldExte, Microgramma D Extended;font-weight:700;letter-spacing:0.29em;}.cls-4,.cls-5{fill:#3d3935;}</style></defs><g id="Layer_2" data-name="Layer 2"><rect class="cls-1" x="4.13" width="342.46" height="346.37"/><polygon class="cls-2" points="230.37 138.53 200.49 86.82 195 86.82 224.89 138.53 230.37 138.53"/><polygon class="cls-2" points="219.52 138.53 189.63 86.82 184.15 86.82 214.03 138.53 219.52 138.53"/><polygon class="cls-2" points="208.55 138.53 178.66 86.82 173.18 86.82 203.06 138.53 208.55 138.53"/><polygon class="cls-2" points="197.69 138.53 167.81 86.82 162.32 86.82 192.21 138.53 197.69 138.53"/><polygon class="cls-2" points="186.72 138.53 156.84 86.82 151.35 86.82 181.24 138.53 186.72 138.53"/><polygon class="cls-2" points="175.87 138.53 145.98 86.82 140.5 86.82 170.38 138.53 175.87 138.53"/><polygon class="cls-2" points="310.29 277.09 240.45 155.88 234.96 155.88 304.8 277.09 310.29 277.09"/><polygon class="cls-2" points="299.43 277.09 229.48 155.88 224.1 155.88 293.94 277.09 299.43 277.09"/><polygon class="cls-2" points="288.46 277.09 218.62 155.88 213.14 155.88 282.98 277.09 288.46 277.09"/><polygon class="cls-2" points="277.6 277.09 207.65 155.88 202.28 155.88 272.12 277.09 277.6 277.09"/><polygon class="cls-2" points="266.64 277.09 196.8 155.88 191.31 155.88 261.15 277.09 266.64 277.09"/><polygon class="cls-2" points="255.78 277.09 185.94 155.88 180.46 155.88 250.29 277.09 255.78 277.09"/><polygon class="cls-2" points="170.27 277.09 100.43 155.88 94.95 155.88 164.79 277.09 170.27 277.09"/><polygon class="cls-2" points="159.41 277.09 89.46 155.88 84.09 155.88 153.93 277.09 159.41 277.09"/><polygon class="cls-2" points="148.44 277.09 78.61 155.88 73.12 155.88 142.96 277.09 148.44 277.09"/><polygon class="cls-2" points="137.59 277.09 67.64 155.88 62.26 155.88 132.1 277.09 137.59 277.09"/><polygon class="cls-2" points="126.62 277.09 56.78 155.88 51.3 155.88 121.14 277.09 126.62 277.09"/><polygon class="cls-2" points="115.76 277.09 45.92 155.88 40.44 155.88 110.28 277.09 115.76 277.09"/><polygon class="cls-2" points="64.95 207.81 40.44 164.94 40.44 174.68 59.47 207.81 64.95 207.81"/><polygon class="cls-2" points="40.44 193.82 40.44 193.82 48.5 207.81 53.98 207.81 40.44 184.42 40.44 193.82"/><polygon class="cls-2" points="40.44 207.81 43.13 207.81 40.44 203.22 40.44 207.81"/><polygon class="cls-2" points="285.77 225.27 310.29 268.02 310.29 258.4 291.26 225.27 285.77 225.27"/><polygon class="cls-2" points="310.29 239.26 310.29 239.26 302.23 225.27 296.74 225.27 310.29 248.66 310.29 239.26"/><polygon class="cls-2" points="310.29 225.27 307.6 225.27 310.29 229.86 310.29 225.27"/><polygon class="cls-2" points="143.07 220.57 145.76 215.98 175.75 267.91 173.07 272.5 143.07 220.57"/><polygon class="cls-2" points="148.44 211.39 151.02 206.69 181.01 258.62 178.33 263.21 148.44 211.39"/><polygon class="cls-2" points="153.71 202.1 156.39 197.51 186.39 249.44 183.7 254.03 153.71 202.1"/><polygon class="cls-2" points="159.08 192.92 161.76 188.22 191.65 240.16 189.07 244.74 159.08 192.92"/><polygon class="cls-2" points="164.45 183.63 167.02 179.04 197.02 230.87 194.33 235.57 164.45 183.63"/><polygon class="cls-2" points="169.71 174.34 172.4 169.75 202.39 221.69 199.71 226.28 169.71 174.34"/><polygon class="cls-2" points="175.08 165.17 177.77 160.58 207.65 212.4 205.08 217.1 175.08 165.17"/><text class="cls-3" transform="translate(0 505.24) scale(1 1.12)">BANK</text><polygon class="cls-4" points="329.53 396.21 321.04 414.74 312.56 396.21 296.79 396.21 296.79 424.75 305.36 424.75 305.16 403.39 306.68 403.39 317.44 424.75 324.66 424.75 335.43 403.39 336.85 403.39 336.64 424.75 345.21 424.75 345.21 396.21 329.53 396.21"/><rect class="cls-4" x="281.57" y="396.21" width="9.13" height="28.54"/><rect class="cls-4" x="225.02" y="396.21" width="9.13" height="28.54"/><polygon class="cls-4" points="203.25 396.21 194.76 414.74 186.27 396.21 170.51 396.21 170.51 424.75 179.08 424.75 178.87 403.39 180.4 403.39 191.16 424.75 198.38 424.75 209.15 403.39 210.57 403.39 210.36 424.75 218.93 424.75 218.93 396.21 203.25 396.21"/><polygon class="cls-4" points="132.8 396.21 132.8 424.75 164.58 424.75 164.58 417.89 141.38 417.89 141.38 413.32 163.25 413.32 163.25 407.05 141.38 407.05 141.38 402.92 164.42 402.92 164.42 396.21 132.8 396.21"/><polygon class="cls-4" points="18.13 396.21 18.13 403.49 30.84 403.49 30.84 424.75 39.98 424.75 39.98 403.49 52.67 403.49 52.67 396.21 18.13 396.21"/><rect class="cls-4" x="5.34" y="396.21" width="9.14" height="28.54"/><path class="cls-5" d="M240.24,424.75V396.21h21c4.93,0,7.89.07,8.86.16a6.6,6.6,0,0,1,2.83,1,5.08,5.08,0,0,1,2.24,2.71,17.89,17.89,0,0,1,.6,5.43,20,20,0,0,1-.38,4.57,4.38,4.38,0,0,1-1.46,2.34,7.14,7.14,0,0,1-3.47,1.3,5.62,5.62,0,0,1,3.93,1.57,4,4,0,0,1,.88,2,39.79,39.79,0,0,1,.19,4.87v2.65h-8.57v-1.53a22,22,0,0,0-.18-3.39,3.21,3.21,0,0,0-.66-1.57,2.34,2.34,0,0,0-1.33-.63,28.08,28.08,0,0,0-3.54-.14H248.94v7.26Zm8.7-14.38h12.24c2.13-.05,3.4-.08,3.81-.12a2.33,2.33,0,0,0,1.06-.33,1.86,1.86,0,0,0,.79-1.05,7.39,7.39,0,0,0,.23-2.12,6.4,6.4,0,0,0-.26-2.09,1.7,1.7,0,0,0-.91-1,2.79,2.79,0,0,0-1.1-.25c-.42,0-1.64-.05-3.65-.07H248.94Z"/><path class="cls-5" d="M94,424.75V396.21h19.55a73.51,73.51,0,0,1,7.48.23q4.25.57,5.74,2.73c1,1.45,1.5,4,1.5,7.73,0,3.52-.42,6-1.24,7.42a5.5,5.5,0,0,1-2.34,2.19,12.47,12.47,0,0,1-4.12,1.05q-1.86.19-6.94.2H102.67v7Zm8.7-14.11h10.86c2,0,3.19-.05,3.63-.09a3.05,3.05,0,0,0,1.19-.34,1.92,1.92,0,0,0,.92-1.06,7.72,7.72,0,0,0,.25-2.25,5.86,5.86,0,0,0-.32-2.24,1.9,1.9,0,0,0-1.11-1,23.36,23.36,0,0,0-4.56-.3H102.67Z"/><path class="cls-5" d="M81.81,424.75l-2.45-4.83H60.49L58,424.75H48.11l15.13-28.54H76.75l14.93,28.54Zm-5.49-11.08-5.51-10.81H69.08l-5.5,10.81Z"/></g></svg>