<svg xmlns="http://www.w3.org/2000/svg" viewBox="0 0 510.24 680.4"><defs><style>.cls-1{font-size:27.61px;font-family:MicrogrammaD-BoldExte, Microgramma D Extended;font-weight:700;letter-spacing:0.28em;}.cls-1,.cls-2,.cls-3{fill:#3d3935;}.cls-3,.cls-4{fill-rule:evenodd;}.cls-4{fill:#fff;}</style></defs><g id="Layer_2" data-name="Layer 2"><text class="cls-1" transform="translate(0.75 672.56)">BANK</text><polygon class="cls-2" points="483.83 590.36 471.22 617.88 458.62 590.36 435.19 590.36 435.19 632.76 447.93 632.76 447.62 601.02 449.89 601.02 465.88 632.76 476.6 632.76 492.59 601.02 494.7 601.02 494.39 632.76 507.13 632.76 507.13 590.36 483.83 590.36"/><rect class="cls-2" x="412.58" y="590.36" width="13.57" height="42.39"/><rect class="cls-2" x="328.58" y="590.36" width="13.57" height="42.39"/><polygon class="cls-2" points="296.23 590.36 283.62 617.88 271.01 590.36 247.59 590.36 247.59 632.76 260.32 632.76 260.01 601.02 262.29 601.02 278.27 632.76 288.99 632.76 304.99 601.02 307.1 601.02 306.79 632.76 319.52 632.76 319.52 590.36 296.23 590.36"/><polygon class="cls-2" points="191.58 590.36 191.58 632.76 238.79 632.76 238.79 622.57 204.31 622.57 204.31 615.78 236.81 615.78 236.81 606.46 204.31 606.46 204.31 600.33 238.54 600.33 238.54 590.36 191.58 590.36"/><polygon class="cls-2" points="21.23 590.36 21.23 601.18 40.11 601.18 40.11 632.76 53.68 632.76 53.68 601.18 72.54 601.18 72.54 590.36 21.23 590.36"/><rect class="cls-2" x="2.23" y="590.36" width="13.57" height="42.39"/><path class="cls-3" d="M351.19,632.76v-42.4h31.22q11,0,13.17.24a9.59,9.59,0,0,1,4.2,1.44,7.51,7.51,0,0,1,3.32,4,26.21,26.21,0,0,1,.9,8,28.6,28.6,0,0,1-.58,6.8,6.49,6.49,0,0,1-2.16,3.48,10.6,10.6,0,0,1-5.15,1.93c2.72.2,4.65,1,5.84,2.33a5.92,5.92,0,0,1,1.3,2.92,58.94,58.94,0,0,1,.28,7.23v4H390.8v-2.27a32.48,32.48,0,0,0-.27-5,4.69,4.69,0,0,0-1-2.32,3.42,3.42,0,0,0-2-.94,41.06,41.06,0,0,0-5.26-.2H364.11v10.78Zm12.92-21.37h18.17c3.18-.07,5.06-.12,5.68-.17a3.54,3.54,0,0,0,1.57-.49,2.84,2.84,0,0,0,1.17-1.56A10.83,10.83,0,0,0,391,606a9.36,9.36,0,0,0-.39-3.11,2.56,2.56,0,0,0-1.35-1.48,4.5,4.5,0,0,0-1.63-.37c-.62,0-2.44-.07-5.42-.1H364.11Z"/><path class="cls-3" d="M133.88,632.76v-42.4h29.05a110.25,110.25,0,0,1,11.11.34c4.21.57,7.05,1.91,8.54,4s2.21,6,2.21,11.48q0,7.86-1.83,11a8.1,8.1,0,0,1-3.48,3.25,18.19,18.19,0,0,1-6.12,1.56c-1.84.2-5.28.31-10.31.31H146.81v10.38Zm12.93-21H163c3,0,4.74-.06,5.4-.13a4.51,4.51,0,0,0,1.75-.5,2.83,2.83,0,0,0,1.37-1.59,11.3,11.3,0,0,0,.37-3.34,8.87,8.87,0,0,0-.47-3.33,2.88,2.88,0,0,0-1.64-1.51A36.38,36.38,0,0,0,163,601H146.81Z"/><path class="cls-3" d="M115.83,632.76l-3.64-7.18h-28l-3.64,7.18H65.75l22.49-42.4h20.07l22.18,42.4Zm-8.17-16.46-8.17-16.06H96.91L88.74,616.3Z"/><rect class="cls-2" width="510.24" height="516.07"/><polygon class="cls-4" points="337.08 206.4 292.56 129.36 284.38 129.36 328.91 206.4 337.08 206.4"/><polygon class="cls-4" points="320.9 206.4 276.38 129.36 268.21 129.36 312.73 206.4 320.9 206.4"/><polygon class="cls-4" points="304.56 206.4 260.04 129.36 251.87 129.36 296.39 206.4 304.56 206.4"/><polygon class="cls-4" points="288.39 206.4 243.86 129.36 235.69 129.36 280.21 206.4 288.39 206.4"/><polygon class="cls-4" points="272.04 206.4 227.52 129.36 219.35 129.36 263.87 206.4 272.04 206.4"/><polygon class="cls-4" points="255.87 206.4 211.34 129.36 203.17 129.36 247.7 206.4 255.87 206.4"/><polygon class="cls-4" points="456.14 412.85 352.09 232.25 343.92 232.25 447.97 412.85 456.14 412.85"/><polygon class="cls-4" points="439.97 412.85 335.75 232.25 327.74 232.25 431.8 412.85 439.97 412.85"/><polygon class="cls-4" points="423.63 412.85 319.57 232.25 311.4 232.25 415.46 412.85 423.63 412.85"/><polygon class="cls-4" points="407.45 412.85 303.23 232.25 295.22 232.25 399.28 412.85 407.45 412.85"/><polygon class="cls-4" points="391.11 412.85 287.05 232.25 278.88 232.25 382.94 412.85 391.11 412.85"/><polygon class="cls-4" points="374.93 412.85 270.88 232.25 262.7 232.25 366.76 412.85 374.93 412.85"/><polygon class="cls-4" points="247.53 412.85 143.47 232.25 135.3 232.25 239.36 412.85 247.53 412.85"/><polygon class="cls-4" points="231.35 412.85 127.13 232.25 119.13 232.25 223.18 412.85 231.35 412.85"/><polygon class="cls-4" points="215.01 412.85 110.96 232.25 102.79 232.25 206.84 412.85 215.01 412.85"/><polygon class="cls-4" points="198.84 412.85 94.61 232.25 86.61 232.25 190.67 412.85 198.84 412.85"/><polygon class="cls-4" points="182.5 412.85 78.44 232.25 70.27 232.25 174.32 412.85 182.5 412.85"/><polygon class="cls-4" points="166.32 412.85 62.26 232.25 54.09 232.25 158.15 412.85 166.32 412.85"/><polygon class="cls-4" points="90.61 309.62 54.09 245.75 54.09 260.26 82.44 309.62 90.61 309.62"/><polygon class="cls-4" points="54.09 288.78 54.09 288.78 66.1 309.62 74.27 309.62 54.09 274.77 54.09 288.78"/><polygon class="cls-4" points="54.09 309.62 58.09 309.62 54.09 302.78 54.09 309.62"/><polygon class="cls-4" points="419.62 335.64 456.14 399.34 456.14 385 427.8 335.64 419.62 335.64"/><polygon class="cls-4" points="456.14 356.48 456.14 356.48 444.14 335.64 435.97 335.64 456.14 370.49 456.14 356.48"/><polygon class="cls-4" points="456.14 335.64 452.14 335.64 456.14 342.47 456.14 335.64"/><polygon class="cls-4" points="207.01 328.63 211.01 321.8 255.7 399.17 251.7 406.01 207.01 328.63"/><polygon class="cls-4" points="215.01 314.96 218.85 307.95 263.54 385.33 259.54 392.17 215.01 314.96"/><polygon class="cls-4" points="222.85 301.12 226.85 294.28 271.54 371.66 267.54 378.49 222.85 301.12"/><polygon class="cls-4" points="230.85 287.44 234.86 280.44 279.38 357.82 275.55 364.65 230.85 287.44"/><polygon class="cls-4" points="238.86 273.6 242.69 266.77 287.39 343.97 283.38 350.98 238.86 273.6"/><polygon class="cls-4" points="246.7 259.76 250.7 252.92 295.39 330.3 291.39 337.14 246.7 259.76"/><polygon class="cls-4" points="254.7 246.09 258.7 239.25 303.23 316.46 299.39 323.46 254.7 246.09"/></g></svg>