<svg xmlns="http://www.w3.org/2000/svg" viewBox="0 0 510.24 680.4"><defs><style>.cls-1{font-size:27.61px;font-family:MicrogrammaD-BoldExte, Microgramma D Extended;font-weight:700;letter-spacing:0.28em;}.cls-1,.cls-2,.cls-3{fill:#3d3935;}.cls-3{fill-rule:evenodd;}.cls-4{fill:none;}</style></defs><g id="Layer_2" data-name="Layer 2"><text class="cls-1" transform="translate(1.65 672.56)">BANK</text><polygon class="cls-2" points="484.74 590.36 472.12 617.88 459.52 590.36 436.1 590.36 436.1 632.76 448.83 632.76 448.53 601.02 450.8 601.02 466.78 632.76 477.5 632.76 493.5 601.02 495.61 601.02 495.3 632.76 508.04 632.76 508.04 590.36 484.74 590.36"/><rect class="cls-2" x="413.48" y="590.36" width="13.57" height="42.39"/><rect class="cls-2" x="329.48" y="590.36" width="13.57" height="42.39"/><polygon class="cls-2" points="297.14 590.36 284.52 617.88 271.92 590.36 248.49 590.36 248.49 632.76 261.23 632.76 260.92 601.02 263.19 601.02 279.18 632.76 289.9 632.76 305.89 601.02 308.01 601.02 307.7 632.76 320.43 632.76 320.43 590.36 297.14 590.36"/><polygon class="cls-2" points="192.49 590.36 192.49 632.76 239.69 632.76 239.69 622.57 205.22 622.57 205.22 615.78 237.71 615.78 237.71 606.46 205.22 606.46 205.22 600.33 239.45 600.33 239.45 590.36 192.49 590.36"/><polygon class="cls-2" points="22.14 590.36 22.14 601.18 41.02 601.18 41.02 632.76 54.59 632.76 54.59 601.18 73.45 601.18 73.45 590.36 22.14 590.36"/><rect class="cls-2" x="3.13" y="590.36" width="13.57" height="42.39"/><path class="cls-3" d="M352.1,632.76v-42.4h31.22q11,0,13.16.24a9.5,9.5,0,0,1,4.2,1.44,7.43,7.43,0,0,1,3.32,4,25.86,25.86,0,0,1,.9,8,29.27,29.27,0,0,1-.57,6.8,6.49,6.49,0,0,1-2.16,3.48,10.6,10.6,0,0,1-5.16,1.93c2.72.2,4.66,1,5.85,2.33a5.92,5.92,0,0,1,1.3,2.92,58.94,58.94,0,0,1,.28,7.23v4H391.7v-2.27a32.82,32.82,0,0,0-.26-5,4.78,4.78,0,0,0-1-2.32,3.42,3.42,0,0,0-2-.94,40.59,40.59,0,0,0-5.27-.21H365v10.79ZM365,611.39h18.17c3.17-.07,5.06-.12,5.67-.17a3.59,3.59,0,0,0,1.57-.49,2.85,2.85,0,0,0,1.18-1.56A11.19,11.19,0,0,0,392,606a9.36,9.36,0,0,0-.39-3.11,2.59,2.59,0,0,0-1.35-1.48,4.6,4.6,0,0,0-1.63-.37c-.63,0-2.44-.07-5.42-.1H365Z"/><path class="cls-3" d="M134.79,632.76v-42.4h29.05a110.39,110.39,0,0,1,11.11.34c4.21.57,7.05,1.91,8.53,4s2.22,6,2.22,11.48q0,7.86-1.83,11a8.15,8.15,0,0,1-3.48,3.25,18.5,18.5,0,0,1-6.12,1.56c-1.84.2-5.28.31-10.31.31H147.71v10.38Zm12.92-21h16.15c2.95,0,4.74-.07,5.39-.13a4.56,4.56,0,0,0,1.76-.5,2.81,2.81,0,0,0,1.36-1.59,11,11,0,0,0,.37-3.34,8.87,8.87,0,0,0-.46-3.33,2.84,2.84,0,0,0-1.65-1.51,36.22,36.22,0,0,0-6.77-.44H147.71Z"/><path class="cls-3" d="M116.73,632.76l-3.63-7.18h-28l-3.63,7.18H66.66l22.49-42.4h20.07l22.17,42.4Zm-8.16-16.47-8.17-16H97.82l-8.18,16Z"/><rect class="cls-4" width="510.24" height="516.07"/><polygon class="cls-3" points="337.08 206.4 292.56 129.36 284.38 129.36 328.91 206.4 337.08 206.4"/><polygon class="cls-3" points="320.9 206.4 276.38 129.36 268.21 129.36 312.73 206.4 320.9 206.4"/><polygon class="cls-3" points="304.56 206.4 260.04 129.36 251.87 129.36 296.39 206.4 304.56 206.4"/><polygon class="cls-3" points="288.39 206.4 243.86 129.36 235.69 129.36 280.21 206.4 288.39 206.4"/><polygon class="cls-3" points="272.04 206.4 227.52 129.36 219.35 129.36 263.87 206.4 272.04 206.4"/><polygon class="cls-3" points="255.87 206.4 211.34 129.36 203.17 129.36 247.7 206.4 255.87 206.4"/><polygon class="cls-3" points="456.14 412.85 352.09 232.25 343.92 232.25 447.97 412.85 456.14 412.85"/><polygon class="cls-3" points="439.97 412.85 335.75 232.25 327.74 232.25 431.8 412.85 439.97 412.85"/><polygon class="cls-3" points="423.63 412.85 319.57 232.25 311.4 232.25 415.45 412.85 423.63 412.85"/><polygon class="cls-3" points="407.45 412.85 303.23 232.25 295.22 232.25 399.28 412.85 407.45 412.85"/><polygon class="cls-3" points="391.11 412.85 287.05 232.25 278.88 232.25 382.94 412.85 391.11 412.85"/><polygon class="cls-3" points="374.93 412.85 270.88 232.25 262.7 232.25 366.76 412.85 374.93 412.85"/><polygon class="cls-3" points="247.53 412.85 143.47 232.25 135.3 232.25 239.36 412.85 247.53 412.85"/><polygon class="cls-3" points="231.35 412.85 127.13 232.25 119.13 232.25 223.18 412.85 231.35 412.85"/><polygon class="cls-3" points="215.01 412.85 110.96 232.25 102.79 232.25 206.84 412.85 215.01 412.85"/><polygon class="cls-3" points="198.84 412.85 94.61 232.25 86.61 232.25 190.67 412.85 198.84 412.85"/><polygon class="cls-3" points="182.5 412.85 78.44 232.25 70.27 232.25 174.32 412.85 182.5 412.85"/><polygon class="cls-3" points="166.32 412.85 62.26 232.25 54.09 232.25 158.15 412.85 166.32 412.85"/><polygon class="cls-3" points="90.61 309.62 54.09 245.75 54.09 260.26 82.44 309.62 90.61 309.62"/><polygon class="cls-3" points="54.09 288.78 54.09 288.78 66.1 309.62 74.27 309.62 54.09 274.77 54.09 288.78"/><polygon class="cls-3" points="54.09 309.62 58.09 309.62 54.09 302.78 54.09 309.62"/><polygon class="cls-3" points="419.62 335.64 456.14 399.34 456.14 385 427.8 335.64 419.62 335.64"/><polygon class="cls-3" points="456.14 356.48 456.14 356.48 444.14 335.64 435.96 335.64 456.14 370.49 456.14 356.48"/><polygon class="cls-3" points="456.14 335.64 452.14 335.64 456.14 342.47 456.14 335.64"/><polygon class="cls-3" points="207.01 328.63 211.01 321.8 255.7 399.17 251.7 406.01 207.01 328.63"/><polygon class="cls-3" points="215.01 314.96 218.85 307.95 263.54 385.33 259.54 392.17 215.01 314.96"/><polygon class="cls-3" points="222.85 301.12 226.85 294.28 271.54 371.66 267.54 378.49 222.85 301.12"/><polygon class="cls-3" points="230.86 287.44 234.86 280.44 279.38 357.81 275.55 364.65 230.86 287.44"/><polygon class="cls-3" points="238.86 273.6 242.69 266.77 287.39 343.97 283.38 350.98 238.86 273.6"/><polygon class="cls-3" points="246.7 259.76 250.7 252.92 295.39 330.3 291.39 337.14 246.7 259.76"/><polygon class="cls-3" points="254.7 246.09 258.7 239.25 303.23 316.46 299.39 323.46 254.7 246.09"/></g></svg>