<svg xmlns="http://www.w3.org/2000/svg" viewBox="0 0 171.37 228.53"><defs><style>.cls-1{font-size:9.27px;font-family:MicrogrammaD-BoldExte, Microgramma D Extended;font-weight:700;letter-spacing:0.28em;}.cls-1,.cls-2,.cls-3{fill:#3d3935;}.cls-3,.cls-5{fill-rule:evenodd;}.cls-4{fill:#ffdd06;}.cls-5{fill:#c79311;}</style></defs><g id="Layer_2" data-name="Layer 2"><text class="cls-1" transform="translate(0.25 225.89)">BANK</text><polygon class="cls-2" points="162.5 198.28 158.27 207.53 154.03 198.28 146.17 198.28 146.17 212.52 150.44 212.52 150.34 201.86 151.1 201.86 156.47 212.52 160.07 212.52 165.45 201.86 166.16 201.86 166.05 212.52 170.33 212.52 170.33 198.28 162.5 198.28"/><rect class="cls-2" x="138.57" y="198.28" width="4.56" height="14.24"/><rect class="cls-2" x="110.36" y="198.28" width="4.56" height="14.24"/><polygon class="cls-2" points="99.5 198.28 95.26 207.53 91.02 198.28 83.16 198.28 83.16 212.52 87.44 212.52 87.33 201.86 88.09 201.86 93.46 212.52 97.06 212.52 102.44 201.86 103.15 201.86 103.04 212.52 107.32 212.52 107.32 198.28 99.5 198.28"/><polygon class="cls-2" points="64.35 198.28 64.35 212.52 80.2 212.52 80.2 209.1 68.62 209.1 68.62 206.82 79.54 206.82 79.54 203.69 68.62 203.69 68.62 201.63 80.12 201.63 80.12 198.28 64.35 198.28"/><polygon class="cls-2" points="7.13 198.28 7.13 201.92 13.47 201.92 13.47 212.52 18.03 212.52 18.03 201.92 24.36 201.92 24.36 198.28 7.13 198.28"/><rect class="cls-2" x="0.75" y="198.28" width="4.56" height="14.24"/><path class="cls-3" d="M118,212.52V198.29h10.49c2.46,0,3.93,0,4.42.07a3.27,3.27,0,0,1,1.41.49,2.56,2.56,0,0,1,1.12,1.35,8.86,8.86,0,0,1,.3,2.71,9.74,9.74,0,0,1-.19,2.28,2.16,2.16,0,0,1-.73,1.17A3.52,3.52,0,0,1,133,207a2.81,2.81,0,0,1,2,.79,2,2,0,0,1,.44,1,20.22,20.22,0,0,1,.09,2.43v1.32h-4.27v-.76a11,11,0,0,0-.09-1.69,1.56,1.56,0,0,0-.33-.78,1.15,1.15,0,0,0-.66-.32,13.1,13.1,0,0,0-1.77-.07h-6.12v3.62Zm4.34-7.17h6.11c1.06,0,1.7,0,1.9-.06a1.11,1.11,0,0,0,.53-.17,1,1,0,0,0,.4-.52,3.92,3.92,0,0,0,.11-1.06,3.06,3.06,0,0,0-.13-1,.87.87,0,0,0-.46-.5,1.65,1.65,0,0,0-.54-.13l-1.82,0h-6.1Z"/><path class="cls-3" d="M45,212.52V198.28h9.75a34.87,34.87,0,0,1,3.74.12,3.94,3.94,0,0,1,2.86,1.36,7.14,7.14,0,0,1,.75,3.86,8,8,0,0,1-.62,3.7,2.8,2.8,0,0,1-1.17,1.09,6,6,0,0,1-2.05.52c-.62.07-1.78.11-3.47.11H49.31v3.48Zm4.34-7h5.42c1,0,1.59,0,1.81,0a1.56,1.56,0,0,0,.59-.17,1,1,0,0,0,.46-.53,3.84,3.84,0,0,0,.13-1.12,3,3,0,0,0-.16-1.12A.93.93,0,0,0,57,202a11.34,11.34,0,0,0-2.28-.15H49.31Z"/><path class="cls-3" d="M38.9,212.52l-1.22-2.41H28.26L27,212.52H22.09l7.55-14.24h6.74l7.45,14.24ZM36.16,207l-2.74-5.39h-.87L29.8,207Z"/><rect class="cls-4" width="171.37" height="173.33"/><polygon class="cls-5" points="113.22 69.32 98.26 43.45 95.52 43.45 110.47 69.32 113.22 69.32"/><polygon class="cls-5" points="107.78 69.32 92.83 43.45 90.08 43.45 105.04 69.32 107.78 69.32"/><polygon class="cls-5" points="102.29 69.32 87.34 43.45 84.59 43.45 99.55 69.32 102.29 69.32"/><polygon class="cls-5" points="96.86 69.32 81.91 43.45 79.16 43.45 94.12 69.32 96.86 69.32"/><polygon class="cls-5" points="91.37 69.32 76.42 43.45 73.67 43.45 88.63 69.32 91.37 69.32"/><polygon class="cls-5" points="85.94 69.32 70.98 43.45 68.24 43.45 83.19 69.32 85.94 69.32"/><polygon class="cls-5" points="153.21 138.66 118.26 78 115.51 78 150.46 138.66 153.21 138.66"/><polygon class="cls-5" points="147.77 138.66 112.77 78 110.08 78 145.03 138.66 147.77 138.66"/><polygon class="cls-5" points="142.28 138.66 107.33 78 104.59 78 139.54 138.66 142.28 138.66"/><polygon class="cls-5" points="136.85 138.66 101.84 78 99.16 78 134.11 138.66 136.85 138.66"/><polygon class="cls-5" points="131.36 138.66 96.41 78 93.67 78 128.62 138.66 131.36 138.66"/><polygon class="cls-5" points="125.93 138.66 90.98 78 88.23 78 123.18 138.66 125.93 138.66"/><polygon class="cls-5" points="83.14 138.66 48.19 78 45.44 78 80.39 138.66 83.14 138.66"/><polygon class="cls-5" points="77.7 138.66 42.7 78 40.01 78 74.96 138.66 77.7 138.66"/><polygon class="cls-5" points="72.22 138.66 37.27 78 34.52 78 69.47 138.66 72.22 138.66"/><polygon class="cls-5" points="66.78 138.66 31.78 78 29.09 78 64.04 138.66 66.78 138.66"/><polygon class="cls-5" points="61.3 138.66 26.34 78 23.6 78 58.55 138.66 61.3 138.66"/><polygon class="cls-5" points="55.86 138.66 20.91 78 18.17 78 53.12 138.66 55.86 138.66"/><polygon class="cls-5" points="30.43 103.99 18.17 82.54 18.17 87.41 27.69 103.99 30.43 103.99"/><polygon class="cls-5" points="18.17 96.99 18.17 96.99 22.2 103.99 24.95 103.99 18.17 92.29 18.17 96.99"/><polygon class="cls-5" points="18.17 103.99 19.51 103.99 18.17 101.7 18.17 103.99"/><polygon class="cls-5" points="140.94 112.73 153.21 134.13 153.21 129.31 143.68 112.73 140.94 112.73"/><polygon class="cls-5" points="153.21 119.73 153.21 119.73 149.17 112.73 146.43 112.73 153.21 124.44 153.21 119.73"/><polygon class="cls-5" points="153.21 112.73 151.86 112.73 153.21 115.03 153.21 112.73"/><polygon class="cls-5" points="69.53 110.38 70.87 108.08 85.88 134.07 84.54 136.37 69.53 110.38"/><polygon class="cls-5" points="72.22 105.78 73.5 103.43 88.52 129.42 87.17 131.72 72.22 105.78"/><polygon class="cls-5" points="74.85 101.14 76.19 98.84 91.2 124.83 89.86 127.12 74.85 101.14"/><polygon class="cls-5" points="77.54 96.54 78.88 94.19 93.84 120.18 92.55 122.47 77.54 96.54"/><polygon class="cls-5" points="80.23 91.89 81.51 89.6 96.52 115.53 95.18 117.88 80.23 91.89"/><polygon class="cls-5" points="82.86 87.25 84.2 84.95 99.21 110.94 97.87 113.23 82.86 87.25"/><polygon class="cls-5" points="85.55 82.65 86.89 80.36 101.84 106.29 100.56 108.64 85.55 82.65"/></g></svg>