<svg xmlns="http://www.w3.org/2000/svg" viewBox="0 0 515.91 947.14"><defs><style>.cls-1{font-size:27.89px;font-family:MicrogrammaD-BoldExte, Microgramma D Extended;font-weight:700;letter-spacing:0.28em;}.cls-1,.cls-2,.cls-3{fill:#3d3935;}.cls-3,.cls-5{fill-rule:evenodd;}.cls-4{fill:#ffdd06;}.cls-5{fill:#c79311;}</style></defs><g id="Layer_2" data-name="Layer 2"><text class="cls-1" transform="translate(0 939.22)">BANK</text><polygon class="cls-2" points="487.99 856.19 475.25 883.99 462.52 856.19 438.86 856.19 438.86 899.01 451.72 899.01 451.41 866.95 453.7 866.95 469.85 899.01 480.68 899.01 496.84 866.95 498.97 866.95 498.66 899.01 511.52 899.01 511.52 856.19 487.99 856.19"/><rect class="cls-2" x="416.01" y="856.19" width="13.71" height="42.82"/><rect class="cls-2" x="331.16" y="856.19" width="13.71" height="42.82"/><polygon class="cls-2" points="298.49 856.19 285.74 883.99 273.01 856.19 249.35 856.19 249.35 899.01 262.21 899.01 261.9 866.95 264.2 866.95 280.34 899.01 291.17 899.01 307.33 866.95 309.46 866.95 309.15 899.01 322.01 899.01 322.01 856.19 298.49 856.19"/><polygon class="cls-2" points="192.77 856.19 192.77 899.01 240.46 899.01 240.46 888.72 205.63 888.72 205.63 881.86 238.45 881.86 238.45 872.44 205.63 872.44 205.63 866.25 240.21 866.25 240.21 856.19 192.77 856.19"/><polygon class="cls-2" points="20.69 856.19 20.69 867.11 39.77 867.11 39.77 899.01 53.47 899.01 53.47 867.11 72.52 867.11 72.52 856.19 20.69 856.19"/><rect class="cls-2" x="1.5" y="856.19" width="13.71" height="42.82"/><path class="cls-3" d="M354,899V856.19h31.54q11.1,0,13.3.23a9.86,9.86,0,0,1,4.24,1.46,7.56,7.56,0,0,1,3.35,4.07,26.37,26.37,0,0,1,.91,8.14,29.13,29.13,0,0,1-.58,6.86,6.47,6.47,0,0,1-2.18,3.51,10.57,10.57,0,0,1-5.21,1.95c2.75.21,4.71,1,5.91,2.36a6,6,0,0,1,1.31,3,59.78,59.78,0,0,1,.28,7.3v4H394v-2.29a33.16,33.16,0,0,0-.27-5.1,4.73,4.73,0,0,0-1-2.34,3.46,3.46,0,0,0-2-1,44.11,44.11,0,0,0-5.32-.2H367.06V899Zm13.06-21.59h18.35c3.2-.06,5.11-.11,5.73-.17a3.46,3.46,0,0,0,1.59-.49,2.88,2.88,0,0,0,1.18-1.57,11,11,0,0,0,.35-3.2,9.15,9.15,0,0,0-.4-3.13,2.61,2.61,0,0,0-1.36-1.5,4.45,4.45,0,0,0-1.65-.38c-.63,0-2.46-.07-5.47-.09H367.06Z"/><path class="cls-3" d="M134.49,899V856.19h29.34c5.81,0,9.55.12,11.22.34q6.39.86,8.63,4.09t2.23,11.6c0,5.29-.62,9-1.85,11.14a8.24,8.24,0,0,1-3.51,3.28,18.79,18.79,0,0,1-6.18,1.58c-1.86.2-5.33.31-10.42.31H147.54V899Zm13-21.18h16.31c3,0,4.79-.06,5.45-.13a4.56,4.56,0,0,0,1.77-.5,2.89,2.89,0,0,0,1.38-1.61,11.13,11.13,0,0,0,.38-3.37,8.94,8.94,0,0,0-.47-3.36,2.86,2.86,0,0,0-1.66-1.53q-.88-.35-6.85-.44H147.54Z"/><path class="cls-3" d="M116.25,899l-3.67-7.25H84.25L80.57,899H65.67l22.71-42.82h20.28L131.06,899ZM108,882.38l-8.25-16.21H97.14l-8.26,16.21Z"/><rect class="cls-4" x="0.49" width="515.42" height="781.14"/><polygon class="cls-5" points="340.99 468.33 296.01 390.5 287.76 390.5 332.74 468.33 340.99 468.33"/><polygon class="cls-5" points="324.65 468.33 279.68 390.5 271.42 390.5 316.4 468.33 324.65 468.33"/><polygon class="cls-5" points="308.14 468.33 263.17 390.5 254.91 390.5 299.89 468.33 308.14 468.33"/><polygon class="cls-5" points="291.8 468.33 246.83 390.5 238.57 390.5 283.55 468.33 291.8 468.33"/><polygon class="cls-5" points="275.3 468.33 230.32 390.5 222.06 390.5 267.04 468.33 275.3 468.33"/><polygon class="cls-5" points="258.96 468.33 213.98 390.5 205.73 390.5 250.7 468.33 258.96 468.33"/><polygon class="cls-5" points="461.26 676.87 356.15 494.44 347.9 494.44 453.01 676.87 461.26 676.87"/><polygon class="cls-5" points="444.92 676.87 339.64 494.44 331.56 494.44 436.67 676.87 444.92 676.87"/><polygon class="cls-5" points="428.42 676.87 323.3 494.44 315.05 494.44 420.16 676.87 428.42 676.87"/><polygon class="cls-5" points="412.08 676.87 306.8 494.44 298.71 494.44 403.82 676.87 412.08 676.87"/><polygon class="cls-5" points="395.57 676.87 290.46 494.44 282.2 494.44 387.31 676.87 395.57 676.87"/><polygon class="cls-5" points="379.23 676.87 274.12 494.44 265.86 494.44 370.98 676.87 379.23 676.87"/><polygon class="cls-5" points="250.53 676.87 145.42 494.44 137.17 494.44 242.28 676.87 250.53 676.87"/><polygon class="cls-5" points="234.19 676.87 128.91 494.44 120.83 494.44 225.94 676.87 234.19 676.87"/><polygon class="cls-5" points="217.69 676.87 112.57 494.44 104.32 494.44 209.43 676.87 217.69 676.87"/><polygon class="cls-5" points="201.35 676.87 96.06 494.44 87.98 494.44 193.09 676.87 201.35 676.87"/><polygon class="cls-5" points="184.84 676.87 79.72 494.44 71.47 494.44 176.58 676.87 184.84 676.87"/><polygon class="cls-5" points="168.5 676.87 63.38 494.44 55.13 494.44 160.24 676.87 168.5 676.87"/><polygon class="cls-5" points="92.02 572.6 55.13 508.08 55.13 522.74 83.77 572.6 92.02 572.6"/><polygon class="cls-5" points="55.13 551.54 55.13 551.54 67.26 572.6 75.51 572.6 55.13 537.39 55.13 551.54"/><polygon class="cls-5" points="55.13 572.6 59.17 572.6 55.13 565.69 55.13 572.6"/><polygon class="cls-5" points="424.37 598.88 461.26 663.22 461.26 648.74 432.63 598.88 424.37 598.88"/><polygon class="cls-5" points="461.26 619.93 461.26 619.93 449.14 598.88 440.88 598.88 461.26 634.08 461.26 619.93"/><polygon class="cls-5" points="461.26 598.88 457.22 598.88 461.26 605.78 461.26 598.88"/><polygon class="cls-5" points="209.6 591.8 213.64 584.89 258.79 663.05 254.74 669.96 209.6 591.8"/><polygon class="cls-5" points="217.69 577.99 221.56 570.91 266.7 649.07 262.66 655.98 217.69 577.99"/><polygon class="cls-5" points="225.6 564.01 229.65 557.1 274.79 635.26 270.75 642.17 225.6 564.01"/><polygon class="cls-5" points="233.69 550.19 237.73 543.12 282.71 621.28 278.83 628.18 233.69 550.19"/><polygon class="cls-5" points="241.78 536.21 245.65 529.31 290.79 607.3 286.75 614.37 241.78 536.21"/><polygon class="cls-5" points="249.69 522.23 253.73 515.32 298.88 593.48 294.84 600.39 249.69 522.23"/><polygon class="cls-5" points="257.78 508.42 261.82 501.51 306.8 579.5 302.92 586.58 257.78 508.42"/></g></svg>