<svg xmlns="http://www.w3.org/2000/svg" viewBox="0 0 510.24 936.73"><defs><style>.cls-1{font-size:27.54px;font-family:MicrogrammaD-BoldExte, Microgramma D Extended;font-weight:700;letter-spacing:0.28em;}.cls-1,.cls-2,.cls-3{fill:#3d3935;}.cls-3,.cls-4{fill-rule:evenodd;}.cls-4{fill:#fff;}</style></defs><g id="Layer_2" data-name="Layer 2"><text class="cls-1" transform="translate(0.42 928.14)">BANK</text><polygon class="cls-2" points="482.25 846.15 469.67 873.6 457.1 846.15 433.74 846.15 433.74 888.43 446.44 888.43 446.13 856.78 448.39 856.78 464.34 888.43 475.03 888.43 490.99 856.78 493.09 856.78 492.79 888.43 505.49 888.43 505.49 846.15 482.25 846.15"/><rect class="cls-2" x="411.18" y="846.15" width="13.54" height="42.28"/><rect class="cls-2" x="327.4" y="846.15" width="13.54" height="42.28"/><polygon class="cls-2" points="295.14 846.15 282.56 873.6 269.98 846.15 246.62 846.15 246.62 888.43 259.32 888.43 259.01 856.78 261.28 856.78 277.23 888.43 287.92 888.43 303.87 856.78 305.98 856.78 305.67 888.43 318.37 888.43 318.37 846.15 295.14 846.15"/><polygon class="cls-2" points="190.76 846.15 190.76 888.43 237.84 888.43 237.84 878.27 203.46 878.27 203.46 871.5 235.87 871.5 235.87 862.2 203.46 862.2 203.46 856.09 237.6 856.09 237.6 846.15 190.76 846.15"/><polygon class="cls-2" points="20.85 846.15 20.85 856.94 39.69 856.94 39.69 888.43 53.22 888.43 53.22 856.94 72.03 856.94 72.03 846.15 20.85 846.15"/><rect class="cls-2" x="1.9" y="846.15" width="13.54" height="42.28"/><path class="cls-3" d="M350,888.43V846.15h31.14q11,0,13.14.23a9.81,9.81,0,0,1,4.19,1.44,7.49,7.49,0,0,1,3.3,4,25.83,25.83,0,0,1,.9,8,29.09,29.09,0,0,1-.57,6.77,6.51,6.51,0,0,1-2.15,3.47,10.64,10.64,0,0,1-5.15,1.93c2.71.2,4.65,1,5.83,2.32a6,6,0,0,1,1.3,2.92,58.42,58.42,0,0,1,.28,7.21v3.93h-12.7v-2.26a32.18,32.18,0,0,0-.27-5,4.65,4.65,0,0,0-1-2.32,3.42,3.42,0,0,0-2-.94,41,41,0,0,0-5.25-.2H362.84v10.75Zm12.89-21.31H381c3.16-.07,5-.12,5.65-.17a3.34,3.34,0,0,0,1.57-.49,2.82,2.82,0,0,0,1.17-1.55,10.8,10.8,0,0,0,.34-3.15,9.29,9.29,0,0,0-.39-3.1,2.56,2.56,0,0,0-1.35-1.48,4.49,4.49,0,0,0-1.62-.37c-.62,0-2.43-.07-5.4-.1h-18.1Z"/><path class="cls-3" d="M133.21,888.43V846.15h29a109.89,109.89,0,0,1,11.09.34q6.3.84,8.51,4T184,862q0,7.83-1.83,11a8.17,8.17,0,0,1-3.47,3.24,18.39,18.39,0,0,1-6.1,1.55q-2.76.32-10.29.31H146.1v10.35Zm12.89-20.91h16.11c2.94,0,4.72-.06,5.38-.13a4.63,4.63,0,0,0,1.74-.49,2.83,2.83,0,0,0,1.37-1.59,11.27,11.27,0,0,0,.37-3.33,8.78,8.78,0,0,0-.47-3.32,2.79,2.79,0,0,0-1.64-1.51,36,36,0,0,0-6.75-.44H146.1Z"/><path class="cls-3" d="M115.2,888.43l-3.62-7.16h-28L80,888.43H65.26l22.43-42.28h20l22.12,42.28ZM107.06,872l-8.15-16H96.34l-8.16,16Z"/><rect class="cls-2" x="0.91" y="0.77" width="508.91" height="771.28"/><polygon class="cls-4" points="337.11 463.19 292.7 386.35 284.55 386.35 328.96 463.19 337.11 463.19"/><polygon class="cls-4" points="320.98 463.19 276.57 386.35 268.42 386.35 312.82 463.19 320.98 463.19"/><polygon class="cls-4" points="304.68 463.19 260.27 386.35 252.12 386.35 296.52 463.19 304.68 463.19"/><polygon class="cls-4" points="288.54 463.19 244.13 386.35 235.98 386.35 280.39 463.19 288.54 463.19"/><polygon class="cls-4" points="272.24 463.19 227.83 386.35 219.68 386.35 264.09 463.19 272.24 463.19"/><polygon class="cls-4" points="256.11 463.19 211.7 386.35 203.55 386.35 247.96 463.19 256.11 463.19"/><polygon class="cls-4" points="455.86 669.1 352.08 488.97 343.93 488.97 447.71 669.1 455.86 669.1"/><polygon class="cls-4" points="439.73 669.1 335.78 488.97 327.8 488.97 431.58 669.1 439.73 669.1"/><polygon class="cls-4" points="423.43 669.1 319.64 488.97 311.5 488.97 415.28 669.1 423.43 669.1"/><polygon class="cls-4" points="407.3 669.1 303.35 488.97 295.36 488.97 399.15 669.1 407.3 669.1"/><polygon class="cls-4" points="391 669.1 287.21 488.97 279.06 488.97 382.85 669.1 391 669.1"/><polygon class="cls-4" points="374.86 669.1 271.08 488.97 262.93 488.97 366.71 669.1 374.86 669.1"/><polygon class="cls-4" points="247.79 669.1 144.01 488.97 135.86 488.97 239.64 669.1 247.79 669.1"/><polygon class="cls-4" points="231.66 669.1 127.71 488.97 119.72 488.97 223.51 669.1 231.66 669.1"/><polygon class="cls-4" points="215.36 669.1 111.57 488.97 103.42 488.97 207.21 669.1 215.36 669.1"/><polygon class="cls-4" points="199.23 669.1 95.27 488.97 87.29 488.97 191.08 669.1 199.23 669.1"/><polygon class="cls-4" points="182.93 669.1 79.14 488.97 70.99 488.97 174.78 669.1 182.93 669.1"/><polygon class="cls-4" points="166.79 669.1 63.01 488.97 54.86 488.97 158.64 669.1 166.79 669.1"/><polygon class="cls-4" points="91.28 566.14 54.86 502.44 54.86 516.91 83.13 566.14 91.28 566.14"/><polygon class="cls-4" points="54.86 545.35 54.86 545.35 66.83 566.14 74.98 566.14 54.86 531.38 54.86 545.35"/><polygon class="cls-4" points="54.86 566.14 58.85 566.14 54.86 559.32 54.86 566.14"/><polygon class="cls-4" points="419.44 592.09 455.86 655.62 455.86 641.32 427.59 592.09 419.44 592.09"/><polygon class="cls-4" points="455.86 612.88 455.86 612.88 443.89 592.09 435.74 592.09 455.86 626.85 455.86 612.88"/><polygon class="cls-4" points="455.86 592.09 451.87 592.09 455.86 598.91 455.86 592.09"/><polygon class="cls-4" points="207.38 585.1 211.37 578.28 255.94 655.46 251.95 662.27 207.38 585.1"/><polygon class="cls-4" points="215.36 571.46 219.19 564.48 263.76 641.65 259.77 648.47 215.36 571.46"/><polygon class="cls-4" points="223.18 557.66 227.17 550.84 271.74 628.01 267.75 634.83 223.18 557.66"/><polygon class="cls-4" points="231.16 544.02 235.15 537.03 279.56 614.21 275.74 621.03 231.16 544.02"/><polygon class="cls-4" points="239.15 530.22 242.97 523.39 287.54 600.4 283.55 607.39 239.15 530.22"/><polygon class="cls-4" points="246.96 516.41 250.95 509.59 295.53 586.76 291.54 593.58 246.96 516.41"/><polygon class="cls-4" points="254.94 502.77 258.94 495.95 303.35 572.96 299.52 579.95 254.94 502.77"/></g></svg>