<svg xmlns="http://www.w3.org/2000/svg" viewBox="0 0 340.16 624.49"><defs><style>.cls-1{font-size:18.39px;font-family:MicrogrammaD-BoldExte, Microgramma D Extended;font-weight:700;letter-spacing:0.28em;}.cls-1,.cls-2,.cls-3{fill:#3d3935;}.cls-3,.cls-4{fill-rule:evenodd;}.cls-4{fill:#fff;}</style></defs><g id="Layer_2" data-name="Layer 2"><text class="cls-1" transform="translate(0 619.26)">BANK</text><polygon class="cls-2" points="321.75 564.52 313.35 582.85 304.96 564.52 289.36 564.52 289.36 592.75 297.84 592.75 297.63 571.62 299.14 571.62 309.79 592.75 316.93 592.75 327.58 571.62 328.99 571.62 328.79 592.75 337.27 592.75 337.27 564.52 321.75 564.52"/><rect class="cls-2" x="274.29" y="564.52" width="9.04" height="28.23"/><rect class="cls-2" x="218.34" y="564.52" width="9.04" height="28.23"/><polygon class="cls-2" points="196.8 564.52 188.4 582.85 180 564.52 164.41 564.52 164.41 592.75 172.89 592.75 172.68 571.62 174.19 571.62 184.84 592.75 191.98 592.75 202.63 571.62 204.04 571.62 203.84 592.75 212.32 592.75 212.32 564.52 196.8 564.52"/><polygon class="cls-2" points="127.1 564.52 127.1 592.75 158.54 592.75 158.54 585.97 135.58 585.97 135.58 581.44 157.22 581.44 157.22 575.24 135.58 575.24 135.58 571.15 158.38 571.15 158.38 564.52 127.1 564.52"/><polygon class="cls-2" points="13.64 564.52 13.64 571.72 26.22 571.72 26.22 592.75 35.26 592.75 35.26 571.72 47.82 571.72 47.82 564.52 13.64 564.52"/><rect class="cls-2" x="0.99" y="564.52" width="9.04" height="28.23"/><path class="cls-3" d="M233.41,592.75V564.52H254.2q7.32,0,8.77.15a6.6,6.6,0,0,1,2.8,1,5,5,0,0,1,2.21,2.69,17.41,17.41,0,0,1,.6,5.36,19.69,19.69,0,0,1-.38,4.53,4.33,4.33,0,0,1-1.44,2.31,7,7,0,0,1-3.44,1.29,5.62,5.62,0,0,1,3.9,1.55,4,4,0,0,1,.86,1.95,38.9,38.9,0,0,1,.19,4.82v2.62h-8.48v-1.51a21.61,21.61,0,0,0-.18-3.36,3.09,3.09,0,0,0-.65-1.54,2.28,2.28,0,0,0-1.31-.63,27.72,27.72,0,0,0-3.51-.14H242v7.18Zm8.6-14.23h12.11c2.11,0,3.37-.08,3.78-.11a2.28,2.28,0,0,0,1-.33,1.85,1.85,0,0,0,.78-1,7.23,7.23,0,0,0,.23-2.1,6.31,6.31,0,0,0-.26-2.07,1.75,1.75,0,0,0-.9-1,2.88,2.88,0,0,0-1.09-.24c-.41,0-1.62,0-3.6-.07H242Z"/><path class="cls-3" d="M88.67,592.75V564.52H108c3.83,0,6.3.08,7.4.22,2.81.38,4.7,1.28,5.69,2.7s1.47,4,1.47,7.65c0,3.49-.41,5.93-1.22,7.34A5.41,5.41,0,0,1,119,584.6a12.41,12.41,0,0,1-4.07,1q-1.84.2-6.87.2H97.28v6.91Zm8.61-14H108c2,0,3.16,0,3.6-.09a3.07,3.07,0,0,0,1.16-.33,1.89,1.89,0,0,0,.92-1.06,7.56,7.56,0,0,0,.24-2.22,5.81,5.81,0,0,0-.31-2.22,1.88,1.88,0,0,0-1.09-1,23.39,23.39,0,0,0-4.52-.29H97.28Z"/><path class="cls-3" d="M76.65,592.75,74.23,588H55.55l-2.42,4.78H43.3l15-28.23H71.64l14.77,28.23Zm-5.44-11L65.77,571.1H64.05l-5.44,10.69Z"/><rect class="cls-2" x="0.32" width="339.83" height="515.04"/><polygon class="cls-4" points="224.83 308.79 195.18 257.47 189.73 257.47 219.39 308.79 224.83 308.79"/><polygon class="cls-4" points="214.06 308.79 184.4 257.47 178.96 257.47 208.61 308.79 214.06 308.79"/><polygon class="cls-4" points="203.17 308.79 173.52 257.47 168.07 257.47 197.73 308.79 203.17 308.79"/><polygon class="cls-4" points="192.4 308.79 162.74 257.47 157.3 257.47 186.96 308.79 192.4 308.79"/><polygon class="cls-4" points="181.51 308.79 151.86 257.47 146.42 257.47 176.07 308.79 181.51 308.79"/><polygon class="cls-4" points="170.74 308.79 141.09 257.47 135.64 257.47 165.3 308.79 170.74 308.79"/><polygon class="cls-4" points="304.13 446.29 234.83 326 229.38 326 298.69 446.29 304.13 446.29"/><polygon class="cls-4" points="293.36 446.29 223.94 326 218.61 326 287.92 446.29 293.36 446.29"/><polygon class="cls-4" points="282.47 446.29 213.17 326 207.73 326 277.03 446.29 282.47 446.29"/><polygon class="cls-4" points="271.7 446.29 202.28 326 196.95 326 266.26 446.29 271.7 446.29"/><polygon class="cls-4" points="260.81 446.29 191.51 326 186.07 326 255.37 446.29 260.81 446.29"/><polygon class="cls-4" points="250.04 446.29 180.74 326 175.29 326 244.6 446.29 250.04 446.29"/><polygon class="cls-4" points="165.19 446.29 95.88 326 90.44 326 159.75 446.29 165.19 446.29"/><polygon class="cls-4" points="154.41 446.29 85 326 79.67 326 148.97 446.29 154.41 446.29"/><polygon class="cls-4" points="143.53 446.29 74.22 326 68.78 326 138.09 446.29 143.53 446.29"/><polygon class="cls-4" points="132.76 446.29 63.34 326 58.01 326 127.31 446.29 132.76 446.29"/><polygon class="cls-4" points="121.87 446.29 52.57 326 47.12 326 116.43 446.29 121.87 446.29"/><polygon class="cls-4" points="111.1 446.29 41.79 326 36.35 326 105.66 446.29 111.1 446.29"/><polygon class="cls-4" points="60.67 377.54 36.35 335 36.35 344.66 55.23 377.54 60.67 377.54"/><polygon class="cls-4" points="36.35 363.65 36.35 363.65 44.35 377.54 49.79 377.54 36.35 354.32 36.35 363.65"/><polygon class="cls-4" points="36.35 377.54 39.02 377.54 36.35 372.98 36.35 377.54"/><polygon class="cls-4" points="279.81 394.86 304.13 437.29 304.13 427.74 285.25 394.86 279.81 394.86"/><polygon class="cls-4" points="304.13 408.75 304.13 408.75 296.13 394.86 290.69 394.86 304.13 418.07 304.13 408.75"/><polygon class="cls-4" points="304.13 394.86 301.46 394.86 304.13 399.42 304.13 394.86"/><polygon class="cls-4" points="138.2 390.2 140.86 385.64 170.63 437.18 167.96 441.73 138.2 390.2"/><polygon class="cls-4" points="143.53 381.09 146.08 376.43 175.85 427.96 173.18 432.51 143.53 381.09"/><polygon class="cls-4" points="148.75 371.87 151.41 367.32 181.18 418.85 178.51 423.41 148.75 371.87"/><polygon class="cls-4" points="154.08 362.76 156.75 358.1 186.4 409.63 183.85 414.19 154.08 362.76"/><polygon class="cls-4" points="159.41 353.55 161.97 348.99 191.73 400.42 189.07 405.08 159.41 353.55"/><polygon class="cls-4" points="164.63 344.33 167.3 339.77 197.06 391.31 194.4 395.86 164.63 344.33"/><polygon class="cls-4" points="169.96 335.22 172.63 330.67 202.28 382.09 199.73 386.75 169.96 335.22"/></g></svg>