<svg xmlns="http://www.w3.org/2000/svg" viewBox="0 0 171.37 228.53"><defs><style>.cls-1{font-size:9.27px;font-family:MicrogrammaD-BoldExte, Microgramma D Extended;font-weight:700;letter-spacing:0.28em;}.cls-1,.cls-2,.cls-3{fill:#3d3935;}.cls-3{fill-rule:evenodd;}.cls-4{fill:none;}</style></defs><g id="Layer_2" data-name="Layer 2"><text class="cls-1" transform="translate(0.55 225.89)">BANK</text><polygon class="cls-2" points="162.81 198.28 158.57 207.53 154.34 198.28 146.47 198.28 146.47 212.52 150.75 212.52 150.65 201.86 151.41 201.86 156.78 212.52 160.38 212.52 165.75 201.86 166.46 201.86 166.36 212.52 170.63 212.52 170.63 198.28 162.81 198.28"/><rect class="cls-2" x="138.88" y="198.28" width="4.56" height="14.24"/><rect class="cls-2" x="110.66" y="198.28" width="4.56" height="14.24"/><polygon class="cls-2" points="99.8 198.28 95.56 207.53 91.33 198.28 83.46 198.28 83.46 212.52 87.74 212.52 87.64 201.86 88.4 201.86 93.77 212.52 97.37 212.52 102.74 201.86 103.45 201.86 103.35 212.52 107.62 212.52 107.62 198.28 99.8 198.28"/><polygon class="cls-2" points="64.65 198.28 64.65 212.52 80.51 212.52 80.51 209.1 68.93 209.1 68.93 206.82 79.84 206.82 79.84 203.69 68.93 203.69 68.93 201.63 80.42 201.63 80.42 198.28 64.65 198.28"/><polygon class="cls-2" points="7.43 198.28 7.43 201.92 13.78 201.92 13.78 212.52 18.33 212.52 18.33 201.92 24.67 201.92 24.67 198.28 7.43 198.28"/><rect class="cls-2" x="1.05" y="198.28" width="4.56" height="14.24"/><path class="cls-3" d="M118.26,212.52V198.29h10.48c2.46,0,3.94,0,4.43.07a3.27,3.27,0,0,1,1.41.49,2.5,2.5,0,0,1,1.11,1.35,8.86,8.86,0,0,1,.3,2.71,9.74,9.74,0,0,1-.19,2.28,2.21,2.21,0,0,1-.72,1.17,3.52,3.52,0,0,1-1.73.64,2.81,2.81,0,0,1,2,.79,2,2,0,0,1,.44,1,20.22,20.22,0,0,1,.09,2.43v1.32h-4.28v-.76a11,11,0,0,0-.09-1.69,1.56,1.56,0,0,0-.32-.78,1.17,1.17,0,0,0-.67-.32,13.1,13.1,0,0,0-1.77-.07H122.6v3.62Zm4.34-7.17h6.1c1.07,0,1.7,0,1.91-.06a1.07,1.07,0,0,0,.52-.17.92.92,0,0,0,.4-.52,3.92,3.92,0,0,0,.11-1.06,3.06,3.06,0,0,0-.13-1,.83.83,0,0,0-.45-.5,1.65,1.65,0,0,0-.55-.13l-1.82,0H122.6Z"/><path class="cls-3" d="M45.27,212.52V198.28H55a34.64,34.64,0,0,1,3.73.12,4,4,0,0,1,2.87,1.36,7.26,7.26,0,0,1,.74,3.86,8.12,8.12,0,0,1-.61,3.7,2.8,2.8,0,0,1-1.17,1.09,6.16,6.16,0,0,1-2.06.52c-.62.07-1.77.11-3.46.11H49.61v3.48Zm4.34-7H55c1,0,1.59,0,1.81,0a1.62,1.62,0,0,0,.59-.17,1,1,0,0,0,.46-.53,3.9,3.9,0,0,0,.12-1.12,2.85,2.85,0,0,0-.16-1.12.93.93,0,0,0-.55-.51,11.2,11.2,0,0,0-2.27-.15H49.61Z"/><path class="cls-3" d="M39.21,212.52,38,210.11H28.57l-1.22,2.41h-5l7.55-14.24h6.74l7.45,14.24ZM36.47,207l-2.75-5.39h-.86L30.11,207Z"/><rect class="cls-4" width="171.37" height="173.33"/><polygon class="cls-3" points="113.22 69.32 98.26 43.45 95.52 43.45 110.47 69.32 113.22 69.32"/><polygon class="cls-3" points="107.78 69.32 92.83 43.45 90.08 43.45 105.04 69.32 107.78 69.32"/><polygon class="cls-3" points="102.29 69.32 87.34 43.45 84.59 43.45 99.55 69.32 102.29 69.32"/><polygon class="cls-3" points="96.86 69.32 81.91 43.45 79.16 43.45 94.12 69.32 96.86 69.32"/><polygon class="cls-3" points="91.37 69.32 76.42 43.45 73.67 43.45 88.63 69.32 91.37 69.32"/><polygon class="cls-3" points="85.94 69.32 70.98 43.45 68.24 43.45 83.19 69.32 85.94 69.32"/><polygon class="cls-3" points="153.21 138.66 118.26 78 115.51 78 150.46 138.66 153.21 138.66"/><polygon class="cls-3" points="147.77 138.66 112.77 78 110.08 78 145.03 138.66 147.77 138.66"/><polygon class="cls-3" points="142.28 138.66 107.33 78 104.59 78 139.54 138.66 142.28 138.66"/><polygon class="cls-3" points="136.85 138.66 101.84 78 99.16 78 134.11 138.66 136.85 138.66"/><polygon class="cls-3" points="131.36 138.66 96.41 78 93.67 78 128.62 138.66 131.36 138.66"/><polygon class="cls-3" points="125.93 138.66 90.98 78 88.23 78 123.18 138.66 125.93 138.66"/><polygon class="cls-3" points="83.14 138.66 48.19 78 45.44 78 80.39 138.66 83.14 138.66"/><polygon class="cls-3" points="77.7 138.66 42.7 78 40.01 78 74.96 138.66 77.7 138.66"/><polygon class="cls-3" points="72.22 138.66 37.27 78 34.52 78 69.47 138.66 72.22 138.66"/><polygon class="cls-3" points="66.78 138.66 31.78 78 29.09 78 64.04 138.66 66.78 138.66"/><polygon class="cls-3" points="61.3 138.66 26.34 78 23.6 78 58.55 138.66 61.3 138.66"/><polygon class="cls-3" points="55.86 138.66 20.91 78 18.17 78 53.12 138.66 55.86 138.66"/><polygon class="cls-3" points="30.43 103.99 18.17 82.54 18.17 87.41 27.69 103.99 30.43 103.99"/><polygon class="cls-3" points="18.17 96.99 18.17 96.99 22.2 103.99 24.95 103.99 18.17 92.29 18.17 96.99"/><polygon class="cls-3" points="18.17 103.99 19.51 103.99 18.17 101.7 18.17 103.99"/><polygon class="cls-3" points="140.94 112.73 153.21 134.13 153.21 129.31 143.68 112.73 140.94 112.73"/><polygon class="cls-3" points="153.21 119.73 153.21 119.73 149.17 112.73 146.43 112.73 153.21 124.44 153.21 119.73"/><polygon class="cls-3" points="153.21 112.73 151.86 112.73 153.21 115.03 153.21 112.73"/><polygon class="cls-3" points="69.53 110.38 70.87 108.08 85.88 134.07 84.54 136.37 69.53 110.38"/><polygon class="cls-3" points="72.22 105.78 73.5 103.43 88.52 129.42 87.17 131.72 72.22 105.78"/><polygon class="cls-3" points="74.85 101.14 76.19 98.84 91.2 124.83 89.86 127.12 74.85 101.14"/><polygon class="cls-3" points="77.54 96.54 78.88 94.19 93.84 120.18 92.55 122.47 77.54 96.54"/><polygon class="cls-3" points="80.23 91.89 81.51 89.6 96.52 115.53 95.18 117.88 80.23 91.89"/><polygon class="cls-3" points="82.86 87.25 84.2 84.95 99.21 110.94 97.87 113.23 82.86 87.25"/><polygon class="cls-3" points="85.55 82.65 86.89 80.36 101.84 106.29 100.56 108.64 85.55 82.65"/></g></svg>