<svg xmlns="http://www.w3.org/2000/svg" viewBox="0 0 555.59 800.42"><defs><style>.cls-1,.cls-3,.cls-4{fill:#3d3935;}.cls-2{fill:#fff;}.cls-2,.cls-4{fill-rule:evenodd;}.cls-3{font-size:110.48px;font-family:MicrogrammaD-BoldExte, Microgramma D Extended;font-weight:700;letter-spacing:0.29em;}</style></defs><g id="Layer_2" data-name="Layer 2"><rect class="cls-1" x="6.26" width="518.71" height="524.64"/><polygon class="cls-2" points="348.94 209.83 303.68 131.51 295.37 131.51 340.63 209.83 348.94 209.83"/><polygon class="cls-2" points="332.5 209.83 287.23 131.51 278.93 131.51 324.19 209.83 332.5 209.83"/><polygon class="cls-2" points="315.88 209.83 270.62 131.51 262.31 131.51 307.58 209.83 315.88 209.83"/><polygon class="cls-2" points="299.44 209.83 254.18 131.51 245.87 131.51 291.13 209.83 299.44 209.83"/><polygon class="cls-2" points="282.82 209.83 237.56 131.51 229.25 131.51 274.52 209.83 282.82 209.83"/><polygon class="cls-2" points="266.38 209.83 221.12 131.51 212.81 131.51 258.07 209.83 266.38 209.83"/><polygon class="cls-2" points="469.98 419.7 364.2 236.1 355.89 236.1 461.68 419.7 469.98 419.7"/><polygon class="cls-2" points="453.54 419.7 347.59 236.1 339.45 236.1 445.23 419.7 453.54 419.7"/><polygon class="cls-2" points="436.93 419.7 331.14 236.1 322.83 236.1 428.62 419.7 436.93 419.7"/><polygon class="cls-2" points="420.48 419.7 314.53 236.1 306.39 236.1 412.18 419.7 420.48 419.7"/><polygon class="cls-2" points="403.87 419.7 298.08 236.1 289.78 236.1 395.56 419.7 403.87 419.7"/><polygon class="cls-2" points="387.42 419.7 281.64 236.1 273.33 236.1 379.12 419.7 387.42 419.7"/><polygon class="cls-2" points="257.9 419.7 152.12 236.1 143.81 236.1 249.6 419.7 257.9 419.7"/><polygon class="cls-2" points="241.46 419.7 135.51 236.1 127.37 236.1 233.15 419.7 241.46 419.7"/><polygon class="cls-2" points="224.85 419.7 119.06 236.1 110.75 236.1 216.54 419.7 224.85 419.7"/><polygon class="cls-2" points="208.4 419.7 102.45 236.1 94.31 236.1 200.09 419.7 208.4 419.7"/><polygon class="cls-2" points="191.79 419.7 86 236.1 77.7 236.1 183.48 419.7 191.79 419.7"/><polygon class="cls-2" points="175.34 419.7 69.56 236.1 61.25 236.1 167.04 419.7 175.34 419.7"/><polygon class="cls-2" points="98.38 314.76 61.25 249.84 61.25 264.58 90.07 314.76 98.38 314.76"/><polygon class="cls-2" points="61.25 293.57 61.25 293.57 73.46 314.76 81.77 314.76 61.25 279.33 61.25 293.57"/><polygon class="cls-2" points="61.25 314.76 65.32 314.76 61.25 307.81 61.25 314.76"/><polygon class="cls-2" points="432.86 341.21 469.98 405.97 469.98 391.39 441.17 341.21 432.86 341.21"/><polygon class="cls-2" points="469.98 362.4 469.98 362.4 457.78 341.21 449.47 341.21 469.98 376.64 469.98 362.4"/><polygon class="cls-2" points="469.98 341.21 465.92 341.21 469.98 348.16 469.98 341.21"/><polygon class="cls-2" points="216.71 334.09 220.78 327.14 266.21 405.8 262.14 412.75 216.71 334.09"/><polygon class="cls-2" points="224.85 320.19 228.75 313.07 274.18 391.73 270.11 398.68 224.85 320.19"/><polygon class="cls-2" points="232.81 306.12 236.88 299.17 282.32 377.83 278.25 384.78 232.81 306.12"/><polygon class="cls-2" points="240.95 292.22 245.02 285.1 290.29 363.76 286.39 370.71 240.95 292.22"/><polygon class="cls-2" points="249.09 278.15 252.99 271.2 298.42 349.69 294.35 356.81 249.09 278.15"/><polygon class="cls-2" points="257.06 264.08 261.13 257.13 306.56 335.79 302.49 342.74 257.06 264.08"/><polygon class="cls-2" points="265.19 250.18 269.26 243.22 314.53 321.72 310.63 328.84 265.19 250.18"/><text class="cls-3" transform="translate(0 765.28) scale(1 1.12)">BANK</text><polygon class="cls-1" points="499.14 600.14 486.27 628.2 473.43 600.14 449.54 600.14 449.54 643.36 462.53 643.36 462.21 611 464.53 611 480.83 643.36 491.76 643.36 508.07 611 510.22 611 509.91 643.36 522.89 643.36 522.89 600.14 499.14 600.14"/><rect class="cls-1" x="426.48" y="600.14" width="13.84" height="43.22"/><rect class="cls-1" x="340.84" y="600.14" width="13.84" height="43.22"/><polygon class="cls-1" points="307.86 600.14 295 628.2 282.14 600.14 258.26 600.14 258.26 643.36 271.25 643.36 270.93 611 273.25 611 289.55 643.36 300.48 643.36 316.79 611 318.94 611 318.63 643.36 331.61 643.36 331.61 600.14 307.86 600.14"/><polygon class="cls-1" points="201.16 600.14 201.16 643.36 249.29 643.36 249.29 632.98 214.14 632.98 214.14 626.05 247.27 626.05 247.27 616.55 214.14 616.55 214.14 610.3 249.04 610.3 249.04 600.14 201.16 600.14"/><polygon class="cls-1" points="27.47 600.14 27.47 611.16 46.72 611.16 46.72 643.36 60.55 643.36 60.55 611.16 79.78 611.16 79.78 600.14 27.47 600.14"/><rect class="cls-1" x="8.09" y="600.14" width="13.84" height="43.22"/><path class="cls-4" d="M363.89,643.36V600.14h31.84q11.2,0,13.42.24a10,10,0,0,1,4.29,1.47,7.65,7.65,0,0,1,3.38,4.1,26.9,26.9,0,0,1,.92,8.22,29.57,29.57,0,0,1-.59,6.93,6.58,6.58,0,0,1-2.2,3.54,10.87,10.87,0,0,1-5.26,2c2.77.21,4.75,1,6,2.38a6.12,6.12,0,0,1,1.33,3,61.1,61.1,0,0,1,.28,7.37v4h-13v-2.31a33.59,33.59,0,0,0-.27-5.14,4.9,4.9,0,0,0-1-2.37,3.52,3.52,0,0,0-2-1,42.08,42.08,0,0,0-5.37-.21H377.07v11Zm13.18-21.79H395.6c3.23-.06,5.16-.11,5.78-.17a3.36,3.36,0,0,0,1.6-.5,2.85,2.85,0,0,0,1.2-1.58,11.26,11.26,0,0,0,.35-3.23,9.35,9.35,0,0,0-.4-3.16,2.6,2.6,0,0,0-1.38-1.51,4.66,4.66,0,0,0-1.66-.39c-.64,0-2.49-.07-5.52-.09h-18.5Z"/><path class="cls-4" d="M142.33,643.36V600.14H172a110.07,110.07,0,0,1,11.32.35c4.3.57,7.19,1.94,8.71,4.12s2.26,6.09,2.26,11.71q0,8-1.87,11.24a8.31,8.31,0,0,1-3.55,3.32,18.78,18.78,0,0,1-6.24,1.59c-1.88.2-5.38.31-10.51.31H155.51v10.58ZM155.51,622H172c3,0,4.83-.06,5.5-.13a4.66,4.66,0,0,0,1.78-.5,2.9,2.9,0,0,0,1.4-1.62,11.43,11.43,0,0,0,.38-3.41,8.88,8.88,0,0,0-.48-3.39,2.88,2.88,0,0,0-1.67-1.55q-.9-.35-6.91-.44H155.51Z"/><path class="cls-4" d="M123.92,643.36l-3.71-7.31H91.62l-3.71,7.31h-15l22.92-43.22h20.47l22.61,43.22Zm-8.32-16.78-8.34-16.37h-2.62L96.3,626.58Z"/></g></svg>