<svg xmlns="http://www.w3.org/2000/svg" viewBox="0 0 340.16 453.6"><defs><style>.cls-1{font-size:18.41px;font-family:MicrogrammaD-BoldExte, Microgramma D Extended;font-weight:700;letter-spacing:0.28em;}.cls-1,.cls-2,.cls-3{fill:#3d3935;}.cls-3,.cls-5{fill-rule:evenodd;}.cls-4{fill:none;}.cls-5{fill:#c79311;}</style></defs><g id="Layer_2" data-name="Layer 2"><text class="cls-1" transform="translate(1.1 448.37)">BANK</text><polygon class="cls-2" points="323.16 393.57 314.75 411.92 306.35 393.57 290.73 393.57 290.73 421.84 299.22 421.84 299.02 400.68 300.53 400.68 311.19 421.84 318.33 421.84 329 400.68 330.41 400.68 330.2 421.84 338.69 421.84 338.69 393.57 323.16 393.57"/><rect class="cls-2" x="275.66" y="393.57" width="9.05" height="28.26"/><rect class="cls-2" x="219.65" y="393.57" width="9.05" height="28.26"/><polygon class="cls-2" points="198.09 393.57 189.68 411.92 181.28 393.57 165.66 393.57 165.66 421.84 174.15 421.84 173.95 400.68 175.46 400.68 186.12 421.84 193.27 421.84 203.93 400.68 205.34 400.68 205.13 421.84 213.62 421.84 213.62 393.57 198.09 393.57"/><polygon class="cls-2" points="128.32 393.57 128.32 421.84 159.8 421.84 159.8 415.05 136.81 415.05 136.81 410.52 158.47 410.52 158.47 404.3 136.81 404.3 136.81 400.22 159.63 400.22 159.63 393.57 128.32 393.57"/><polygon class="cls-2" points="14.76 393.57 14.76 400.78 27.35 400.78 27.35 421.84 36.39 421.84 36.39 400.78 48.97 400.78 48.97 393.57 14.76 393.57"/><rect class="cls-2" x="2.09" y="393.57" width="9.05" height="28.26"/><path class="cls-3" d="M234.73,421.84V393.58h20.82q7.32,0,8.77.15a6.46,6.46,0,0,1,2.8,1,5,5,0,0,1,2.22,2.69,17.49,17.49,0,0,1,.6,5.37,19,19,0,0,1-.39,4.53,4.28,4.28,0,0,1-1.44,2.32,7,7,0,0,1-3.43,1.28,5.53,5.53,0,0,1,3.89,1.56,3.92,3.92,0,0,1,.87,1.95,38.9,38.9,0,0,1,.19,4.82v2.63h-8.49v-1.51A21.68,21.68,0,0,0,261,417a3.13,3.13,0,0,0-.65-1.55,2.41,2.41,0,0,0-1.32-.63,28.31,28.31,0,0,0-3.51-.13H243.35v7.19Zm8.62-14.25h12.11c2.11,0,3.37-.08,3.78-.11a2.28,2.28,0,0,0,1.05-.33,1.85,1.85,0,0,0,.78-1,7.23,7.23,0,0,0,.23-2.1,6.31,6.31,0,0,0-.26-2.07,1.69,1.69,0,0,0-.9-1,3.12,3.12,0,0,0-1.09-.25c-.41,0-1.62-.05-3.61-.06H243.35Z"/><path class="cls-3" d="M89.86,421.84V393.57h19.37a72,72,0,0,1,7.4.23c2.81.38,4.7,1.27,5.69,2.7s1.48,4,1.48,7.66c0,3.49-.41,5.93-1.22,7.35a5.44,5.44,0,0,1-2.32,2.16,12,12,0,0,1-4.08,1q-1.84.21-6.88.21H98.48v6.92Zm8.62-14h10.76c2,0,3.16,0,3.6-.09a3.07,3.07,0,0,0,1.16-.33,1.89,1.89,0,0,0,.92-1.06,7.56,7.56,0,0,0,.24-2.22,5.81,5.81,0,0,0-.31-2.22,1.85,1.85,0,0,0-1.09-1,23.48,23.48,0,0,0-4.52-.29H98.48Z"/><path class="cls-3" d="M77.82,421.84l-2.42-4.79H56.7l-2.42,4.79H44.44l15-28.27H72.81L87.6,421.84Zm-5.44-11-5.45-10.7H65.21l-5.45,10.7Z"/><rect class="cls-4" width="340.16" height="344.05"/><polygon class="cls-5" points="224.72 137.6 195.04 86.24 189.59 86.24 219.27 137.6 224.72 137.6"/><polygon class="cls-5" points="213.94 137.6 184.25 86.24 178.81 86.24 208.49 137.6 213.94 137.6"/><polygon class="cls-5" points="203.04 137.6 173.36 86.24 167.91 86.24 197.59 137.6 203.04 137.6"/><polygon class="cls-5" points="192.26 137.6 162.57 86.24 157.13 86.24 186.81 137.6 192.26 137.6"/><polygon class="cls-5" points="181.36 137.6 151.68 86.24 146.23 86.24 175.91 137.6 181.36 137.6"/><polygon class="cls-5" points="170.58 137.6 140.9 86.24 135.45 86.24 165.13 137.6 170.58 137.6"/><polygon class="cls-5" points="304.1 275.23 234.72 154.83 229.28 154.83 298.65 275.23 304.1 275.23"/><polygon class="cls-5" points="293.31 275.23 223.83 154.83 218.49 154.83 287.87 275.23 293.31 275.23"/><polygon class="cls-5" points="282.42 275.23 213.05 154.83 207.6 154.83 276.97 275.23 282.42 275.23"/><polygon class="cls-5" points="271.63 275.23 202.15 154.83 196.81 154.83 266.19 275.23 271.63 275.23"/><polygon class="cls-5" points="260.74 275.23 191.37 154.83 185.92 154.83 255.29 275.23 260.74 275.23"/><polygon class="cls-5" points="249.96 275.23 180.58 154.83 175.14 154.83 244.51 275.23 249.96 275.23"/><polygon class="cls-5" points="165.02 275.23 95.65 154.83 90.2 154.83 159.57 275.23 165.02 275.23"/><polygon class="cls-5" points="154.24 275.23 84.75 154.83 79.42 154.83 148.79 275.23 154.24 275.23"/><polygon class="cls-5" points="143.34 275.23 73.97 154.83 68.52 154.83 137.9 275.23 143.34 275.23"/><polygon class="cls-5" points="132.56 275.23 63.08 154.83 57.74 154.83 127.11 275.23 132.56 275.23"/><polygon class="cls-5" points="121.66 275.23 52.29 154.83 46.84 154.83 116.22 275.23 121.66 275.23"/><polygon class="cls-5" points="110.88 275.23 41.51 154.83 36.06 154.83 105.43 275.23 110.88 275.23"/><polygon class="cls-5" points="60.41 206.41 36.06 163.84 36.06 173.51 54.96 206.41 60.41 206.41"/><polygon class="cls-5" points="36.06 192.52 36.06 192.52 44.07 206.41 49.51 206.41 36.06 183.18 36.06 192.52"/><polygon class="cls-5" points="36.06 206.41 38.73 206.41 36.06 201.86 36.06 206.41"/><polygon class="cls-5" points="279.75 223.76 304.1 266.22 304.1 256.66 285.2 223.76 279.75 223.76"/><polygon class="cls-5" points="304.1 237.65 304.1 237.65 296.09 223.76 290.64 223.76 304.1 246.99 304.1 237.65"/><polygon class="cls-5" points="304.1 223.76 301.43 223.76 304.1 228.31 304.1 223.76"/><polygon class="cls-5" points="138 219.09 140.67 214.53 170.47 266.11 167.8 270.67 138 219.09"/><polygon class="cls-5" points="143.34 209.97 145.9 205.3 175.69 256.89 173.03 261.44 143.34 209.97"/><polygon class="cls-5" points="148.57 200.75 151.24 196.19 181.03 247.77 178.36 252.33 148.57 200.75"/><polygon class="cls-5" points="153.9 191.63 156.57 186.96 186.25 238.54 183.7 243.1 153.9 191.63"/><polygon class="cls-5" points="159.24 182.4 161.8 177.84 191.59 229.32 188.92 233.99 159.24 182.4"/><polygon class="cls-5" points="164.47 173.17 167.13 168.62 196.93 220.2 194.26 224.76 164.47 173.17"/><polygon class="cls-5" points="169.8 164.06 172.47 159.5 202.15 210.97 199.59 215.64 169.8 164.06"/></g></svg>