<svg xmlns="http://www.w3.org/2000/svg" viewBox="0 0 171.54 314.92"><defs><style>.cls-1{font-size:9.27px;font-family:MicrogrammaD-BoldExte, Microgramma D Extended;font-weight:700;letter-spacing:0.28em;}.cls-1,.cls-2,.cls-3{fill:#3d3935;}.cls-3,.cls-5{fill-rule:evenodd;}.cls-4{fill:#ffdd06;}.cls-5{fill:#c79311;}</style></defs><g id="Layer_2" data-name="Layer 2"><text class="cls-1" transform="translate(0 312.29)">BANK</text><polygon class="cls-2" points="162.25 284.68 158.02 293.92 153.78 284.68 145.92 284.68 145.92 298.92 150.19 298.92 150.09 288.26 150.85 288.26 156.22 298.92 159.82 298.92 165.2 288.26 165.91 288.26 165.8 298.92 170.08 298.92 170.08 284.68 162.25 284.68"/><rect class="cls-2" x="138.32" y="284.68" width="4.56" height="14.24"/><rect class="cls-2" x="110.11" y="284.68" width="4.56" height="14.24"/><polygon class="cls-2" points="99.25 284.68 95.01 293.92 90.77 284.68 82.91 284.68 82.91 298.92 87.18 298.92 87.08 288.26 87.84 288.26 93.21 298.92 96.81 298.92 102.19 288.26 102.89 288.26 102.79 298.92 107.07 298.92 107.07 284.68 99.25 284.68"/><polygon class="cls-2" points="64.09 284.68 64.09 298.92 79.95 298.92 79.95 295.5 68.37 295.5 68.37 293.21 79.28 293.21 79.28 290.08 68.37 290.08 68.37 288.02 79.87 288.02 79.87 284.68 64.09 284.68"/><polygon class="cls-2" points="6.88 284.68 6.88 288.31 13.22 288.31 13.22 298.92 17.78 298.92 17.78 288.31 24.11 288.31 24.11 284.68 6.88 284.68"/><rect class="cls-2" x="0.5" y="284.68" width="4.56" height="14.24"/><path class="cls-3" d="M117.7,298.92V284.68h10.49c2.46,0,3.93,0,4.42.08a3.12,3.12,0,0,1,1.41.48,2.59,2.59,0,0,1,1.12,1.35,9,9,0,0,1,.3,2.71,9.68,9.68,0,0,1-.19,2.28,2.16,2.16,0,0,1-.73,1.17,3.62,3.62,0,0,1-1.73.65,2.8,2.8,0,0,1,2,.78,2,2,0,0,1,.44,1,20.22,20.22,0,0,1,.09,2.43v1.33H131v-.76a11,11,0,0,0-.09-1.7,1.56,1.56,0,0,0-.33-.78,1.21,1.21,0,0,0-.66-.32,16,16,0,0,0-1.77-.06H122v3.62Zm4.34-7.18h6.11c1.06,0,1.7,0,1.9-.06a1.22,1.22,0,0,0,.53-.16A.94.94,0,0,0,131,291a3.56,3.56,0,0,0,.12-1.07,3.06,3.06,0,0,0-.13-1,.9.9,0,0,0-.46-.5,1.43,1.43,0,0,0-.54-.12c-.21,0-.82,0-1.82,0H122Z"/><path class="cls-3" d="M44.72,298.92V284.68h9.75c1.93,0,3.18,0,3.73.11a3.94,3.94,0,0,1,2.87,1.36,7.17,7.17,0,0,1,.75,3.86,7.93,7.93,0,0,1-.62,3.7A2.74,2.74,0,0,1,60,294.8a6,6,0,0,1-2.05.53c-.62.07-1.78.1-3.47.1H49.06v3.49Zm4.34-7.05h5.42c1,0,1.59,0,1.81,0a1.4,1.4,0,0,0,.59-.17.93.93,0,0,0,.46-.53,3.86,3.86,0,0,0,.12-1.12,3.09,3.09,0,0,0-.15-1.12,1,1,0,0,0-.55-.51,12.74,12.74,0,0,0-2.28-.14H49.06Z"/><path class="cls-3" d="M38.65,298.92l-1.22-2.41H28l-1.22,2.41h-5l7.56-14.24h6.74l7.45,14.24Zm-2.74-5.53L33.17,288H32.3l-2.75,5.39Z"/><rect class="cls-4" x="0.16" width="171.37" height="259.72"/><polygon class="cls-5" points="113.38 155.72 98.42 129.84 95.68 129.84 110.63 155.72 113.38 155.72"/><polygon class="cls-5" points="107.94 155.72 92.99 129.84 90.25 129.84 105.2 155.72 107.94 155.72"/><polygon class="cls-5" points="102.46 155.72 87.5 129.84 84.76 129.84 99.71 155.72 102.46 155.72"/><polygon class="cls-5" points="97.02 155.72 82.07 129.84 79.32 129.84 94.28 155.72 97.02 155.72"/><polygon class="cls-5" points="91.53 155.72 76.58 129.84 73.84 129.84 88.79 155.72 91.53 155.72"/><polygon class="cls-5" points="86.1 155.72 71.15 129.84 68.4 129.84 83.36 155.72 86.1 155.72"/><polygon class="cls-5" points="153.37 225.06 118.42 164.4 115.67 164.4 150.62 225.06 153.37 225.06"/><polygon class="cls-5" points="147.94 225.06 112.93 164.4 110.24 164.4 145.19 225.06 147.94 225.06"/><polygon class="cls-5" points="142.45 225.06 107.5 164.4 104.75 164.4 139.7 225.06 142.45 225.06"/><polygon class="cls-5" points="137.01 225.06 102.01 164.4 99.32 164.4 134.27 225.06 137.01 225.06"/><polygon class="cls-5" points="131.53 225.06 96.58 164.4 93.83 164.4 128.78 225.06 131.53 225.06"/><polygon class="cls-5" points="126.09 225.06 91.14 164.4 88.4 164.4 123.35 225.06 126.09 225.06"/><polygon class="cls-5" points="83.3 225.06 48.35 164.4 45.61 164.4 80.56 225.06 83.3 225.06"/><polygon class="cls-5" points="77.87 225.06 42.86 164.4 40.17 164.4 75.12 225.06 77.87 225.06"/><polygon class="cls-5" points="72.38 225.06 37.43 164.4 34.69 164.4 69.64 225.06 72.38 225.06"/><polygon class="cls-5" points="66.95 225.06 31.94 164.4 29.25 164.4 64.2 225.06 66.95 225.06"/><polygon class="cls-5" points="61.46 225.06 26.51 164.4 23.76 164.4 58.71 225.06 61.46 225.06"/><polygon class="cls-5" points="56.02 225.06 21.08 164.4 18.33 164.4 53.28 225.06 56.02 225.06"/><polygon class="cls-5" points="30.6 190.38 18.33 168.93 18.33 173.81 27.85 190.38 30.6 190.38"/><polygon class="cls-5" points="18.33 183.38 18.33 183.38 22.36 190.38 25.11 190.38 18.33 178.68 18.33 183.38"/><polygon class="cls-5" points="18.33 190.38 19.68 190.38 18.33 188.09 18.33 190.38"/><polygon class="cls-5" points="141.1 199.12 153.37 220.52 153.37 215.7 143.85 199.12 141.1 199.12"/><polygon class="cls-5" points="153.37 206.12 153.37 206.12 149.34 199.12 146.59 199.12 153.37 210.83 153.37 206.12"/><polygon class="cls-5" points="153.37 199.12 152.02 199.12 153.37 201.42 153.37 199.12"/><polygon class="cls-5" points="69.69 196.77 71.03 194.47 86.05 220.46 84.7 222.76 69.69 196.77"/><polygon class="cls-5" points="72.38 192.18 73.67 189.82 88.68 215.81 87.33 218.11 72.38 192.18"/><polygon class="cls-5" points="75.01 187.53 76.36 185.23 91.37 211.22 90.02 213.52 75.01 187.53"/><polygon class="cls-5" points="77.7 182.94 79.05 180.58 94 206.57 92.71 208.87 77.7 182.94"/><polygon class="cls-5" points="80.39 178.29 81.68 175.99 96.69 201.92 95.34 204.28 80.39 178.29"/><polygon class="cls-5" points="83.02 173.64 84.37 171.34 99.38 197.33 98.03 199.63 83.02 173.64"/><polygon class="cls-5" points="85.71 169.05 87.05 166.75 102.01 192.68 100.72 195.03 85.71 169.05"/></g></svg>