<svg xmlns="http://www.w3.org/2000/svg" viewBox="0 0 342.99 629.69"><defs><style>.cls-1{font-size:18.54px;font-family:MicrogrammaD-BoldExte, Microgramma D Extended;font-weight:700;letter-spacing:0.28em;}.cls-1,.cls-2,.cls-3{fill:#3d3935;}.cls-3,.cls-5{fill-rule:evenodd;}.cls-4{fill:#ffdd06;}.cls-5{fill:#c79311;}</style></defs><g id="Layer_2" data-name="Layer 2"><text class="cls-1" transform="translate(0 624.43)">BANK</text><polygon class="cls-2" points="324.43 569.22 315.96 587.71 307.5 569.22 291.77 569.22 291.77 597.69 300.32 597.69 300.11 576.38 301.64 576.38 312.37 597.69 319.57 597.69 330.31 576.38 331.73 576.38 331.53 597.69 340.08 597.69 340.08 569.22 324.43 569.22"/><rect class="cls-2" x="276.58" y="569.22" width="9.11" height="28.47"/><rect class="cls-2" x="220.16" y="569.22" width="9.11" height="28.47"/><polygon class="cls-2" points="198.44 569.22 189.97 587.71 181.5 569.22 165.77 569.22 165.77 597.69 174.33 597.69 174.12 576.38 175.65 576.38 186.38 597.69 193.58 597.69 204.32 576.38 205.74 576.38 205.53 597.69 214.09 597.69 214.09 569.22 198.44 569.22"/><polygon class="cls-2" points="128.16 569.22 128.16 597.69 159.87 597.69 159.87 590.85 136.71 590.85 136.71 586.29 158.53 586.29 158.53 580.03 136.71 580.03 136.71 575.92 159.7 575.92 159.7 569.22 128.16 569.22"/><polygon class="cls-2" points="13.76 569.22 13.76 576.49 26.44 576.49 26.44 597.69 35.55 597.69 35.55 576.49 48.22 576.49 48.22 569.22 13.76 569.22"/><rect class="cls-2" x="0.99" y="569.22" width="9.12" height="28.47"/><path class="cls-3" d="M235.35,597.69V569.22h21q7.38,0,8.84.16a6.39,6.39,0,0,1,2.82,1,5,5,0,0,1,2.23,2.7,17.4,17.4,0,0,1,.61,5.41,19.34,19.34,0,0,1-.39,4.57,4.32,4.32,0,0,1-1.45,2.33,7.14,7.14,0,0,1-3.46,1.3,5.61,5.61,0,0,1,3.92,1.56,4,4,0,0,1,.88,2,40.33,40.33,0,0,1,.18,4.86v2.64H262v-1.52a22,22,0,0,0-.18-3.39,3.21,3.21,0,0,0-.65-1.56,2.28,2.28,0,0,0-1.33-.63,28.08,28.08,0,0,0-3.54-.14H244v7.24ZM244,583.34h12.2c2.13,0,3.4-.08,3.81-.11a2.33,2.33,0,0,0,1.06-.33,1.9,1.9,0,0,0,.79-1,7.39,7.39,0,0,0,.23-2.12,6.07,6.07,0,0,0-.27-2.08,1.74,1.74,0,0,0-.9-1,3.18,3.18,0,0,0-1.1-.25c-.42,0-1.64,0-3.64-.06H244Z"/><path class="cls-3" d="M89.41,597.69V569.22h19.51a73.16,73.16,0,0,1,7.46.23c2.83.38,4.74,1.28,5.73,2.72s1.49,4,1.49,7.71c0,3.52-.41,6-1.23,7.41a5.51,5.51,0,0,1-2.33,2.18,12.47,12.47,0,0,1-4.11,1q-1.86.19-6.93.2H98.09v7Zm8.68-14.08h10.84c2,0,3.19,0,3.63-.08a3.13,3.13,0,0,0,1.17-.34,1.84,1.84,0,0,0,.92-1.07,7.27,7.27,0,0,0,.25-2.24,5.84,5.84,0,0,0-.31-2.23,1.93,1.93,0,0,0-1.11-1,23.65,23.65,0,0,0-4.55-.29H98.09Z"/><path class="cls-3" d="M77.29,597.69l-2.45-4.82H56l-2.44,4.82H43.66l15.1-28.47H72.24l14.89,28.47ZM71.8,586.64l-5.49-10.78H64.58l-5.49,10.78Z"/><rect class="cls-4" x="0.33" width="342.67" height="519.33"/><polygon class="cls-5" points="226.7 311.36 196.8 259.62 191.31 259.62 221.22 311.36 226.7 311.36"/><polygon class="cls-5" points="215.84 311.36 185.94 259.62 180.45 259.62 210.35 311.36 215.84 311.36"/><polygon class="cls-5" points="204.86 311.36 174.96 259.62 169.47 259.62 199.38 311.36 204.86 311.36"/><polygon class="cls-5" points="194 311.36 164.1 259.62 158.61 259.62 188.51 311.36 194 311.36"/><polygon class="cls-5" points="183.03 311.36 153.12 259.62 147.64 259.62 177.54 311.36 183.03 311.36"/><polygon class="cls-5" points="172.16 311.36 142.26 259.62 136.77 259.62 166.68 311.36 172.16 311.36"/><polygon class="cls-5" points="306.66 450.01 236.78 328.72 231.29 328.72 301.18 450.01 306.66 450.01"/><polygon class="cls-5" points="295.8 450.01 225.81 328.72 220.43 328.72 290.31 450.01 295.8 450.01"/><polygon class="cls-5" points="284.83 450.01 214.94 328.72 209.46 328.72 279.34 450.01 284.83 450.01"/><polygon class="cls-5" points="273.96 450.01 203.97 328.72 198.59 328.72 268.48 450.01 273.96 450.01"/><polygon class="cls-5" points="262.99 450.01 193.11 328.72 187.62 328.72 257.5 450.01 262.99 450.01"/><polygon class="cls-5" points="252.12 450.01 182.24 328.72 176.75 328.72 246.64 450.01 252.12 450.01"/><polygon class="cls-5" points="166.56 450.01 96.68 328.72 91.19 328.72 161.08 450.01 166.56 450.01"/><polygon class="cls-5" points="155.7 450.01 85.71 328.72 80.33 328.72 150.21 450.01 155.7 450.01"/><polygon class="cls-5" points="144.72 450.01 74.84 328.72 69.36 328.72 139.24 450.01 144.72 450.01"/><polygon class="cls-5" points="133.86 450.01 63.87 328.72 58.49 328.72 128.37 450.01 133.86 450.01"/><polygon class="cls-5" points="122.89 450.01 53 328.72 47.52 328.72 117.4 450.01 122.89 450.01"/><polygon class="cls-5" points="112.02 450.01 42.14 328.72 36.65 328.72 106.54 450.01 112.02 450.01"/><polygon class="cls-5" points="61.18 380.68 36.65 337.79 36.65 347.53 55.69 380.68 61.18 380.68"/><polygon class="cls-5" points="36.65 366.68 36.65 366.68 44.72 380.68 50.2 380.68 36.65 357.28 36.65 366.68"/><polygon class="cls-5" points="36.65 380.68 39.34 380.68 36.65 376.09 36.65 380.68"/><polygon class="cls-5" points="282.14 398.15 306.66 440.93 306.66 431.3 287.63 398.15 282.14 398.15"/><polygon class="cls-5" points="306.66 412.15 306.66 412.15 298.6 398.15 293.11 398.15 306.66 421.56 306.66 412.15"/><polygon class="cls-5" points="306.66 398.15 303.98 398.15 306.66 402.75 306.66 398.15"/><polygon class="cls-5" points="139.35 393.45 142.04 388.86 172.05 440.82 169.36 445.41 139.35 393.45"/><polygon class="cls-5" points="144.72 384.27 147.3 379.56 177.31 431.53 174.63 436.12 144.72 384.27"/><polygon class="cls-5" points="149.99 374.97 152.68 370.38 182.69 422.34 180 426.94 149.99 374.97"/><polygon class="cls-5" points="155.37 365.79 158.05 361.08 187.95 413.05 185.38 417.64 155.37 365.79"/><polygon class="cls-5" points="160.74 356.49 163.32 351.9 193.33 403.75 190.64 408.46 160.74 356.49"/><polygon class="cls-5" points="166 347.2 168.69 342.61 198.71 394.57 196.02 399.16 166 347.2"/><polygon class="cls-5" points="171.38 338.01 174.07 333.42 203.97 385.27 201.39 389.98 171.38 338.01"/></g></svg>