<svg xmlns="http://www.w3.org/2000/svg" viewBox="0 0 550.2 792.67"><defs><style>.cls-1{fill:#ffdd06;}.cls-2{fill:#c79311;}.cls-2,.cls-5{fill-rule:evenodd;}.cls-3{font-size:109.41px;fill:#ecbe02;font-family:MicrogrammaD-BoldExte, Microgramma D Extended;font-weight:700;letter-spacing:0.29em;}.cls-4,.cls-5{fill:#3d3935;}</style></defs><g id="Layer_2" data-name="Layer 2"><rect class="cls-1" x="6.2" width="513.69" height="519.56"/><polygon class="cls-2" points="345.56 207.79 300.74 130.23 292.51 130.23 337.33 207.79 345.56 207.79"/><polygon class="cls-2" points="329.27 207.79 284.45 130.23 276.22 130.23 321.05 207.79 329.27 207.79"/><polygon class="cls-2" points="312.82 207.79 268 130.23 259.77 130.23 304.6 207.79 312.82 207.79"/><polygon class="cls-2" points="296.54 207.79 251.71 130.23 243.49 130.23 288.31 207.79 296.54 207.79"/><polygon class="cls-2" points="280.08 207.79 235.26 130.23 227.03 130.23 271.86 207.79 280.08 207.79"/><polygon class="cls-2" points="263.8 207.79 218.97 130.23 210.75 130.23 255.57 207.79 263.8 207.79"/><polygon class="cls-2" points="465.43 415.64 360.67 233.82 352.44 233.82 457.2 415.64 465.43 415.64"/><polygon class="cls-2" points="449.14 415.64 344.22 233.82 336.16 233.82 440.92 415.64 449.14 415.64"/><polygon class="cls-2" points="432.69 415.64 327.93 233.82 319.71 233.82 424.47 415.64 432.69 415.64"/><polygon class="cls-2" points="416.41 415.64 311.48 233.82 303.42 233.82 408.18 415.64 416.41 415.64"/><polygon class="cls-2" points="399.95 415.64 295.19 233.82 286.97 233.82 391.73 415.64 399.95 415.64"/><polygon class="cls-2" points="383.67 415.64 278.91 233.82 270.68 233.82 375.44 415.64 383.67 415.64"/><polygon class="cls-2" points="255.41 415.64 150.65 233.82 142.42 233.82 247.18 415.64 255.41 415.64"/><polygon class="cls-2" points="239.12 415.64 134.19 233.82 126.14 233.82 230.9 415.64 239.12 415.64"/><polygon class="cls-2" points="222.67 415.64 117.91 233.82 109.68 233.82 214.44 415.64 222.67 415.64"/><polygon class="cls-2" points="206.38 415.64 101.46 233.82 93.4 233.82 198.16 415.64 206.38 415.64"/><polygon class="cls-2" points="189.93 415.64 85.17 233.82 76.94 233.82 181.7 415.64 189.93 415.64"/><polygon class="cls-2" points="173.65 415.64 68.89 233.82 60.66 233.82 165.42 415.64 173.65 415.64"/><polygon class="cls-2" points="97.43 311.71 60.66 247.41 60.66 262.02 89.2 311.71 97.43 311.71"/><polygon class="cls-2" points="60.66 290.73 60.66 290.73 72.75 311.71 80.97 311.71 60.66 276.63 60.66 290.73"/><polygon class="cls-2" points="60.66 311.71 64.69 311.71 60.66 304.83 60.66 311.71"/><polygon class="cls-2" points="428.66 337.9 465.43 402.04 465.43 387.6 436.89 337.9 428.66 337.9"/><polygon class="cls-2" points="465.43 358.89 465.43 358.89 453.34 337.9 445.12 337.9 465.43 372.99 465.43 358.89"/><polygon class="cls-2" points="465.43 337.9 461.4 337.9 465.43 344.79 465.43 337.9"/><polygon class="cls-2" points="214.61 330.85 218.64 323.97 263.63 401.87 259.6 408.75 214.61 330.85"/><polygon class="cls-2" points="222.67 317.09 226.53 310.04 271.52 387.93 267.49 394.82 222.67 317.09"/><polygon class="cls-2" points="230.56 303.15 234.59 296.27 279.58 374.17 275.55 381.05 230.56 303.15"/><polygon class="cls-2" points="238.62 289.39 242.65 282.33 287.47 360.23 283.61 367.12 238.62 289.39"/><polygon class="cls-2" points="246.68 275.45 250.54 268.57 295.53 346.3 291.5 353.35 246.68 275.45"/><polygon class="cls-2" points="254.57 261.52 258.6 254.63 303.59 332.53 299.56 339.42 254.57 261.52"/><polygon class="cls-2" points="262.63 247.75 266.65 240.87 311.48 318.6 307.62 325.65 262.63 247.75"/><text class="cls-3" transform="translate(0 757.87) scale(1 1.12)">BANK</text><polygon class="cls-4" points="494.3 594.32 481.56 622.11 468.84 594.32 445.19 594.32 445.19 637.13 458.04 637.13 457.73 605.08 460.02 605.08 476.17 637.13 486.99 637.13 503.14 605.08 505.27 605.08 504.96 637.13 517.82 637.13 517.82 594.32 494.3 594.32"/><rect class="cls-4" x="422.35" y="594.32" width="13.7" height="42.8"/><rect class="cls-4" x="337.53" y="594.32" width="13.7" height="42.8"/><polygon class="cls-4" points="304.88 594.32 292.14 622.11 279.41 594.32 255.76 594.32 255.76 637.13 268.62 637.13 268.31 605.08 270.6 605.08 286.74 637.13 297.57 637.13 313.72 605.08 315.85 605.08 315.54 637.13 328.39 637.13 328.39 594.32 304.88 594.32"/><polygon class="cls-4" points="199.21 594.32 199.21 637.13 246.88 637.13 246.88 626.84 212.06 626.84 212.06 619.98 244.87 619.98 244.87 610.57 212.06 610.57 212.06 604.38 246.63 604.38 246.63 594.32 199.21 594.32"/><polygon class="cls-4" points="27.2 594.32 27.2 605.24 46.27 605.24 46.27 637.13 59.97 637.13 59.97 605.24 79.01 605.24 79.01 594.32 27.2 594.32"/><rect class="cls-4" x="8.02" y="594.32" width="13.7" height="42.8"/><path class="cls-5" d="M360.37,637.13V594.32h31.52q11.1,0,13.3.24a9.85,9.85,0,0,1,4.24,1.45,7.56,7.56,0,0,1,3.35,4.07,26.41,26.41,0,0,1,.91,8.14,29.18,29.18,0,0,1-.58,6.86,6.54,6.54,0,0,1-2.18,3.51,10.81,10.81,0,0,1-5.21,1.95c2.75.2,4.7,1,5.9,2.35a6,6,0,0,1,1.32,3,59.69,59.69,0,0,1,.28,7.29v4H400.36v-2.29a33.16,33.16,0,0,0-.27-5.1,4.69,4.69,0,0,0-1-2.34,3.47,3.47,0,0,0-2-1,44.34,44.34,0,0,0-5.32-.2H373.42v10.89Zm13.05-21.58h18.34c3.21-.07,5.11-.12,5.73-.17a3.59,3.59,0,0,0,1.59-.5,2.84,2.84,0,0,0,1.18-1.57,11,11,0,0,0,.35-3.19,9.25,9.25,0,0,0-.4-3.14,2.59,2.59,0,0,0-1.36-1.49,4.41,4.41,0,0,0-1.65-.38c-.63,0-2.46-.07-5.47-.1H373.42Z"/><path class="cls-5" d="M141,637.13V594.32h29.33c5.8,0,9.55.12,11.22.34q6.38.86,8.62,4.09t2.23,11.6c0,5.28-.62,9-1.85,11.13a8.18,8.18,0,0,1-3.51,3.28,18.72,18.72,0,0,1-6.18,1.58c-1.86.2-5.33.31-10.41.31H154v10.48ZM154,616h16.3c3,0,4.79-.06,5.45-.13a4.61,4.61,0,0,0,1.77-.5,2.87,2.87,0,0,0,1.38-1.6,11.58,11.58,0,0,0,.37-3.37,9,9,0,0,0-.47-3.37,2.89,2.89,0,0,0-1.66-1.53,36.92,36.92,0,0,0-6.84-.44H154Z"/><path class="cls-5" d="M122.72,637.13l-3.67-7.25H90.73l-3.67,7.25H72.16l22.71-42.81h20.26l22.39,42.81Zm-8.24-16.63-8.26-16.2h-2.6l-8.25,16.2Z"/></g></svg>