<svg xmlns="http://www.w3.org/2000/svg" viewBox="0 0 362.83 522.73"><defs><style>.cls-1,.cls-3,.cls-4{fill:#3d3935;}.cls-2{fill:#fff;}.cls-2,.cls-4{fill-rule:evenodd;}.cls-3{font-size:72.15px;font-family:MicrogrammaD-BoldExte, Microgramma D Extended;font-weight:700;letter-spacing:0.29em;}</style></defs><g id="Layer_2" data-name="Layer 2"><rect class="cls-1" x="4.09" width="338.75" height="342.62"/><polygon class="cls-2" points="227.88 137.03 198.32 85.88 192.9 85.88 222.46 137.03 227.88 137.03"/><polygon class="cls-2" points="217.14 137.03 187.58 85.88 182.16 85.88 211.72 137.03 217.14 137.03"/><polygon class="cls-2" points="206.29 137.03 176.73 85.88 171.31 85.88 200.87 137.03 206.29 137.03"/><polygon class="cls-2" points="195.55 137.03 165.99 85.88 160.57 85.88 190.13 137.03 195.55 137.03"/><polygon class="cls-2" points="184.7 137.03 155.14 85.88 149.72 85.88 179.28 137.03 184.7 137.03"/><polygon class="cls-2" points="173.96 137.03 144.4 85.88 138.98 85.88 168.54 137.03 173.96 137.03"/><polygon class="cls-2" points="306.93 274.09 237.84 154.19 232.42 154.19 301.5 274.09 306.93 274.09"/><polygon class="cls-2" points="296.19 274.09 227 154.19 221.68 154.19 290.76 274.09 296.19 274.09"/><polygon class="cls-2" points="285.34 274.09 216.25 154.19 210.83 154.19 279.92 274.09 285.34 274.09"/><polygon class="cls-2" points="274.6 274.09 205.41 154.19 200.09 154.19 269.18 274.09 274.6 274.09"/><polygon class="cls-2" points="263.75 274.09 194.67 154.19 189.24 154.19 258.33 274.09 263.75 274.09"/><polygon class="cls-2" points="253.01 274.09 183.93 154.19 178.5 154.19 247.59 274.09 253.01 274.09"/><polygon class="cls-2" points="168.43 274.09 99.34 154.19 93.92 154.19 163 274.09 168.43 274.09"/><polygon class="cls-2" points="157.69 274.09 88.49 154.19 83.18 154.19 152.26 274.09 157.69 274.09"/><polygon class="cls-2" points="146.84 274.09 77.75 154.19 72.33 154.19 141.41 274.09 146.84 274.09"/><polygon class="cls-2" points="136.1 274.09 66.91 154.19 61.59 154.19 130.68 274.09 136.1 274.09"/><polygon class="cls-2" points="125.25 274.09 56.17 154.19 50.74 154.19 119.83 274.09 125.25 274.09"/><polygon class="cls-2" points="114.51 274.09 45.43 154.19 40 154.19 109.09 274.09 114.51 274.09"/><polygon class="cls-2" points="64.25 205.56 40 163.16 40 172.79 58.82 205.56 64.25 205.56"/><polygon class="cls-2" points="40 191.72 40 191.72 47.97 205.56 53.4 205.56 40 182.42 40 191.72"/><polygon class="cls-2" points="40 205.56 42.66 205.56 40 201.02 40 205.56"/><polygon class="cls-2" points="282.68 222.83 306.93 265.12 306.93 255.6 288.11 222.83 282.68 222.83"/><polygon class="cls-2" points="306.93 236.67 306.93 236.67 298.96 222.83 293.53 222.83 306.93 245.97 306.93 236.67"/><polygon class="cls-2" points="306.93 222.83 304.27 222.83 306.93 227.37 306.93 222.83"/><polygon class="cls-2" points="141.52 218.18 144.18 213.64 173.85 265.01 171.19 269.55 141.52 218.18"/><polygon class="cls-2" points="146.84 209.1 149.39 204.45 179.06 255.82 176.4 260.36 146.84 209.1"/><polygon class="cls-2" points="152.04 199.91 154.7 195.38 184.37 246.75 181.71 251.28 152.04 199.91"/><polygon class="cls-2" points="157.36 190.84 160.01 186.19 189.57 237.56 187.03 242.1 157.36 190.84"/><polygon class="cls-2" points="162.67 181.65 165.22 177.11 194.89 228.37 192.23 233.02 162.67 181.65"/><polygon class="cls-2" points="167.87 172.46 170.53 167.92 200.2 219.29 197.54 223.83 167.87 172.46"/><polygon class="cls-2" points="173.19 163.38 175.85 158.84 205.41 210.1 202.86 214.75 173.19 163.38"/><text class="cls-3" transform="translate(0 499.78) scale(1 1.12)">BANK</text><polygon class="cls-1" points="325.97 391.93 317.57 410.25 309.18 391.93 293.58 391.93 293.58 420.15 302.06 420.15 301.85 399.02 303.37 399.02 314.01 420.15 321.15 420.15 331.8 399.02 333.2 399.02 333 420.15 341.48 420.15 341.48 391.93 325.97 391.93"/><rect class="cls-1" x="278.52" y="391.93" width="9.04" height="28.23"/><rect class="cls-1" x="222.59" y="391.93" width="9.04" height="28.23"/><polygon class="cls-1" points="201.05 391.93 192.65 410.25 184.26 391.93 168.66 391.93 168.66 420.15 177.14 420.15 176.94 399.02 178.45 399.02 189.09 420.15 196.23 420.15 206.88 399.02 208.29 399.02 208.08 420.15 216.56 420.15 216.56 391.93 201.05 391.93"/><polygon class="cls-1" points="131.37 391.93 131.37 420.15 162.8 420.15 162.8 413.37 139.84 413.37 139.84 408.85 161.48 408.85 161.48 402.64 139.84 402.64 139.84 398.56 162.64 398.56 162.64 391.93 131.37 391.93"/><polygon class="cls-1" points="17.94 391.93 17.94 399.13 30.51 399.13 30.51 420.15 39.54 420.15 39.54 399.13 52.1 399.13 52.1 391.93 17.94 391.93"/><rect class="cls-1" x="5.29" y="391.93" width="9.04" height="28.23"/><path class="cls-4" d="M237.64,420.16V391.93h20.79q7.32,0,8.77.15a6.46,6.46,0,0,1,2.8,1,5.05,5.05,0,0,1,2.21,2.68,17.53,17.53,0,0,1,.6,5.37,19.53,19.53,0,0,1-.38,4.52,4.39,4.39,0,0,1-1.44,2.32,7.06,7.06,0,0,1-3.44,1.28,5.58,5.58,0,0,1,3.9,1.56,3.87,3.87,0,0,1,.86,2,38.81,38.81,0,0,1,.19,4.81v2.63H264v-1.51a21.52,21.52,0,0,0-.18-3.36,3.09,3.09,0,0,0-.65-1.55,2.22,2.22,0,0,0-1.31-.63,28.42,28.42,0,0,0-3.51-.13H246.25v7.18Zm8.61-14.23h12.1c2.11-.05,3.37-.08,3.78-.12a2.28,2.28,0,0,0,1-.32,1.91,1.91,0,0,0,.79-1,7.73,7.73,0,0,0,.22-2.1,6,6,0,0,0-.26-2.07,1.72,1.72,0,0,0-.9-1,3.07,3.07,0,0,0-1.08-.25c-.42,0-1.63-.05-3.61-.06H246.25Z"/><path class="cls-4" d="M93,420.16V391.93h19.34c3.83,0,6.3.08,7.4.22,2.8.38,4.69,1.27,5.68,2.7s1.48,4,1.48,7.64c0,3.49-.41,5.93-1.22,7.35a5.39,5.39,0,0,1-2.32,2.16,12.41,12.41,0,0,1-4.07,1q-1.84.19-6.87.2H101.55v6.92Zm8.6-14h10.76c2,0,3.15,0,3.59-.08a3.07,3.07,0,0,0,1.16-.33,2,2,0,0,0,.92-1.06,7.59,7.59,0,0,0,.24-2.23,5.79,5.79,0,0,0-.31-2.21,1.85,1.85,0,0,0-1.09-1,23.34,23.34,0,0,0-4.51-.29H101.55Z"/><path class="cls-4" d="M80.93,420.16l-2.42-4.78H59.83l-2.42,4.78H47.59l15-28.23H75.92l14.77,28.23Zm-5.44-11-5.44-10.68H68.33l-5.44,10.68Z"/></g></svg>