<svg xmlns="http://www.w3.org/2000/svg" viewBox="0 0 183.56 264.44"><defs><style>.cls-1,.cls-3,.cls-4{fill:#3d3935;}.cls-2{fill:#fff;}.cls-2,.cls-4{fill-rule:evenodd;}.cls-3{font-size:36.5px;font-family:MicrogrammaD-BoldExte, Microgramma D Extended;font-weight:700;letter-spacing:0.29em;}</style></defs><g id="Layer_2" data-name="Layer 2"><rect class="cls-1" x="2.07" width="171.37" height="173.33"/><polygon class="cls-2" points="115.28 69.32 100.33 43.45 97.58 43.45 112.54 69.32 115.28 69.32"/><polygon class="cls-2" points="109.85 69.32 94.9 43.45 92.15 43.45 107.11 69.32 109.85 69.32"/><polygon class="cls-2" points="104.36 69.32 89.41 43.45 86.66 43.45 101.62 69.32 104.36 69.32"/><polygon class="cls-2" points="98.93 69.32 83.97 43.45 81.23 43.45 96.19 69.32 98.93 69.32"/><polygon class="cls-2" points="93.44 69.32 78.49 43.45 75.74 43.45 90.7 69.32 93.44 69.32"/><polygon class="cls-2" points="88.01 69.32 73.05 43.45 70.31 43.45 85.26 69.32 88.01 69.32"/><polygon class="cls-2" points="155.27 138.66 120.33 78 117.58 78 152.53 138.66 155.27 138.66"/><polygon class="cls-2" points="149.84 138.66 114.84 78 112.15 78 147.1 138.66 149.84 138.66"/><polygon class="cls-2" points="144.35 138.66 109.4 78 106.66 78 141.61 138.66 144.35 138.66"/><polygon class="cls-2" points="138.92 138.66 103.91 78 101.22 78 136.18 138.66 138.92 138.66"/><polygon class="cls-2" points="133.43 138.66 98.48 78 95.74 78 130.69 138.66 133.43 138.66"/><polygon class="cls-2" points="128 138.66 93.05 78 90.3 78 125.25 138.66 128 138.66"/><polygon class="cls-2" points="85.21 138.66 50.26 78 47.51 78 82.46 138.66 85.21 138.66"/><polygon class="cls-2" points="79.77 138.66 44.77 78 42.08 78 77.03 138.66 79.77 138.66"/><polygon class="cls-2" points="74.28 138.66 39.34 78 36.59 78 71.54 138.66 74.28 138.66"/><polygon class="cls-2" points="68.85 138.66 33.85 78 31.16 78 66.11 138.66 68.85 138.66"/><polygon class="cls-2" points="63.36 138.66 28.41 78 25.67 78 60.62 138.66 63.36 138.66"/><polygon class="cls-2" points="57.93 138.66 22.98 78 20.24 78 55.19 138.66 57.93 138.66"/><polygon class="cls-2" points="32.5 103.99 20.24 82.54 20.24 87.41 29.76 103.99 32.5 103.99"/><polygon class="cls-2" points="20.24 96.99 20.24 96.99 24.27 103.99 27.01 103.99 20.24 92.29 20.24 96.99"/><polygon class="cls-2" points="20.24 103.99 21.58 103.99 20.24 101.7 20.24 103.99"/><polygon class="cls-2" points="143.01 112.73 155.27 134.13 155.27 129.31 145.75 112.73 143.01 112.73"/><polygon class="cls-2" points="155.27 119.73 155.27 119.73 151.24 112.73 148.5 112.73 155.27 124.44 155.27 119.73"/><polygon class="cls-2" points="155.27 112.73 153.93 112.73 155.27 115.03 155.27 112.73"/><polygon class="cls-2" points="71.6 110.38 72.94 108.08 87.95 134.07 86.61 136.37 71.6 110.38"/><polygon class="cls-2" points="74.28 105.78 75.57 103.43 90.58 129.42 89.24 131.72 74.28 105.78"/><polygon class="cls-2" points="76.92 101.14 78.26 98.84 93.27 124.83 91.93 127.12 76.92 101.14"/><polygon class="cls-2" points="79.61 96.54 80.95 94.19 95.91 120.18 94.62 122.47 79.61 96.54"/><polygon class="cls-2" points="82.3 91.89 83.58 89.6 98.59 115.53 97.25 117.88 82.3 91.89"/><polygon class="cls-2" points="84.93 87.25 86.27 84.95 101.28 110.94 99.94 113.23 84.93 87.25"/><polygon class="cls-2" points="87.62 82.65 88.96 80.36 103.91 106.29 102.63 108.64 87.62 82.65"/><text class="cls-3" transform="translate(0 252.84) scale(1 1.12)">BANK</text><polygon class="cls-1" points="164.91 198.27 160.66 207.54 156.41 198.27 148.52 198.27 148.52 212.56 152.81 212.56 152.71 201.86 153.47 201.86 158.86 212.56 162.47 212.56 167.86 201.86 168.57 201.86 168.46 212.56 172.75 212.56 172.75 198.27 164.91 198.27"/><rect class="cls-1" x="140.9" y="198.27" width="4.57" height="14.28"/><rect class="cls-1" x="112.61" y="198.27" width="4.57" height="14.28"/><polygon class="cls-1" points="101.71 198.27 97.46 207.54 93.22 198.27 85.33 198.27 85.33 212.56 89.61 212.56 89.51 201.86 90.28 201.86 95.66 212.56 99.27 212.56 104.66 201.86 105.37 201.86 105.27 212.56 109.56 212.56 109.56 198.27 101.71 198.27"/><polygon class="cls-1" points="66.46 198.27 66.46 212.56 82.36 212.56 82.36 209.12 70.75 209.12 70.75 206.84 81.69 206.84 81.69 203.69 70.75 203.69 70.75 201.63 82.28 201.63 82.28 198.27 66.46 198.27"/><polygon class="cls-1" points="9.07 198.27 9.07 201.92 15.44 201.92 15.44 212.56 20 212.56 20 201.92 26.36 201.92 26.36 198.27 9.07 198.27"/><rect class="cls-1" x="2.67" y="198.27" width="4.57" height="14.28"/><path class="cls-4" d="M120.22,212.55V198.27h10.52c2.47,0,3.95,0,4.44.08a3.27,3.27,0,0,1,1.41.49,2.58,2.58,0,0,1,1.12,1.36,8.86,8.86,0,0,1,.3,2.71,9.78,9.78,0,0,1-.19,2.29,2.16,2.16,0,0,1-.73,1.17,3.62,3.62,0,0,1-1.74.65,2.77,2.77,0,0,1,2,.79,2,2,0,0,1,.44,1,19.58,19.58,0,0,1,.1,2.44v1.32h-4.29v-.76a11,11,0,0,0-.09-1.7,1.56,1.56,0,0,0-.33-.78,1.14,1.14,0,0,0-.67-.32,13.1,13.1,0,0,0-1.77-.07h-6.13v3.63Zm4.36-7.19h6.12c1.07,0,1.7,0,1.91-.06a1.15,1.15,0,0,0,.53-.17.91.91,0,0,0,.39-.52,3.54,3.54,0,0,0,.12-1.06,3.08,3.08,0,0,0-.13-1.05.87.87,0,0,0-.46-.5,1.65,1.65,0,0,0-.55-.13l-1.82,0h-6.11Z"/><path class="cls-4" d="M47,212.55V198.27h9.79a34.87,34.87,0,0,1,3.74.12,4,4,0,0,1,2.88,1.36,7.32,7.32,0,0,1,.74,3.87,7.85,7.85,0,0,1-.62,3.71,2.65,2.65,0,0,1-1.17,1.1,6.09,6.09,0,0,1-2.06.52c-.62.07-1.78.11-3.47.11H51.38v3.49Zm4.36-7.06h5.44c1,0,1.59,0,1.81,0a1.56,1.56,0,0,0,.59-.17,1,1,0,0,0,.46-.53,3.86,3.86,0,0,0,.13-1.13,3,3,0,0,0-.16-1.12.93.93,0,0,0-.55-.51,11.34,11.34,0,0,0-2.28-.15H51.38Z"/><path class="cls-4" d="M40.94,212.56l-1.22-2.42H30.27L29,212.56h-5l7.58-14.29h6.76l7.47,14.29ZM38.19,207l-2.75-5.41h-.87L31.82,207Z"/></g></svg>