<svg xmlns="http://www.w3.org/2000/svg" viewBox="0 0 540.51 538.73"><defs><style>.cls-1,.cls-21,.cls-3{fill:#cc9b00;}.cls-1,.cls-15{opacity:0.2;}.cls-2{fill:#27debf;}.cls-20,.cls-22,.cls-4{fill:#fff;}.cls-16,.cls-5{fill:#fd0;}.cls-6{fill:#3d3935;}.cls-7{fill:#263238;}.cls-12,.cls-8{fill:#455a64;}.cls-9{opacity:0.15;}.cls-10{fill:#f0f0f0;}.cls-11{fill:#e0e0e0;}.cls-12,.cls-16{opacity:0.8;}.cls-13{fill:#ebebeb;}.cls-14{fill:#fafafa;}.cls-17,.cls-18,.cls-20{opacity:0.3;}.cls-19{fill:#37474f;}.cls-21{opacity:0.1;}.cls-22{opacity:0.4;}.cls-23{fill:#ffa8a7;}.cls-24{fill:#f5f5f5;}.cls-25{fill:#f28f8f;}</style></defs><g id="Layer_2" data-name="Layer 2"><g id="graph"><ellipse id="Floor" class="cls-1" cx="270.26" cy="382.7" rx="270.26" ry="156.03"/><path id="Shadow" class="cls-1" d="M356.74,423.83a14.66,14.66,0,0,0-2.16-7.58h0a13.2,13.2,0,0,0-.93-1.41l0-.07a13.73,13.73,0,0,0-1-1.24l-.09-.1a12.16,12.16,0,0,0-1.1-1.06l-.1-.09a12.27,12.27,0,0,0-1.2-.88l-.69-.39-.32-.14c-.12-.05-.25-.12-.37-.16a5.08,5.08,0,0,0-.51-.17l-.14,0-.6-.12h0a3.83,3.83,0,0,0-2.23.35h0c-6.17,3.1-41.75,25.73-58.12,35.94l-8.12,4.92a1.91,1.91,0,0,0-.6.57l-.06.09a1.92,1.92,0,0,0-.18.35,1.7,1.7,0,0,0-.09.24,2.45,2.45,0,0,0-.09.32c0,.06,0,.14,0,.21l-1.34.74-1.2.64a47.1,47.1,0,0,0-9.25-6.86c-11.22-6.47-26.1-10-41.88-10s-30.65,3.57-41.87,10c-11.63,6.72-18,15.78-18,25.53s6.4,18.81,18,25.52C193.56,505.4,208.43,509,224.21,509s30.66-3.57,41.88-10.05c11.63-6.71,18-15.77,18-25.52a23.44,23.44,0,0,0-3.81-12.61l1.07-.58a2.4,2.4,0,0,0,2.3.22l.05,0c5.56-3.06,59.72-26.14,70.79-32.08h0C355.83,427.63,356.66,426.08,356.74,423.83ZM261,490.06c-9.69,5.59-22.74,8.68-36.76,8.68s-27.06-3.09-36.75-8.68c-8.33-4.81-12.91-10.72-12.91-16.66s4.58-11.85,12.91-16.66c9.69-5.6,22.74-8.68,36.75-8.68s27.07,3.08,36.76,8.68c8.33,4.81,12.91,10.72,12.91,16.66S269.3,485.25,261,490.06Z"/><path id="Shadow-2" data-name="Shadow" class="cls-1" d="M365,286.72l-54.94-31.79a11.18,11.18,0,0,0-10.11,0L20.89,416.05c-2.79,1.62-2.79,4.23,0,5.84l54.94,31.79a11.18,11.18,0,0,0,10.11,0L190.52,393.3l16.08,9.34c8.51,4.92,22.31,4.92,30.82,0l47.93-27.46c8.51-4.91,8.51-12.88,0-17.8L269.29,348,365,292.55C367.8,290.94,367.8,288.33,365,286.72Z"/><ellipse id="Shadow-3" data-name="Shadow" class="cls-1" cx="457.17" cy="406.07" rx="53.87" ry="31.1"/><path class="cls-2" d="M487.77,371c0-7.29-1.45-20.73,4.73-33.33,4.47-9.14,12.47-18,19.91-17.13,6.93.83,7.56,11.48.93,18.77s-15.06,17.39-16.9,33.52l-4.77,12Z"/><path class="cls-3" d="M487.77,371c0-7.29-1.45-20.73,4.73-33.33,4.47-9.14,12.47-18,19.91-17.13,6.93.83,7.56,11.48.93,18.77s-15.06,17.39-16.9,33.52l-4.77,12Z"/><path class="cls-4" d="M490.26,376.08a.53.53,0,0,0,.42-.52c-.84-20.74,5.91-37.95,19.51-49.78a.5.5,0,1,0-.66-.76c-13.85,12-20.72,29.53-19.87,50.58a.5.5,0,0,0,.53.48Z"/><path class="cls-5" d="M486.45,397a25.69,25.69,0,0,0,12.82,3.57c7.81.19,10.69-3.92,10.69-3.92s-4-6.76-8.58-8.19a42.93,42.93,0,0,1,14,3.66s4.68-.55,5.58-7.92c0,0-3.34-3.92-12.92-5,0,0,5.45-2.17,13.86-1.19.64.16,2-9.39,2.22-13.75s-1.48-4.08-4.91-4.52-14.78.52-16.61,2.62-2,8.46-2,8.46-2.45-3.25-2.4-6.46a12,12,0,0,0-7,1.11c-3.55,1.8-4.69,3.23-4.86,6s-.41,6.8.68,10c0,0-3.23-5.21-3.06-9.74a47.32,47.32,0,0,0-3.3,6.9C479.06,382.55,480.86,392.15,486.45,397Z"/><path class="cls-4" d="M486.58,397.51a.49.49,0,0,0,.35-.33c4.45-13.62,25.34-31.55,33.33-34.24a.5.5,0,0,0,.32-.64.49.49,0,0,0-.64-.32c-8.14,2.74-29.44,21-34,34.89a.51.51,0,0,0,.33.64A.45.45,0,0,0,486.58,397.51Z"/><path class="cls-6" d="M237.43,398l41.29-23.88c4.25-2.45,6.38-5.67,6.38-8.89s0-5.75,0-5.75l-38.85-22.05a9.09,9.09,0,0,1-4.11-7.12V279.41L170,321.09V372a9.07,9.07,0,0,0,4.11,7.12L206.6,398C215.11,402.92,228.92,402.92,237.43,398Z"/><path class="cls-7" d="M187.35,381v5.72l-13.22-7.62A9.1,9.1,0,0,1,170,372v-50.9l13.74-7.93c.28,3.49.59,7.1.88,10.61L175,329.35v39.77a9,9,0,0,0,4.11,7.12Z"/><path class="cls-8" d="M175,369.13a9.09,9.09,0,0,0,4.11,7.12l27.48,16c8.51,4.91,22.31,4.91,30.82,0l41.32-23.87c8.51-4.91,8.51-12.88,0-17.8l-27.5-16a9.09,9.09,0,0,1-4.11-7.12V287.68L175,329.35Z"/><path class="cls-9" d="M259.61,339.41h0l-8.37-4.84a9.09,9.09,0,0,1-4.11-7.12V287.68L175,329.35v39.78a9.09,9.09,0,0,0,4.11,7.12l8.23,4.75Z"/><path class="cls-6" d="M285.11,359.5v5.74c0,3.23-2.13,6.43-6.38,8.9L237.43,398a30.87,30.87,0,0,1-14.71,3.65v-5.72a30.87,30.87,0,0,0,14.71-3.65l41.3-23.88C283,366,285.11,362.72,285.11,359.5Z"/><path class="cls-8" d="M59.21,424.05a11,11,0,0,0,10-.19l278.91-161a11.35,11.35,0,0,0,5.14-8.9V9.82A11,11,0,0,0,348.4,1.1a11,11,0,0,0-10,.18l-278.9,161a11.35,11.35,0,0,0-5.14,8.9V415.33A11,11,0,0,0,59.21,424.05Z"/><path class="cls-6" d="M69.17,423.86l278.91-161a11.34,11.34,0,0,0,5.14-8.9V9.81c0-3.28-2.3-4.61-5.14-3l-278.9,161a11.35,11.35,0,0,0-5.14,8.9V420.89C64,424.17,66.33,425.5,69.17,423.86Z"/><path class="cls-2" d="M73.67,388.64V180a6.79,6.79,0,0,1,3.09-5.34L340.49,22.36c1.7-1,3.08-.19,3.08,1.78V232.82a6.81,6.81,0,0,1-3.08,5.34L76.75,390.42C75.05,391.41,73.67,390.61,73.67,388.64Z"/><path class="cls-5" d="M73.67,388.64V180a6.79,6.79,0,0,1,3.09-5.34L340.49,22.36c1.7-1,3.08-.19,3.08,1.78V232.82a6.81,6.81,0,0,1-3.08,5.34L76.75,390.42C75.05,391.41,73.67,390.61,73.67,388.64Z"/><path class="cls-2" d="M208.1,333.47a3.07,3.07,0,0,1-1.55-.41,3.92,3.92,0,0,1-1.7-3.62,11.15,11.15,0,0,1,5.11-8.86h0a3.51,3.51,0,0,1,5.7,3.29,11.18,11.18,0,0,1-5.11,8.86A5,5,0,0,1,208.1,333.47ZM212.4,321a3.9,3.9,0,0,0-1.86.58h0a10,10,0,0,0-4.52,7.85,2.37,2.37,0,0,0,3.94,2.28,10,10,0,0,0,4.53-7.85,2.83,2.83,0,0,0-1.12-2.61A1.85,1.85,0,0,0,212.4,321Z"/><path class="cls-10" d="M389.39,61.63,117.76,218.27V418.46a3.47,3.47,0,0,0,5.19,3l4.85-2.79L384.32,270.77a11.21,11.21,0,0,0,5.07-8.77Z"/><path class="cls-11" d="M388.22,63.65V262a10.05,10.05,0,0,1-4.48,7.75L127.21,417.67l-4.84,2.79a2.22,2.22,0,0,1-1.14.31,2.36,2.36,0,0,1-1.6-.65,2.27,2.27,0,0,1-.7-1.66V218.94L388.22,63.65m1.17-2L117.76,218.27V418.46a3.47,3.47,0,0,0,3.47,3.48,3.41,3.41,0,0,0,1.72-.47l4.85-2.79L384.32,270.77a11.21,11.21,0,0,0,5.07-8.77V61.63Z"/><polygon class="cls-12" points="382.94 57.91 111.3 214.54 117.76 218.27 389.39 61.63 382.94 57.91"/><path class="cls-13" d="M119.58,421.52a3.5,3.5,0,0,1-1.82-3.06V218.27l-6.46-3.73V413.63a6.27,6.27,0,0,0,0,.74,5.37,5.37,0,0,0,2.64,3.92l5.34,3.08.26.15Z"/><path class="cls-2" d="M111.3,214.63V201.12a5.63,5.63,0,0,1,2.52-4.39L380.43,43a5.53,5.53,0,0,1,5,0l1.39.81a5.56,5.56,0,0,1,2.53,4.37V61.73L117.76,218.35Z"/><path class="cls-8" d="M111.3,214.63V201.12a5.63,5.63,0,0,1,2.52-4.39L380.43,43a5.53,5.53,0,0,1,5,0l1.39.81a5.56,5.56,0,0,1,2.53,4.37V61.73L117.76,218.35Z"/><path class="cls-2" d="M117.76,204.85a5.63,5.63,0,0,1,2.52-4.39L386.87,46.76c1.39-.82,2.52-.17,2.52,1.44V61.73L117.76,218.35Z"/><path class="cls-6" d="M117.76,204.85a5.63,5.63,0,0,1,2.52-4.39L386.87,46.76c1.39-.82,2.52-.17,2.52,1.44V61.73L117.76,218.35Z"/><path class="cls-2" d="M118.5,202.35a5.15,5.15,0,0,0-.74,2.5v13.5l-6.45-3.72V201.11a5.2,5.2,0,0,1,.73-2.48Z"/><path class="cls-6" d="M118.5,202.35a5.15,5.15,0,0,0-.74,2.5v13.5l-6.45-3.72V201.11a5.2,5.2,0,0,1,.73-2.48Z"/><path class="cls-14" d="M377.53,61.12c0,1.51,1.07,2.12,2.37,1.37a5.26,5.26,0,0,0,2.38-4.11c0-1.51-1.07-2.12-2.38-1.37A5.28,5.28,0,0,0,377.53,61.12Z"/><path class="cls-14" d="M368.05,66.59c0,1.52,1.06,2.13,2.37,1.37a5.22,5.22,0,0,0,2.37-4.1c0-1.51-1.06-2.13-2.37-1.37A5.22,5.22,0,0,0,368.05,66.59Z"/><path class="cls-14" d="M358.57,72.07c0,1.51,1.06,2.12,2.37,1.37a5.25,5.25,0,0,0,2.37-4.11c0-1.51-1.06-2.12-2.37-1.37A5.25,5.25,0,0,0,358.57,72.07Z"/><path class="cls-14" d="M117.76,218.36v200.1a3.47,3.47,0,0,0,5.19,3l4.85-2.79,59.35-34.23V178.34l-69.39,40Z"/><polygon class="cls-14" points="191.9 181.72 191.9 376.08 383.69 265.34 383.69 70.99 191.9 181.72"/><g class="cls-15"><path class="cls-5" d="M171.27,201.82,127,227.4a3.29,3.29,0,0,0-1.48,2.57v4.61c0,.95.66,1.33,1.48.86l44.27-25.58a3.28,3.28,0,0,0,1.48-2.57v-4.61C172.75,201.73,172.09,201.35,171.27,201.82Z"/><path class="cls-16" d="M171.27,201.82,127,227.4a3.29,3.29,0,0,0-1.48,2.57v4.61c0,.95.66,1.33,1.48.86l44.27-25.58a3.28,3.28,0,0,0,1.48-2.57v-4.61C172.75,201.73,172.09,201.35,171.27,201.82Z"/><path class="cls-5" d="M181.13,203.65l-1.31-1.25a5.81,5.81,0,0,0,.42-2.09,2.48,2.48,0,0,0-1-2.24,1.55,1.55,0,0,0-1.59.07,5.23,5.23,0,0,0-2,4.24,2.47,2.47,0,0,0,1,2.24,1.32,1.32,0,0,0,.7.19,1.81,1.81,0,0,0,.89-.26,3.46,3.46,0,0,0,1.15-1.19l1.07,1a.51.51,0,0,0,.36.15.52.52,0,0,0,.36-.89Zm-3.46,0a.54.54,0,0,1-.56.07c-.21-.12-.46-.55-.46-1.35a4.24,4.24,0,0,1,1.54-3.35.73.73,0,0,1,.37-.12.41.41,0,0,1,.19.05c.21.13.46.55.46,1.35A4.25,4.25,0,0,1,177.67,203.66Z"/></g><path class="cls-8" d="M126.6,249l-1,.58c-.06,0-.1,0-.1-.08v-2.69a.23.23,0,0,1,.1-.2l1-.58c.05,0,.1,0,.1.08v2.69A.26.26,0,0,1,126.6,249Z"/><path class="cls-8" d="M128.08,248.1l-1,.58c-.06,0-.11,0-.11-.08v-2.69a.24.24,0,0,1,.11-.2l1-.58c.06,0,.11,0,.11.08v2.69A.24.24,0,0,1,128.08,248.1Z"/><path class="cls-8" d="M129.57,247.25l-1,.57c-.06,0-.11,0-.11-.08v-2.69a.24.24,0,0,1,.11-.2l1-.58c.06,0,.11,0,.11.08V247A.27.27,0,0,1,129.57,247.25Z"/><path class="cls-8" d="M126.6,252.43l-1,.57c-.06,0-.1,0-.1-.08v-2.68a.27.27,0,0,1,.1-.21l1-.57c.05,0,.1,0,.1.08v2.69A.26.26,0,0,1,126.6,252.43Z"/><path class="cls-8" d="M128.08,251.57l-1,.57c-.06,0-.11,0-.11-.08v-2.68a.27.27,0,0,1,.11-.21l1-.57c.06,0,.11,0,.11.08v2.69A.24.24,0,0,1,128.08,251.57Z"/><path class="cls-8" d="M129.57,250.71l-1,.58c-.06,0-.11,0-.11-.09v-2.68a.27.27,0,0,1,.11-.21l1-.57c.06,0,.11,0,.11.08v2.69A.24.24,0,0,1,129.57,250.71Z"/><path class="cls-8" d="M126.75,261.59l-1.22-.75s0-.13,0-.22l1.22-2.15c.06-.11.15-.09.15,0v2.91C126.9,261.51,126.81,261.62,126.75,261.59Z"/><path class="cls-8" d="M126.24,259.94l1.61-.93v.77l-1.61.93c-.14.08-.25,0-.25-.24A.66.66,0,0,1,126.24,259.94Z"/><polygon class="cls-8" points="128.15 258.84 128.7 258.52 128.7 259.29 128.15 259.61 128.15 258.84"/><path class="cls-8" d="M130.18,258.05v2.82a.64.64,0,0,1-.25.52c-.14.08-.25,0-.25-.24v-2.43l-.68.39v-.76l.93-.54C130.07,257.73,130.18,257.84,130.18,258.05Z"/><path class="cls-8" d="M127.23,267.89a5.35,5.35,0,0,0-1.7,4.56c.2,1.46,1.07,1.41,1.17,2.08,0,.08.06.11.11.08l1.09-.62a.3.3,0,0,0,.11-.2c.11-.9,1.22-2,1.23-4.16C129.25,268,128.33,267.14,127.23,267.89Z"/><path class="cls-8" d="M127.88,275.74l-1,.61c-.07,0-.13,0-.13-.1v-1a.34.34,0,0,1,.13-.25l1-.6c.07,0,.13,0,.13.1v1A.31.31,0,0,1,127.88,275.74Z"/><path class="cls-8" d="M127.48,245.19a6.39,6.39,0,0,0-1.9,4,4.16,4.16,0,0,0,.28,2.2l-.36,1.84c0,.15.06.23.14.13l1.06-1.15a1.63,1.63,0,0,0,1.54-.45,6.4,6.4,0,0,0,1.91-4C130.4,245.18,129.06,243.9,127.48,245.19Zm.38,6c-1,.56-1.76-.2-1.76-1.7a4.67,4.67,0,0,1,1.76-3.74c1-.56,1.77.2,1.77,1.7A4.65,4.65,0,0,1,127.86,251.21Z"/><path class="cls-8" d="M127.48,280.61a6.39,6.39,0,0,0-1.9,4,4.16,4.16,0,0,0,.28,2.2l-.36,1.84c0,.15.06.23.14.14l1.06-1.16a1.63,1.63,0,0,0,1.54-.45,6.4,6.4,0,0,0,1.91-4C130.4,280.61,129.06,279.32,127.48,280.61Zm.38,6c-1,.56-1.76-.2-1.76-1.7a4.69,4.69,0,0,1,1.76-3.74c1-.56,1.77.2,1.77,1.7A4.65,4.65,0,0,1,127.86,286.63Z"/><path class="cls-8" d="M129,293.59a2.46,2.46,0,0,1-.94,2c-.51.29-.93-.11-.93-.9a2.46,2.46,0,0,1,.93-2C128.56,292.4,129,292.8,129,293.59Z"/><path class="cls-8" d="M130.58,293.88a1.65,1.65,0,0,1-.62,1.31c-.35.2-.63-.07-.63-.6a1.61,1.61,0,0,1,.63-1.31C130.3,293.08,130.58,293.35,130.58,293.88Z"/><path class="cls-8" d="M129.14,299.25l-2.2,1.27v-2.79a1.91,1.91,0,0,1,.8-1.52l.61-.35c.44-.25.79,0,.79.6Z"/><path class="cls-8" d="M130.05,295.51l-.6.35v3.21l1.14-.66v-2.49C130.59,295.52,130.35,295.34,130.05,295.51Z"/><path class="cls-8" d="M125.51,296.8c0,.53.28.8.62.6a1.66,1.66,0,0,0,.62-1.32c0-.52-.28-.79-.62-.59A1.62,1.62,0,0,0,125.51,296.8Z"/><path class="cls-8" d="M126,297.83l.61-.35v3.21l-1.14.66v-2.49A1.3,1.3,0,0,1,126,297.83Z"/><path class="cls-11" d="M136.26,242.66l25.92-15c.7-.4,1.27-.12,1.27.64a2.73,2.73,0,0,1-1.27,2.1l-25.92,15c-.69.41-1.26.12-1.26-.64A2.75,2.75,0,0,1,136.26,242.66Z"/><path class="cls-11" d="M136.26,254.87l25.92-15c.7-.4,1.27-.12,1.27.64a2.7,2.7,0,0,1-1.27,2.1l-25.92,15c-.69.41-1.26.12-1.26-.64A2.72,2.72,0,0,1,136.26,254.87Z"/><path class="cls-11" d="M136.26,267.07l25.92-15c.7-.4,1.27-.12,1.27.64a2.7,2.7,0,0,1-1.27,2.1l-25.92,15c-.69.41-1.26.12-1.26-.63A2.72,2.72,0,0,1,136.26,267.07Z"/><path class="cls-11" d="M136.26,279.27l25.92-15c.7-.4,1.27-.11,1.27.64a2.7,2.7,0,0,1-1.27,2.1l-25.92,15c-.69.4-1.26.11-1.26-.64A2.72,2.72,0,0,1,136.26,279.27Z"/><path class="cls-11" d="M136.26,291.47l25.92-15c.7-.4,1.27-.11,1.27.64a2.7,2.7,0,0,1-1.27,2.1l-25.92,15c-.69.4-1.26.11-1.26-.64A2.72,2.72,0,0,1,136.26,291.47Z"/><path class="cls-8" d="M141,301.43l25.92-15c.69-.41,1.26-.12,1.26.63a2.72,2.72,0,0,1-1.26,2.1l-25.92,15c-.7.4-1.27.12-1.27-.64A2.7,2.7,0,0,1,141,301.43Z"/><path class="cls-11" d="M141,309.67l25.92-15c.69-.41,1.26-.12,1.26.64a2.75,2.75,0,0,1-1.26,2.1l-25.92,15c-.7.4-1.27.12-1.27-.64A2.73,2.73,0,0,1,141,309.67Z"/><path class="cls-11" d="M141,317.91l25.92-15c.69-.4,1.26-.12,1.26.64a2.75,2.75,0,0,1-1.26,2.1l-25.92,15c-.7.41-1.27.12-1.27-.64A2.73,2.73,0,0,1,141,317.91Z"/><path class="cls-11" d="M146.05,323.15l25.92-15c.7-.4,1.26-.12,1.26.64a2.7,2.7,0,0,1-1.26,2.1l-25.92,15c-.7.4-1.26.12-1.26-.64A2.72,2.72,0,0,1,146.05,323.15Z"/><path class="cls-8" d="M140,330.24l2.11-3.71c.08-.14.08-.33,0-.38L140,324.87c-.1-.06-.25.13-.25.33v5C139.74,330.4,139.89,330.42,140,330.24Z"/><path class="cls-11" d="M146.05,331.37l25.92-15c.7-.4,1.26-.12,1.26.64a2.67,2.67,0,0,1-1.26,2.1l-25.92,15c-.7.41-1.26.12-1.26-.63A2.69,2.69,0,0,1,146.05,331.37Z"/><path class="cls-8" d="M140,338.46l2.11-3.72c.08-.14.08-.32,0-.37L140,333.08c-.1-.06-.25.14-.25.34v5C139.74,338.61,139.89,338.64,140,338.46Z"/><path class="cls-11" d="M146.05,339.58l25.92-15c.7-.4,1.26-.11,1.26.64a2.67,2.67,0,0,1-1.26,2.1l-25.92,15c-.7.4-1.26.11-1.26-.64A2.69,2.69,0,0,1,146.05,339.58Z"/><path class="cls-8" d="M140,346.67,142.1,343c.08-.14.08-.33,0-.38L140,341.3c-.1-.07-.25.13-.25.33v5C139.74,346.82,139.89,346.85,140,346.67Z"/><path class="cls-11" d="M146.05,347.79l25.92-15c.7-.4,1.26-.12,1.26.64a2.7,2.7,0,0,1-1.26,2.1l-25.92,15c-.7.4-1.26.12-1.26-.64A2.72,2.72,0,0,1,146.05,347.79Z"/><path class="cls-8" d="M140,354.88l2.11-3.71c.08-.14.08-.33,0-.38L140,349.51c-.1-.06-.25.13-.25.33v5C139.74,355,139.89,355.06,140,354.88Z"/><path class="cls-11" d="M146.05,356,172,341c.7-.4,1.26-.12,1.26.64a2.67,2.67,0,0,1-1.26,2.1l-25.92,15c-.7.41-1.26.12-1.26-.63A2.69,2.69,0,0,1,146.05,356Z"/><path class="cls-8" d="M140,363.1l2.11-3.72c.08-.14.08-.32,0-.37L140,357.72c-.1-.06-.25.14-.25.34v5C139.74,363.25,139.89,363.28,140,363.1Z"/><path class="cls-11" d="M146.05,364.22l25.92-15c.7-.4,1.26-.11,1.26.64A2.67,2.67,0,0,1,172,352l-25.92,15c-.7.4-1.26.11-1.26-.64A2.69,2.69,0,0,1,146.05,364.22Z"/><path class="cls-8" d="M140,371.31l2.11-3.71c.08-.14.08-.33,0-.38L140,365.94c-.1-.07-.25.13-.25.33v5C139.74,371.46,139.89,371.49,140,371.31Z"/><path class="cls-11" d="M146.05,372.43l25.92-15c.7-.41,1.26-.12,1.26.64a2.7,2.7,0,0,1-1.26,2.1l-25.92,15c-.7.4-1.26.12-1.26-.64A2.72,2.72,0,0,1,146.05,372.43Z"/><path class="cls-8" d="M140,379.52l2.11-3.71c.08-.14.08-.33,0-.38L140,374.15c-.1-.06-.25.13-.25.33v5C139.74,379.68,139.89,379.7,140,379.52Z"/><path class="cls-11" d="M146.05,380.65l25.92-15c.7-.4,1.26-.12,1.26.64a2.67,2.67,0,0,1-1.26,2.1l-25.92,15c-.7.41-1.26.12-1.26-.64A2.69,2.69,0,0,1,146.05,380.65Z"/><path class="cls-8" d="M140,387.74,142.1,384c.08-.14.08-.32,0-.37L140,382.36c-.1-.06-.25.14-.25.34v5C139.74,387.89,139.89,387.92,140,387.74Z"/><path class="cls-10" d="M197.9,208.37l85.2-49.18a2.81,2.81,0,0,0,1.26-2.19V135.28c0-.81-.56-1.13-1.26-.73l-85.2,49.18a2.78,2.78,0,0,0-1.26,2.19v21.73C196.64,208.45,197.2,208.78,197.9,208.37Z"/><path class="cls-8" d="M205.33,193.05a.18.18,0,0,1,0-.06l.56-2.33-.77.45s0,0,0,0,0,0,0-.06v-.42a.15.15,0,0,1,0-.09.1.1,0,0,1,0-.06l1.23-.72s0,0,0,0,0,0,0,.06v.37a1,1,0,0,1,0,.23l-.56,2.34,0,.08a.15.15,0,0,1,0,.06l-.37.21s0,0,0,0A.08.08,0,0,1,205.33,193.05Z"/><path class="cls-8" d="M207.4,189.12a.64.64,0,0,1,.33-.11.37.37,0,0,1,.23.1.69.69,0,0,1,.14.27,1.46,1.46,0,0,1,.05.38c0,.12,0,.23,0,.36s0,.24,0,.35a2.3,2.3,0,0,1-.05.45,2.07,2.07,0,0,1-.14.42,1.76,1.76,0,0,1-.23.37,1.29,1.29,0,0,1-.33.28.62.62,0,0,1-.34.1.29.29,0,0,1-.23-.1.59.59,0,0,1-.14-.26,2.18,2.18,0,0,1-.05-.38c0-.11,0-.23,0-.35s0-.25,0-.36a3.44,3.44,0,0,1,.05-.45,1.88,1.88,0,0,1,.14-.42,1.54,1.54,0,0,1,.23-.37A1.3,1.3,0,0,1,207.4,189.12Zm.27,1.61c0-.23,0-.45,0-.67a.79.79,0,0,0,0-.17.34.34,0,0,0,0-.12.1.1,0,0,0-.08-.05.18.18,0,0,0-.13,0,.28.28,0,0,0-.13.11.42.42,0,0,0-.09.14,1,1,0,0,0,0,.18,1.11,1.11,0,0,0,0,.19c0,.22,0,.45,0,.67a.88.88,0,0,0,0,.17.21.21,0,0,0,0,.12.11.11,0,0,0,.09,0,.3.3,0,0,0,.13,0,.69.69,0,0,0,.13-.11.53.53,0,0,0,.08-.15.84.84,0,0,0,0-.17A1.15,1.15,0,0,0,207.67,190.73Z"/><path class="cls-8" d="M209.19,188.67v.3a1,1,0,0,1,0,.24.83.83,0,0,1-.08.22.82.82,0,0,1-.12.2.62.62,0,0,1-.18.14.35.35,0,0,1-.17.06.19.19,0,0,1-.13-.05.26.26,0,0,1-.07-.14.88.88,0,0,1,0-.2v-.3a2,2,0,0,1,0-.24.81.81,0,0,1,.07-.22.86.86,0,0,1,.13-.2.79.79,0,0,1,.17-.14.38.38,0,0,1,.18-.06.17.17,0,0,1,.12.05.27.27,0,0,1,.08.14A.56.56,0,0,1,209.19,188.67Zm.65-.84a.34.34,0,0,1,0-.08l.06-.05.21-.13h.05s0,0,0,.05v0a0,0,0,0,1,0,0L208.91,191l0,.08-.06,0-.21.12h-.05s0,0,0,0v0a0,0,0,0,1,0,0Zm-1.16,1.42a.41.41,0,0,0,0,.14s0,0,.08,0a.19.19,0,0,0,.08-.1.74.74,0,0,0,0-.17v-.27a.42.42,0,0,0,0-.14s0,0-.08,0a.18.18,0,0,0-.08.09.82.82,0,0,0,0,.18A1.13,1.13,0,0,0,208.68,189.25Zm1.71.12a1.5,1.5,0,0,1,0,.3.88.88,0,0,1,0,.24,2,2,0,0,1-.07.23,1.27,1.27,0,0,1-.13.19.49.49,0,0,1-.18.14.32.32,0,0,1-.17.06.17.17,0,0,1-.13-.05.4.4,0,0,1-.07-.13.66.66,0,0,1,0-.21.71.71,0,0,1,0-.14.92.92,0,0,1,0-.16,1,1,0,0,1,0-.24,1.42,1.42,0,0,1,.07-.22.91.91,0,0,1,.13-.19A.8.8,0,0,1,210,189a.38.38,0,0,1,.18-.06.17.17,0,0,1,.12.05.32.32,0,0,1,.08.14A.6.6,0,0,1,210.39,189.37Zm-.51.58a.24.24,0,0,0,0,.14s0,0,.07,0a.19.19,0,0,0,.08-.1.4.4,0,0,0,0-.17v-.27a.26.26,0,0,0,0-.14s0,0-.08,0a.15.15,0,0,0-.07.1.4.4,0,0,0,0,.17A1.13,1.13,0,0,0,209.88,190Z"/><path class="cls-8" d="M205.32,186.35l-.86-1.31a17.22,17.22,0,0,0-2,5.44l1.38-.1A12.57,12.57,0,0,1,205.32,186.35Z"/><path class="cls-8" d="M207.73,183.75v-2.24a9.78,9.78,0,0,0-3.27,3.53l.86,1.31A7.19,7.19,0,0,1,207.73,183.75Z"/><path class="cls-8" d="M203.62,192.45a11.25,11.25,0,0,1,.2-2.07l-1.38.1a14.94,14.94,0,0,0-.27,2.81,10.55,10.55,0,0,0,.27,2.49l1.38-1.49A7.92,7.92,0,0,1,203.62,192.45Z"/><path class="cls-5" d="M213,184.37a4.6,4.6,0,0,0-2-3.11,3.25,3.25,0,0,0-3.27.25v2.24a2.38,2.38,0,0,1,2.41-.18,3.35,3.35,0,0,1,1.5,2.29,8,8,0,0,1,.2,1.84,11.17,11.17,0,0,1-.2,2.07,12.57,12.57,0,0,1-1.5,4,7.1,7.1,0,0,1-2.41,2.6,2.38,2.38,0,0,1-2.41.18,3.35,3.35,0,0,1-1.5-2.29l-1.38,1.49a4.6,4.6,0,0,0,2,3.11,3.25,3.25,0,0,0,3.27-.25,9.83,9.83,0,0,0,3.27-3.52,17.28,17.28,0,0,0,2-5.45,14.94,14.94,0,0,0,.27-2.81A10.55,10.55,0,0,0,213,184.37Z"/><path class="cls-8" d="M221.61,178.25l25.92-15c.7-.41,1.26-.12,1.26.64a2.72,2.72,0,0,1-1.26,2.1l-25.92,15c-.7.4-1.27.12-1.27-.64A2.73,2.73,0,0,1,221.61,178.25Z"/><path class="cls-11" d="M221.61,183.77l44.88-25.91c.7-.4,1.27-.11,1.27.64a2.7,2.7,0,0,1-1.27,2.1l-44.88,25.91c-.7.4-1.27.12-1.27-.64A2.7,2.7,0,0,1,221.61,183.77Z"/><path class="cls-10" d="M290.35,155l85.19-49.19a2.79,2.79,0,0,0,1.27-2.19V81.89c0-.8-.57-1.13-1.27-.72l-85.19,49.17a2.81,2.81,0,0,0-1.26,2.19v21.73C289.09,155.07,289.65,155.39,290.35,155Z"/><path class="cls-8" d="M298.2,137.67a1.74,1.74,0,0,1,.06-.45,1.68,1.68,0,0,1,.17-.41,1.72,1.72,0,0,1,.24-.34,1.42,1.42,0,0,1,.28-.23.57.57,0,0,1,.29-.09.39.39,0,0,1,.24,0,.44.44,0,0,1,.17.22,1,1,0,0,1,.06.37,1.69,1.69,0,0,1,0,.23,1.6,1.6,0,0,1-.05.21c0,.06,0,.13-.06.2a1.34,1.34,0,0,1-.07.18L299,139a.14.14,0,0,0,0,.06s0,.05-.06.06l-.41.24h0a.11.11,0,0,1,0-.06v0a0,0,0,0,0,0,0l.33-.91a.41.41,0,0,1-.24,0,.37.37,0,0,1-.2-.09.46.46,0,0,1-.14-.21A.89.89,0,0,1,298.2,137.67Zm1-.6a.25.25,0,0,0,0-.13.12.12,0,0,0-.06-.08l-.09,0-.11,0-.1.08-.09.13a.34.34,0,0,0-.06.15.4.4,0,0,0,0,.15.29.29,0,0,0,0,.14.11.11,0,0,0,.06.07.1.1,0,0,0,.09,0,.19.19,0,0,0,.1,0,.31.31,0,0,0,.11-.09l.09-.12a.47.47,0,0,0,.06-.15A.41.41,0,0,0,299.23,137.07Z"/><path class="cls-8" d="M300.69,135.24a.64.64,0,0,1,.33-.11.32.32,0,0,1,.23.11.5.5,0,0,1,.14.26,1.52,1.52,0,0,1,.05.38c0,.12,0,.23,0,.36s0,.24,0,.35a2.3,2.3,0,0,1-.05.45,1.48,1.48,0,0,1-.14.42,1.43,1.43,0,0,1-.23.37,1.12,1.12,0,0,1-.33.28.64.64,0,0,1-.34.11.37.37,0,0,1-.23-.1.86.86,0,0,1-.14-.27,2.18,2.18,0,0,1-.05-.38v-.71a3.44,3.44,0,0,1,.05-.45,2.59,2.59,0,0,1,.14-.42,1.76,1.76,0,0,1,.23-.37A1.3,1.3,0,0,1,300.69,135.24Zm.27,1.61c0-.23,0-.45,0-.67a.91.91,0,0,0,0-.17.33.33,0,0,0-.05-.12.1.1,0,0,0-.08,0,.18.18,0,0,0-.13,0,.35.35,0,0,0-.13.11.39.39,0,0,0-.08.14,1,1,0,0,0-.05.18,1.11,1.11,0,0,0,0,.19c0,.23,0,.45,0,.67a.79.79,0,0,0,0,.17.34.34,0,0,0,0,.12s0,0,.09,0a.19.19,0,0,0,.13,0,.45.45,0,0,0,.13-.11.64.64,0,0,0,.08-.14A1.21,1.21,0,0,0,301,137,1.15,1.15,0,0,0,301,136.85Z"/><path class="cls-8" d="M302.48,134.79a1.5,1.5,0,0,1,0,.3.88.88,0,0,1,0,.24,2,2,0,0,1-.07.23,1.27,1.27,0,0,1-.13.19.65.65,0,0,1-.18.15.41.41,0,0,1-.17,0,.17.17,0,0,1-.13,0,.32.32,0,0,1-.07-.13.66.66,0,0,1,0-.21.71.71,0,0,1,0-.14.92.92,0,0,1,0-.16,1,1,0,0,1,0-.24,1.42,1.42,0,0,1,.07-.22,1.37,1.37,0,0,1,.13-.2l.17-.14a.38.38,0,0,1,.18-.06.17.17,0,0,1,.12,0,.27.27,0,0,1,.08.14A.6.6,0,0,1,302.48,134.79Zm.65-.84a.2.2,0,0,1,0-.08.12.12,0,0,1,.05-.05l.21-.13h.05a.06.06,0,0,1,0,.05v0a0,0,0,0,1,0,0l-1.27,3.33,0,.08s0,0-.06.05l-.21.12h0a.07.07,0,0,1,0,0v0a0,0,0,0,1,0,0ZM302,135.37a.24.24,0,0,0,0,.14s0,0,.07,0a.19.19,0,0,0,.08-.1.4.4,0,0,0,0-.17,1.22,1.22,0,0,0,0-.27.26.26,0,0,0,0-.14s0,0-.08,0a.15.15,0,0,0-.07.1.4.4,0,0,0,0,.17A1.13,1.13,0,0,0,302,135.37Zm1.71.12a1.6,1.6,0,0,1,0,.31.85.85,0,0,1,0,.23.88.88,0,0,1-.07.23,1.27,1.27,0,0,1-.13.19.8.8,0,0,1-.17.15.28.28,0,0,1-.18.05.13.13,0,0,1-.12-.05.24.24,0,0,1-.08-.13.64.64,0,0,1,0-.2c0-.06,0-.1,0-.15s0-.1,0-.16a1,1,0,0,1,0-.24.83.83,0,0,1,.08-.22.76.76,0,0,1,.12-.19.65.65,0,0,1,.18-.15.32.32,0,0,1,.17-.06.21.21,0,0,1,.13.05.46.46,0,0,1,.07.14A.64.64,0,0,1,303.68,135.49Zm-.51.58a.22.22,0,0,0,0,.14s0,0,.08,0a.18.18,0,0,0,.07-.1.4.4,0,0,0,0-.17,1.13,1.13,0,0,0,0-.26.22.22,0,0,0,0-.14s0,0-.07,0a.16.16,0,0,0-.08.1.4.4,0,0,0,0,.17A1.13,1.13,0,0,0,303.17,136.07Z"/><path class="cls-8" d="M301,129.91v-2.23a9.58,9.58,0,0,0-3.27,3.52l.85,1.32A7.16,7.16,0,0,1,301,129.91Z"/><path class="cls-5" d="M306.24,130.54a4.64,4.64,0,0,0-2-3.11,3.23,3.23,0,0,0-3.27.25v2.23a2.38,2.38,0,0,1,2.41-.18,3.4,3.4,0,0,1,1.49,2.3,7.89,7.89,0,0,1,.21,1.84,11.27,11.27,0,0,1-.21,2.07,12.74,12.74,0,0,1-1.49,4,7.14,7.14,0,0,1-2.41,2.61,2.4,2.4,0,0,1-2.42.18,3.4,3.4,0,0,1-1.49-2.3,7.85,7.85,0,0,1-.2-1.84,11.25,11.25,0,0,1,.2-2.07,12.74,12.74,0,0,1,1.49-4l-.85-1.32a17,17,0,0,0-2,5.45,14.85,14.85,0,0,0-.28,2.8,10.41,10.41,0,0,0,.28,2.49,4.57,4.57,0,0,0,2,3.12,3.26,3.26,0,0,0,3.27-.26,9.67,9.67,0,0,0,3.27-3.52h0a17.44,17.44,0,0,0,2-5.45,15.71,15.71,0,0,0,.27-2.8A11,11,0,0,0,306.24,130.54Z"/><path class="cls-8" d="M314.8,124.42l25.92-15c.7-.4,1.27-.11,1.27.64a2.7,2.7,0,0,1-1.27,2.1l-25.92,15c-.7.4-1.26.11-1.26-.64A2.69,2.69,0,0,1,314.8,124.42Z"/><path class="cls-11" d="M314.8,129.94,359.69,104c.7-.4,1.26-.12,1.26.64a2.72,2.72,0,0,1-1.26,2.1l-44.89,25.9c-.7.41-1.26.12-1.26-.64A2.69,2.69,0,0,1,314.8,129.94Z"/><path class="cls-8" d="M206.58,214.33l18.18-10.53c.7-.4,1.27-.11,1.27.64a2.7,2.7,0,0,1-1.27,2.1l-18.18,10.53c-.7.4-1.26.11-1.26-.64A2.69,2.69,0,0,1,206.58,214.33Z"/><path class="cls-11" d="M376.18,123.21h0m-.54.31V262.38a1.64,1.64,0,0,1-.68,1.18L197.81,365.84V227a1.64,1.64,0,0,1,.68-1.18l2.21-1.28a4,4,0,0,0,1.85-3.2v-8a1.66,1.66,0,0,1,.68-1.18l25.43-14.68v7.47a1.91,1.91,0,0,0,1.87,2.07,2.23,2.23,0,0,0,1.14-.33l144-83.12M229.2,197.12h0m146.91-75.07a1.11,1.11,0,0,0-.56.18l-144.46,83.4a1.19,1.19,0,0,1-.56.17c-.42,0-.7-.33-.7-.9v-8c0-.58-.29-.91-.7-.91a1.17,1.17,0,0,0-.57.18l-25.92,15a2.81,2.81,0,0,0-1.26,2.19v8a2.8,2.8,0,0,1-1.26,2.19l-2.22,1.28a2.78,2.78,0,0,0-1.26,2.19V366.41c0,.57.28.9.7.9a1.19,1.19,0,0,0,.56-.17L375.55,264.57a2.8,2.8,0,0,0,1.26-2.19V123c0-.58-.29-.91-.7-.91Z"/><path class="cls-11" d="M208.06,233a1.22,1.22,0,0,1-.62-.16,1.48,1.48,0,0,1-.66-1.33v-5.29a3.36,3.36,0,0,1,1.56-2.69l14.08-8.13a1.35,1.35,0,0,1,2.14,1.24V222a3.41,3.41,0,0,1-1.55,2.7l-14.09,8.12A1.69,1.69,0,0,1,208.06,233Zm.86-8.46a2.2,2.2,0,0,0-1,1.68v5.29c0,.2.05.3.08.32a.48.48,0,0,0,.31-.09l14.08-8.12a2.23,2.23,0,0,0,1-1.69v-5.29a.44.44,0,0,0-.08-.31s-.14,0-.31.08Z"/><path class="cls-11" d="M209.76,226.76l9.18-5.33c.46-.27.84-.08.84.43a1.79,1.79,0,0,1-.84,1.39l-9.18,5.33c-.47.27-.85.08-.85-.42A1.8,1.8,0,0,1,209.76,226.76Z"/><path class="cls-8" d="M221.07,220.56l.76,1.08s.09,0,.12-.07l.76-2c0-.09,0-.18-.06-.14l-1.52.87A.21.21,0,0,0,221.07,220.56Z"/><path class="cls-5" d="M206.12,284.34c.67-.39,1.22-.08,1.22.7a2.7,2.7,0,0,1-1.22,2.11c-.67.39-1.22.07-1.22-.7A2.68,2.68,0,0,1,206.12,284.34Z"/><path class="cls-5" d="M215.6,273.39c.68-.39,1.22-.08,1.22.7a2.67,2.67,0,0,1-1.22,2.11c-.67.39-1.21.07-1.21-.7A2.67,2.67,0,0,1,215.6,273.39Z"/><path class="cls-5" d="M225.09,267.91c.67-.39,1.21-.07,1.21.7a2.67,2.67,0,0,1-1.21,2.11c-.68.39-1.22.08-1.22-.7A2.67,2.67,0,0,1,225.09,267.91Z"/><path class="cls-5" d="M234.57,264.84c.67-.39,1.22-.07,1.22.7a2.68,2.68,0,0,1-1.22,2.11c-.67.39-1.22.08-1.22-.7A2.7,2.7,0,0,1,234.57,264.84Z"/><path class="cls-5" d="M244.06,255c.68-.39,1.22-.07,1.22.7a2.69,2.69,0,0,1-1.22,2.12c-.67.38-1.22.07-1.22-.71A2.7,2.7,0,0,1,244.06,255Z"/><path class="cls-5" d="M253.53,251.49c.68-.39,1.22-.08,1.22.7a2.67,2.67,0,0,1-1.22,2.11c-.67.39-1.21.07-1.21-.7A2.67,2.67,0,0,1,253.53,251.49Z"/><path class="cls-5" d="M263,240.54c.67-.39,1.21-.08,1.21.7a2.69,2.69,0,0,1-1.21,2.11c-.68.39-1.22.07-1.22-.7A2.66,2.66,0,0,1,263,240.54Z"/><path class="cls-5" d="M272.5,237.8c.67-.39,1.22-.07,1.22.7a2.7,2.7,0,0,1-1.22,2.11c-.67.39-1.22.08-1.22-.7A2.7,2.7,0,0,1,272.5,237.8Z"/><path class="cls-5" d="M282,207.69c.68-.39,1.22-.08,1.22.7A2.67,2.67,0,0,1,282,210.5c-.67.39-1.22.07-1.22-.7A2.7,2.7,0,0,1,282,207.69Z"/><path class="cls-5" d="M291.46,224.11c.68-.39,1.22-.07,1.22.71a2.69,2.69,0,0,1-1.22,2.11c-.67.38-1.21.07-1.21-.71A2.7,2.7,0,0,1,291.46,224.11Z"/><path class="cls-5" d="M301,224.11c.67-.39,1.22-.07,1.22.71a2.72,2.72,0,0,1-1.22,2.11c-.68.38-1.22.07-1.22-.71A2.69,2.69,0,0,1,301,224.11Z"/><path class="cls-5" d="M310.43,224.11c.67-.39,1.22-.07,1.22.71a2.72,2.72,0,0,1-1.22,2.11c-.67.38-1.22.07-1.22-.71A2.72,2.72,0,0,1,310.43,224.11Z"/><path class="cls-5" d="M319.91,207.69c.68-.39,1.22-.08,1.22.7a2.67,2.67,0,0,1-1.22,2.11c-.67.39-1.22.08-1.22-.7A2.7,2.7,0,0,1,319.91,207.69Z"/><path class="cls-5" d="M329.4,204.54c.67-.39,1.21-.07,1.21.7a2.67,2.67,0,0,1-1.21,2.11c-.68.39-1.22.08-1.22-.7A2.67,2.67,0,0,1,329.4,204.54Z"/><path class="cls-5" d="M338.91,191.26c.67-.39,1.22-.07,1.22.71a2.72,2.72,0,0,1-1.22,2.11c-.67.39-1.22.07-1.22-.71A2.72,2.72,0,0,1,338.91,191.26Z"/><ellipse class="cls-5" cx="348.36" cy="192.67" rx="1.72" ry="0.99" transform="translate(7.33 398.04) rotate(-60)"/><ellipse class="cls-5" cx="357.84" cy="192.67" rx="1.72" ry="0.99" transform="translate(12.08 406.25) rotate(-60)"/><path class="cls-5" d="M367.33,185.79c.67-.39,1.21-.08,1.21.7a2.69,2.69,0,0,1-1.21,2.11c-.68.39-1.22.08-1.22-.7A2.67,2.67,0,0,1,367.33,185.79Z"/><path class="cls-5" d="M206.1,286.05a.37.37,0,0,1-.2-.07.3.3,0,0,1,0-.42l9.57-11,.08-.06,9.41-5.43,9.47-3.08,9.43-9.8a.28.28,0,0,1,.11-.08l9.41-3.46,9.44-10.9a.28.28,0,0,1,.14-.09l9.33-2.69,9.43-30a.33.33,0,0,1,.25-.21.32.32,0,0,1,.29.15l9.39,16.28,9.34,0,9.29,0,9.4-16.28a.29.29,0,0,1,.16-.13l9.39-3.12,9.43-13.2a.29.29,0,0,1,.24-.12h18.88l9.42-5.44a.29.29,0,0,1,.29.51L358,192.92a.28.28,0,0,1-.15,0H339l-9.4,13.16a.21.21,0,0,1-.14.1l-9.38,3.12-9.43,16.32a.29.29,0,0,1-.25.15h-19a.29.29,0,0,1-.25-.15l-9.15-15.84-9.28,29.47a.31.31,0,0,1-.2.2l-9.4,2.71-9.43,10.88a.27.27,0,0,1-.12.09l-9.42,3.47-9.43,9.81a.37.37,0,0,1-.12.07l-9.48,3.08L215.86,275l-9.54,11A.32.32,0,0,1,206.1,286.05Z"/><path class="cls-11" d="M206.12,291.8a.56.56,0,0,1-.5-.29.58.58,0,0,1,.21-.8L367,197.64a.58.58,0,1,1,.59,1L206.41,291.72A.51.51,0,0,1,206.12,291.8Z"/><path class="cls-3" d="M206.12,278.86c.67-.39,1.22-.07,1.22.7a2.68,2.68,0,0,1-1.22,2.11c-.67.39-1.22.08-1.22-.7A2.7,2.7,0,0,1,206.12,278.86Z"/><path class="cls-3" d="M215.6,262.44c.68-.39,1.22-.08,1.22.7a2.67,2.67,0,0,1-1.22,2.11c-.67.39-1.22.07-1.22-.7A2.68,2.68,0,0,1,215.6,262.44Z"/><ellipse class="cls-3" cx="225.09" cy="261.79" rx="1.72" ry="0.99" transform="translate(-114.17 325.84) rotate(-60)"/><path class="cls-3" d="M234.57,240.54c.67-.39,1.22-.08,1.22.7a2.7,2.7,0,0,1-1.22,2.11c-.67.39-1.22.07-1.22-.7A2.68,2.68,0,0,1,234.57,240.54Z"/><path class="cls-3" d="M244.06,246c.68-.39,1.22-.07,1.22.7a2.69,2.69,0,0,1-1.22,2.12c-.67.38-1.22.07-1.22-.71A2.7,2.7,0,0,1,244.06,246Z"/><path class="cls-3" d="M253.54,243.27c.67-.38,1.21-.07,1.21.71a2.7,2.7,0,0,1-1.21,2.11c-.68.39-1.22.07-1.22-.71A2.69,2.69,0,0,1,253.54,243.27Z"/><path class="cls-3" d="M263,235.06c.67-.39,1.21-.07,1.21.71a2.7,2.7,0,0,1-1.21,2.11c-.68.38-1.22.07-1.22-.71A2.67,2.67,0,0,1,263,235.06Z"/><path class="cls-3" d="M272.5,224.11c.67-.39,1.22-.07,1.22.71a2.72,2.72,0,0,1-1.22,2.11c-.67.38-1.22.07-1.22-.71A2.72,2.72,0,0,1,272.5,224.11Z"/><path class="cls-3" d="M282,221.37c.68-.38,1.22-.07,1.22.71a2.67,2.67,0,0,1-1.22,2.11c-.67.39-1.22.07-1.22-.7A2.72,2.72,0,0,1,282,221.37Z"/><path class="cls-3" d="M291.46,213.16c.68-.39,1.22-.07,1.22.71a2.69,2.69,0,0,1-1.22,2.11c-.67.38-1.21.07-1.21-.71A2.7,2.7,0,0,1,291.46,213.16Z"/><path class="cls-3" d="M301,213.16c.67-.39,1.22-.07,1.22.71A2.72,2.72,0,0,1,301,216c-.68.38-1.22.07-1.22-.71A2.69,2.69,0,0,1,301,213.16Z"/><path class="cls-3" d="M310.43,191.26c.67-.39,1.22-.07,1.22.71a2.72,2.72,0,0,1-1.22,2.11c-.67.39-1.22.07-1.22-.71A2.72,2.72,0,0,1,310.43,191.26Z"/><path class="cls-3" d="M319.91,202.13c.68-.38,1.22-.07,1.22.71a2.67,2.67,0,0,1-1.22,2.11c-.67.39-1.22.07-1.22-.7A2.72,2.72,0,0,1,319.91,202.13Z"/><path class="cls-3" d="M329.4,191.26c.67-.39,1.21-.07,1.21.71a2.7,2.7,0,0,1-1.21,2.11c-.68.39-1.22.07-1.22-.71A2.69,2.69,0,0,1,329.4,191.26Z"/><path class="cls-3" d="M338.88,185.79c.67-.39,1.22-.08,1.22.7a2.7,2.7,0,0,1-1.22,2.11c-.68.39-1.22.08-1.22-.7A2.67,2.67,0,0,1,338.88,185.79Z"/><path class="cls-3" d="M348.36,185.79c.67-.39,1.22-.08,1.22.7a2.7,2.7,0,0,1-1.22,2.11c-.67.39-1.22.08-1.22-.7A2.7,2.7,0,0,1,348.36,185.79Z"/><path class="cls-3" d="M357.84,180.31c.68-.39,1.22-.07,1.22.71a2.69,2.69,0,0,1-1.22,2.11c-.67.39-1.21.07-1.21-.71A2.7,2.7,0,0,1,357.84,180.31Z"/><path class="cls-3" d="M367.33,180.31c.67-.39,1.21-.07,1.21.71a2.7,2.7,0,0,1-1.21,2.11c-.68.39-1.22.07-1.22-.71A2.69,2.69,0,0,1,367.33,180.31Z"/><path class="cls-3" d="M206.12,280.56a.23.23,0,0,1-.14,0,.29.29,0,0,1-.11-.4l9.55-16.46a.3.3,0,0,1,.19-.14l9.27-2,9.42-19.72a.31.31,0,0,1,.18-.16.31.31,0,0,1,.23,0l9.39,5.42,9.29-2.69,9.42-8.16,9.47-10.93a.26.26,0,0,1,.14-.09l9.42-2.72,9.43-8.17a.28.28,0,0,1,.19-.07h9.3l9.4-21.73a.31.31,0,0,1,.23-.17.3.3,0,0,1,.26.1l9.26,10.69,9.26-10.69a.21.21,0,0,1,.08-.06l9.52-5.5a.33.33,0,0,1,.14,0h9.41l9.38-5.41a.23.23,0,0,1,.14,0h9.49a.29.29,0,0,1,0,.58h-9.41l-9.38,5.42a.37.37,0,0,1-.15,0H339l-9.41,5.43-9.45,10.91a.3.3,0,0,1-.44,0l-9.18-10.6-9.29,21.47a.3.3,0,0,1-.27.18h-9.38l-9.4,8.14a.24.24,0,0,1-.11.06l-9.4,2.72-9.44,10.89-9.49,8.23a.3.3,0,0,1-.11.06l-9.48,2.74a.24.24,0,0,1-.22,0l-9.22-5.33-9.35,19.57a.29.29,0,0,1-.2.16l-9.29,2-9.49,16.35A.27.27,0,0,1,206.12,280.56Z"/><g class="cls-17"><path class="cls-3" d="M206.12,278.86c.67-.39,1.22-.07,1.22.7a2.68,2.68,0,0,1-1.22,2.11c-.67.39-1.22.08-1.22-.7A2.7,2.7,0,0,1,206.12,278.86Z"/><path class="cls-3" d="M215.6,262.44c.68-.39,1.22-.08,1.22.7a2.67,2.67,0,0,1-1.22,2.11c-.67.39-1.22.07-1.22-.7A2.68,2.68,0,0,1,215.6,262.44Z"/><ellipse class="cls-3" cx="225.09" cy="261.79" rx="1.72" ry="0.99" transform="translate(-114.17 325.84) rotate(-60)"/><path class="cls-3" d="M234.57,240.54c.67-.39,1.22-.08,1.22.7a2.7,2.7,0,0,1-1.22,2.11c-.67.39-1.22.07-1.22-.7A2.68,2.68,0,0,1,234.57,240.54Z"/><path class="cls-3" d="M244.06,246c.68-.39,1.22-.07,1.22.7a2.69,2.69,0,0,1-1.22,2.12c-.67.38-1.22.07-1.22-.71A2.7,2.7,0,0,1,244.06,246Z"/><path class="cls-3" d="M253.54,243.27c.67-.38,1.21-.07,1.21.71a2.7,2.7,0,0,1-1.21,2.11c-.68.39-1.22.07-1.22-.71A2.69,2.69,0,0,1,253.54,243.27Z"/><path class="cls-3" d="M263,235.06c.67-.39,1.21-.07,1.21.71a2.7,2.7,0,0,1-1.21,2.11c-.68.38-1.22.07-1.22-.71A2.67,2.67,0,0,1,263,235.06Z"/><path class="cls-3" d="M272.5,224.11c.67-.39,1.22-.07,1.22.71a2.72,2.72,0,0,1-1.22,2.11c-.67.38-1.22.07-1.22-.71A2.72,2.72,0,0,1,272.5,224.11Z"/><path class="cls-3" d="M282,221.37c.68-.38,1.22-.07,1.22.71a2.67,2.67,0,0,1-1.22,2.11c-.67.39-1.22.07-1.22-.7A2.72,2.72,0,0,1,282,221.37Z"/><path class="cls-3" d="M291.46,213.16c.68-.39,1.22-.07,1.22.71a2.69,2.69,0,0,1-1.22,2.11c-.67.38-1.21.07-1.21-.71A2.7,2.7,0,0,1,291.46,213.16Z"/><path class="cls-3" d="M301,213.16c.67-.39,1.22-.07,1.22.71A2.72,2.72,0,0,1,301,216c-.68.38-1.22.07-1.22-.71A2.69,2.69,0,0,1,301,213.16Z"/><path class="cls-3" d="M310.43,191.26c.67-.39,1.22-.07,1.22.71a2.72,2.72,0,0,1-1.22,2.11c-.67.39-1.22.07-1.22-.71A2.72,2.72,0,0,1,310.43,191.26Z"/><path class="cls-3" d="M319.91,202.13c.68-.38,1.22-.07,1.22.71a2.67,2.67,0,0,1-1.22,2.11c-.67.39-1.22.07-1.22-.7A2.72,2.72,0,0,1,319.91,202.13Z"/><path class="cls-3" d="M329.4,191.26c.67-.39,1.21-.07,1.21.71a2.7,2.7,0,0,1-1.21,2.11c-.68.39-1.22.07-1.22-.71A2.69,2.69,0,0,1,329.4,191.26Z"/><path class="cls-3" d="M338.88,185.79c.67-.39,1.22-.08,1.22.7a2.7,2.7,0,0,1-1.22,2.11c-.68.39-1.22.08-1.22-.7A2.67,2.67,0,0,1,338.88,185.79Z"/><path class="cls-3" d="M348.36,185.79c.67-.39,1.22-.08,1.22.7a2.7,2.7,0,0,1-1.22,2.11c-.67.39-1.22.08-1.22-.7A2.7,2.7,0,0,1,348.36,185.79Z"/><path class="cls-3" d="M357.84,180.31c.68-.39,1.22-.07,1.22.71a2.69,2.69,0,0,1-1.22,2.11c-.67.39-1.21.07-1.21-.71A2.7,2.7,0,0,1,357.84,180.31Z"/><path class="cls-3" d="M367.33,180.31c.67-.39,1.21-.07,1.21.71a2.7,2.7,0,0,1-1.21,2.11c-.68.39-1.22.07-1.22-.71A2.69,2.69,0,0,1,367.33,180.31Z"/><path class="cls-3" d="M206.12,280.56a.23.23,0,0,1-.14,0,.29.29,0,0,1-.11-.4l9.55-16.46a.3.3,0,0,1,.19-.14l9.27-2,9.42-19.72a.31.31,0,0,1,.18-.16.31.31,0,0,1,.23,0l9.39,5.42,9.29-2.69,9.42-8.16,9.47-10.93a.26.26,0,0,1,.14-.09l9.42-2.72,9.43-8.17a.28.28,0,0,1,.19-.07h9.3l9.4-21.73a.31.31,0,0,1,.23-.17.3.3,0,0,1,.26.1l9.26,10.69,9.26-10.69a.21.21,0,0,1,.08-.06l9.52-5.5a.33.33,0,0,1,.14,0h9.41l9.38-5.41a.23.23,0,0,1,.14,0h9.49a.29.29,0,0,1,0,.58h-9.41l-9.38,5.42a.37.37,0,0,1-.15,0H339l-9.41,5.43-9.45,10.91a.3.3,0,0,1-.44,0l-9.18-10.6-9.29,21.47a.3.3,0,0,1-.27.18h-9.38l-9.4,8.14a.24.24,0,0,1-.11.06l-9.4,2.72-9.44,10.89-9.49,8.23a.3.3,0,0,1-.11.06l-9.48,2.74a.24.24,0,0,1-.22,0l-9.22-5.33-9.35,19.57a.29.29,0,0,1-.2.16l-9.29,2-9.49,16.35A.27.27,0,0,1,206.12,280.56Z"/></g><path class="cls-11" d="M211.09,238.24l9.18-5.33c.46-.27.84-.08.84.42a1.81,1.81,0,0,1-.84,1.4l-9.18,5.33c-.47.27-.84.08-.84-.43A1.77,1.77,0,0,1,211.09,238.24Z"/><path class="cls-2" d="M206.12,240.54c.67-.39,1.22-.08,1.22.7a2.7,2.7,0,0,1-1.22,2.11c-.67.39-1.22.07-1.22-.7A2.7,2.7,0,0,1,206.12,240.54Z"/><path class="cls-18" d="M206.12,240.54c.67-.39,1.22-.08,1.22.7a2.7,2.7,0,0,1-1.22,2.11c-.67.39-1.22.07-1.22-.7A2.7,2.7,0,0,1,206.12,240.54Z"/><path class="cls-11" d="M211.09,243.7l9.18-5.33c.46-.27.84-.08.84.42a1.81,1.81,0,0,1-.84,1.4l-9.18,5.33c-.47.27-.84.08-.84-.43A1.77,1.77,0,0,1,211.09,243.7Z"/><path class="cls-2" d="M206.12,246c.67-.39,1.22-.07,1.22.7a2.72,2.72,0,0,1-1.22,2.12c-.67.38-1.22.07-1.22-.71A2.7,2.7,0,0,1,206.12,246Z"/><path class="cls-5" d="M206.12,319a.3.3,0,0,1-.2-.08.29.29,0,0,1,0-.41l4.81-5,4.73-.6,4.77-6.16,4.77.65,4.64-4.19,4.74-2.84,4.83-6.69L244,295.2l4.61-4.12a.29.29,0,1,1,.39.43l-4.86,4.34-4.71-1.47-4.7,6.48L230,303.69l-4.8,4.34-4.71-.65-4.71,6.09-4.76.6-4.67,4.8A.29.29,0,0,1,206.12,319Z"/><path class="cls-8" d="M208,303l.12-.11.13-.09a1.28,1.28,0,0,1,.71-.21.84.84,0,0,1,.57.21,1.38,1.38,0,0,1,.38.6,3,3,0,0,1,.13.94,4.51,4.51,0,0,1-.13,1.09,5.16,5.16,0,0,1-.38,1,4.36,4.36,0,0,1-.57.87,2.85,2.85,0,0,1-.71.61,1.35,1.35,0,0,1-.72.22.9.9,0,0,1-.57-.22,1.38,1.38,0,0,1-.38-.6,2.86,2.86,0,0,1-.13-.93,4.08,4.08,0,0,1,0-.61,5.78,5.78,0,0,1,.12-.57c0-.18.1-.36.16-.54l.18-.51,1.27-3.59a1.71,1.71,0,0,0,.07-.18.36.36,0,0,1,.14-.16l.4-.23a.08.08,0,0,1,.1,0,.3.3,0,0,1,0,.15s0,.06,0,.09l0,.07Zm-.89,3a1.64,1.64,0,0,0,.08.57.93.93,0,0,0,.22.38.58.58,0,0,0,.36.15.89.89,0,0,0,.48-.14,1.8,1.8,0,0,0,.47-.41,3,3,0,0,0,.36-.56,3,3,0,0,0,.22-.64,2.53,2.53,0,0,0,.08-.66,1.61,1.61,0,0,0-.08-.56.83.83,0,0,0-.22-.38.54.54,0,0,0-.36-.16.93.93,0,0,0-.47.14,1.87,1.87,0,0,0-.48.41,2.76,2.76,0,0,0-.36.57,3.45,3.45,0,0,0-.22.64A2.46,2.46,0,0,0,207.11,306Z"/><path class="cls-8" d="M211.22,304.27a1.42,1.42,0,0,0,.1.29.35.35,0,0,0,.19.19.57.57,0,0,0,.33,0,1.61,1.61,0,0,0,.53-.22,2.33,2.33,0,0,0,.41-.31,2.65,2.65,0,0,0,.34-.45,3.13,3.13,0,0,0,.23-.56,2.27,2.27,0,0,0,.08-.65,1.34,1.34,0,0,0-.08-.54.46.46,0,0,0-.22-.25.49.49,0,0,0-.34,0,1.47,1.47,0,0,0-.42.18l-.58.33a.09.09,0,0,1-.13,0,.22.22,0,0,1-.06-.17v-.39a.65.65,0,0,1,0-.19c0-.07.05-.13.07-.19l1.25-2.8-2,1.16c-.06,0-.1,0-.14,0a.26.26,0,0,1-.05-.17v-.38a.69.69,0,0,1,.05-.24.32.32,0,0,1,.14-.16l2.73-1.58a.09.09,0,0,1,.13,0,.21.21,0,0,1,.06.17v.38a.78.78,0,0,1,0,.21,1.36,1.36,0,0,1-.09.23l-1.23,2.75a1.47,1.47,0,0,1,.64-.2.7.7,0,0,1,.49.15,1.08,1.08,0,0,1,.32.5,2.52,2.52,0,0,1,.11.84,4.22,4.22,0,0,1-.13,1.06,4.62,4.62,0,0,1-.38.94,3.8,3.8,0,0,1-.54.77,3,3,0,0,1-.67.54,2.05,2.05,0,0,1-.8.3.84.84,0,0,1-.56-.12.88.88,0,0,1-.33-.42,1.71,1.71,0,0,1-.11-.62.41.41,0,0,1,0-.19.25.25,0,0,1,.11-.13l.32-.19q.08,0,.12,0A.23.23,0,0,1,211.22,304.27Z"/><path class="cls-8" d="M215.35,301.89a1.66,1.66,0,0,0,.1.29.41.41,0,0,0,.18.19.59.59,0,0,0,.33,0,1.79,1.79,0,0,0,.54-.22,1.94,1.94,0,0,0,.4-.32,1.9,1.9,0,0,0,.34-.45,2.48,2.48,0,0,0,.24-.55,2.69,2.69,0,0,0,.08-.65,1.34,1.34,0,0,0-.08-.54.44.44,0,0,0-.23-.25.51.51,0,0,0-.33,0,1.47,1.47,0,0,0-.42.18l-.58.34a.12.12,0,0,1-.13,0,.24.24,0,0,1-.06-.17v-.39a.51.51,0,0,1,0-.2l.07-.18,1.25-2.8-2,1.16a.1.1,0,0,1-.13,0,.23.23,0,0,1-.05-.17v-.39a.46.46,0,0,1,.05-.23.4.4,0,0,1,.13-.17l2.74-1.57a.09.09,0,0,1,.13,0s0,.09,0,.17v.38a.82.82,0,0,1,0,.21,1.36,1.36,0,0,1-.09.23l-1.23,2.75a1.46,1.46,0,0,1,.64-.21.76.76,0,0,1,.49.16,1,1,0,0,1,.32.5,2.78,2.78,0,0,1,.11.83,3.72,3.72,0,0,1-.14,1.06,3.92,3.92,0,0,1-.37.94,3.27,3.27,0,0,1-.55.77,3,3,0,0,1-.66.55,2,2,0,0,1-.81.3.81.81,0,0,1-.55-.12.87.87,0,0,1-.33-.42,1.71,1.71,0,0,1-.11-.62.48.48,0,0,1,0-.2.36.36,0,0,1,.11-.13l.32-.18q.08,0,.12,0A.23.23,0,0,1,215.35,301.89Z"/><path class="cls-11" d="M207,322.73,248,299c.47-.27.84-.08.84.42a1.79,1.79,0,0,1-.84,1.4l-41,23.74c-.47.27-.84.08-.84-.42A1.8,1.8,0,0,1,207,322.73Z"/><path class="cls-11" d="M207,295.34l9.18-5.33c.47-.26.84-.07.84.43a1.8,1.8,0,0,1-.84,1.4L207,297.17c-.47.26-.84.07-.84-.43A1.8,1.8,0,0,1,207,295.34Z"/><path class="cls-2" d="M206.12,351.78a.3.3,0,0,1-.2-.08.29.29,0,0,1,0-.41l4.81-5,4.76-.6,4.79-4.19,4.61-1.26,4.82-9.58,4.82,2.37,4.66-4.11h.08l4.62-.88,4.66-8.06a.29.29,0,0,1,.4-.11.29.29,0,0,1,.11.4l-4.8,8.3-4.81.91-4.82,4.25L230,331.49l-4.67,9.3-4.8,1.31-4.76,4.19-4.73.6-4.67,4.8A.29.29,0,0,1,206.12,351.78Z"/><path class="cls-3" d="M206.12,351.78a.3.3,0,0,1-.2-.08.29.29,0,0,1,0-.41l4.81-5,4.76-.6,4.79-4.19,4.61-1.26,4.82-9.58,4.82,2.37,4.66-4.11h.08l4.62-.88,4.66-8.06a.29.29,0,0,1,.4-.11.29.29,0,0,1,.11.4l-4.8,8.3-4.81.91-4.82,4.25L230,331.49l-4.67,9.3-4.8,1.31-4.76,4.19-4.73.6-4.67,4.8A.29.29,0,0,1,206.12,351.78Z"/><path class="cls-8" d="M208.54,340.16a.5.5,0,0,1,0,.23.36.36,0,0,1-.13.16l-.29.17a.1.1,0,0,1-.13,0,.22.22,0,0,1-.06-.17v-5.89l-1.12,2a.29.29,0,0,1-.14.15.11.11,0,0,1-.12,0l-.17-.23a.37.37,0,0,1,0-.2.53.53,0,0,1,.08-.23l1.48-2.61a.57.57,0,0,1,.11-.14l.11-.07.29-.17a.12.12,0,0,1,.13,0,.23.23,0,0,1,0,.17Z"/><path class="cls-8" d="M211.58,334.76a5.16,5.16,0,0,0,.31-.77,3,3,0,0,0,.1-.83,1.31,1.31,0,0,0-.21-.83c-.15-.17-.37-.16-.68,0a1.57,1.57,0,0,0-.42.34,2.35,2.35,0,0,0-.28.46,2.55,2.55,0,0,0-.18.53c0,.19-.08.37-.11.56a.63.63,0,0,1-.07.22.3.3,0,0,1-.11.13l-.32.18a.08.08,0,0,1-.11,0,.2.2,0,0,1,0-.14,3.49,3.49,0,0,1,.12-.87,4.57,4.57,0,0,1,.32-.92,4.48,4.48,0,0,1,.51-.84,2.2,2.2,0,0,1,.69-.61,1.23,1.23,0,0,1,.67-.21.69.69,0,0,1,.48.21,1.29,1.29,0,0,1,.3.56,2.88,2.88,0,0,1,.1.82,6.4,6.4,0,0,1,0,.64,4.25,4.25,0,0,1-.12.6,4.69,4.69,0,0,1-.2.6c-.09.21-.19.43-.31.66l-1.55,3.12,2.13-1.23a.09.09,0,0,1,.13,0,.21.21,0,0,1,.06.17v.38a.53.53,0,0,1-.06.24.36.36,0,0,1-.13.16l-3,1.73a.1.1,0,0,1-.13,0,.22.22,0,0,1-.06-.17v-.39a.54.54,0,0,1,0-.22,2.2,2.2,0,0,1,.11-.27Z"/><path class="cls-8" d="M217.06,330.89c0,.32,0,.62,0,.9s0,.58,0,.91a7.1,7.1,0,0,1-.11,1.22,5.59,5.59,0,0,1-.32,1.12,3.87,3.87,0,0,1-.55.93,2.66,2.66,0,0,1-.78.68,1.29,1.29,0,0,1-.79.23.78.78,0,0,1-.55-.3,1.86,1.86,0,0,1-.32-.75,5.08,5.08,0,0,1-.11-1.09c0-.32,0-.62,0-.9s0-.59,0-.91a7.1,7.1,0,0,1,.11-1.22,5.24,5.24,0,0,1,.32-1.12,4.15,4.15,0,0,1,.55-.94,2.75,2.75,0,0,1,.79-.69,1.3,1.3,0,0,1,.78-.22.8.8,0,0,1,.55.31,1.86,1.86,0,0,1,.32.75A5,5,0,0,1,217.06,330.89Zm-2.88,3.47a2.3,2.3,0,0,0,.29,1.33c.19.21.46.21.83,0a2,2,0,0,0,.82-.95,4.55,4.55,0,0,0,.29-1.67c0-.32,0-.62,0-.91s0-.58,0-.89a2.31,2.31,0,0,0-.29-1.34c-.19-.21-.46-.21-.82,0a2,2,0,0,0-.83,1,4.61,4.61,0,0,0-.29,1.68c0,.32,0,.62,0,.9S214.17,334,214.18,334.36Z"/><path class="cls-11" d="M207,355.55l41-23.74c.47-.27.84-.08.84.42a1.79,1.79,0,0,1-.84,1.4l-41,23.74c-.47.27-.84.08-.84-.42A1.8,1.8,0,0,1,207,355.55Z"/><path class="cls-11" d="M207,328.16l9.18-5.33c.47-.26.84-.07.84.43a1.8,1.8,0,0,1-.84,1.4L207,330c-.47.26-.84.07-.84-.43A1.8,1.8,0,0,1,207,328.16Z"/><path class="cls-5" d="M263,286.05a.29.29,0,0,1-.19-.52l4.75-3.79,4.77-5.45,4.85-.7,4.62-1,4.79-5.65,4.71.83,4.73-7.48,4.8.07,4.64-4.15a.29.29,0,1,1,.39.44l-4.81,4.3-4.7-.07-4.76,7.53-4.77-.84-4.7,5.55-4.84,1.09-4.65.67L268,282.16,263.2,286A.26.26,0,0,1,263,286.05Z"/><path class="cls-8" d="M264.89,270l.12-.1.13-.09a1.35,1.35,0,0,1,.72-.22.9.9,0,0,1,.57.22,1.37,1.37,0,0,1,.37.6,2.84,2.84,0,0,1,.14.93,4.61,4.61,0,0,1-.14,1.1,5,5,0,0,1-.37,1,4.09,4.09,0,0,1-.57.87,2.77,2.77,0,0,1-.72.62,1.33,1.33,0,0,1-.72.21.84.84,0,0,1-.57-.21,1.37,1.37,0,0,1-.37-.6,2.91,2.91,0,0,1-.14-.94,3.83,3.83,0,0,1,.05-.6,4.78,4.78,0,0,1,.12-.57c.05-.19.1-.37.16-.55l.18-.51,1.26-3.59a1.59,1.59,0,0,0,.08-.18.31.31,0,0,1,.14-.16l.39-.22s.08,0,.1,0a.2.2,0,0,1,0,.14.25.25,0,0,1,0,.09.14.14,0,0,1,0,.07Zm-.89,3a1.89,1.89,0,0,0,.08.56.94.94,0,0,0,.23.38.52.52,0,0,0,.36.16.86.86,0,0,0,.47-.15,1.8,1.8,0,0,0,.48-.4,2.36,2.36,0,0,0,.35-.57,2.87,2.87,0,0,0,.23-.64,3,3,0,0,0,.08-.65,1.91,1.91,0,0,0-.08-.57.84.84,0,0,0-.23-.38.54.54,0,0,0-.35-.15.87.87,0,0,0-.48.14,1.8,1.8,0,0,0-.47.41,2.55,2.55,0,0,0-.36.56,3.77,3.77,0,0,0-.23.64A3.13,3.13,0,0,0,264,273.07Z"/><path class="cls-8" d="M269.7,268.32a4.59,4.59,0,0,0,.31-.77,3,3,0,0,0,.11-.84,1.28,1.28,0,0,0-.22-.82c-.14-.17-.37-.17-.68,0a1.55,1.55,0,0,0-.41.35,1.92,1.92,0,0,0-.29.45,4.27,4.27,0,0,0-.18.54,5,5,0,0,0-.1.56.72.72,0,0,1-.08.22.32.32,0,0,1-.1.12l-.32.19c-.05,0-.08,0-.11,0a.18.18,0,0,1-.05-.14,5,5,0,0,1,.12-.87,4.57,4.57,0,0,1,.32-.92,4.48,4.48,0,0,1,.51-.84,2.34,2.34,0,0,1,.69-.61,1.25,1.25,0,0,1,.67-.21.71.71,0,0,1,.49.21,1.24,1.24,0,0,1,.29.56,3,3,0,0,1,.1.83,6.4,6.4,0,0,1,0,.64,4.08,4.08,0,0,1-.11.59c-.06.2-.13.4-.21.61s-.18.42-.3.65l-1.55,3.12,2.12-1.23a.1.1,0,0,1,.13,0,.24.24,0,0,1,.06.17v.39a.46.46,0,0,1-.06.23.34.34,0,0,1-.13.17l-3,1.72a.09.09,0,0,1-.13,0,.21.21,0,0,1-.06-.17v-.38a.93.93,0,0,1,0-.23,1.41,1.41,0,0,1,.12-.27Z"/><path class="cls-8" d="M274.42,262.05a.1.1,0,0,1,.13,0,.24.24,0,0,1,.06.18v.38a1,1,0,0,1,0,.22c0,.08,0,.16-.05.25l-1.54,7a1.42,1.42,0,0,1-.07.22.32.32,0,0,1-.13.15l-.32.19a.09.09,0,0,1-.12,0,.21.21,0,0,1-.05-.15v-.05a.64.64,0,0,0,0-.09l1.55-7-2.28,1.32a.1.1,0,0,1-.13,0,.22.22,0,0,1,0-.17v-.39a.48.48,0,0,1,0-.23.36.36,0,0,1,.13-.16Z"/><path class="cls-11" d="M263.88,289.81l41-23.74c.46-.27.84-.08.84.43a1.79,1.79,0,0,1-.84,1.39l-41,23.75c-.46.27-.84.08-.84-.43A1.81,1.81,0,0,1,263.88,289.81Z"/><path class="cls-11" d="M263.88,262.43l9.18-5.33c.46-.27.84-.08.84.42a1.81,1.81,0,0,1-.84,1.4l-9.19,5.33c-.46.27-.84.08-.84-.43A1.78,1.78,0,0,1,263.88,262.43Z"/><path class="cls-2" d="M263,318.87a.25.25,0,0,1-.15-.05.28.28,0,0,1-.1-.4l4.84-7.95,4.88.91,4.58-1.26,4.75-5.79,4.71-1.18,4.79-8.54,4.9,1.42,4.61-.87L305.5,291a.29.29,0,0,1,.41,0,.31.31,0,0,1,0,.42l-4.79,4.26-.08,0-4.82.91-4.58-1.33-4.69,8.35-4.77,1.2-4.74,5.79-.09,0L272.51,312h-.06l-4.55-.84-4.63,7.61A.3.3,0,0,1,263,318.87Z"/><path class="cls-3" d="M263,318.87a.25.25,0,0,1-.15-.05.28.28,0,0,1-.1-.4l4.84-7.95,4.88.91,4.58-1.26,4.75-5.79,4.71-1.18,4.79-8.54,4.9,1.42,4.61-.87L305.5,291a.29.29,0,0,1,.41,0,.31.31,0,0,1,0,.42l-4.79,4.26-.08,0-4.82.91-4.58-1.33-4.69,8.35-4.77,1.2-4.74,5.79-.09,0L272.51,312h-.06l-4.55-.84-4.63,7.61A.3.3,0,0,1,263,318.87Z"/><path class="cls-8" d="M265.21,305.1l-.1.07-.09.06a1.36,1.36,0,0,1-.64.2.84.84,0,0,1-.56-.16,1.25,1.25,0,0,1-.39-.57,2.71,2.71,0,0,1-.15-1,4.45,4.45,0,0,1,.14-1.08,5,5,0,0,1,.38-1,4.59,4.59,0,0,1,.55-.85,2.73,2.73,0,0,1,.67-.58,1.41,1.41,0,0,1,.73-.22.79.79,0,0,1,.55.21,1.34,1.34,0,0,1,.34.6,3.18,3.18,0,0,1,.12.93,2.87,2.87,0,0,1-.05.57c0,.2-.08.41-.14.61l-.18.59-.18.54L265,307.6a1.59,1.59,0,0,0-.08.18.31.31,0,0,1-.14.16l-.39.23s-.08,0-.1,0a.2.2,0,0,1,0-.14.25.25,0,0,1,0-.09.14.14,0,0,1,0-.07Zm.9-3a1.91,1.91,0,0,0-.08-.57.84.84,0,0,0-.23-.37.47.47,0,0,0-.34-.13.93.93,0,0,0-.44.14,1.52,1.52,0,0,0-.44.37,2.75,2.75,0,0,0-.34.52,3,3,0,0,0-.22.62,3.14,3.14,0,0,0-.08.67,1.93,1.93,0,0,0,.08.58.79.79,0,0,0,.22.36.48.48,0,0,0,.34.13.83.83,0,0,0,.44-.14,1.52,1.52,0,0,0,.44-.37,2.33,2.33,0,0,0,.34-.52,3,3,0,0,0,.23-.62A3,3,0,0,0,266.11,302.08Z"/><path class="cls-8" d="M267.91,304.3a1.33,1.33,0,0,0,.1.28.39.39,0,0,0,.18.2.59.59,0,0,0,.33,0,1.66,1.66,0,0,0,.53-.22,2.06,2.06,0,0,0,.41-.32,1.9,1.9,0,0,0,.34-.45,2.48,2.48,0,0,0,.24-.55,2.71,2.71,0,0,0,.08-.66,1.48,1.48,0,0,0-.08-.53.46.46,0,0,0-.23-.26.52.52,0,0,0-.33,0,1.65,1.65,0,0,0-.43.18l-.57.33a.09.09,0,0,1-.13,0,.21.21,0,0,1-.06-.17v-.38a.48.48,0,0,1,0-.2c0-.07.05-.13.07-.19l1.25-2.79-2,1.15a.09.09,0,0,1-.13,0,.21.21,0,0,1-.06-.17v-.38a.53.53,0,0,1,.06-.24.43.43,0,0,1,.13-.16l2.74-1.58a.1.1,0,0,1,.13,0,.29.29,0,0,1,.05.17v.39a.88.88,0,0,1,0,.21,1,1,0,0,1-.09.22l-1.23,2.75a1.57,1.57,0,0,1,.64-.2.76.76,0,0,1,.49.16,1.11,1.11,0,0,1,.32.5,2.78,2.78,0,0,1,.11.83,3.72,3.72,0,0,1-.14,1.06,3.92,3.92,0,0,1-.37.94,3.58,3.58,0,0,1-.55.77,2.84,2.84,0,0,1-.67.55,2,2,0,0,1-.8.29.79.79,0,0,1-.88-.53,1.75,1.75,0,0,1-.11-.62.48.48,0,0,1,0-.2.29.29,0,0,1,.11-.13l.32-.18s.09,0,.12,0A.2.2,0,0,1,267.91,304.3Z"/><path class="cls-11" d="M263.88,322.63l41-23.74c.46-.27.84-.08.84.43a1.79,1.79,0,0,1-.84,1.39l-41,23.75c-.46.27-.84.08-.84-.43A1.81,1.81,0,0,1,263.88,322.63Z"/><path class="cls-11" d="M263.88,295.25l9.18-5.33c.46-.27.84-.08.84.42a1.81,1.81,0,0,1-.84,1.4l-9.19,5.33c-.46.27-.84.08-.84-.43A1.78,1.78,0,0,1,263.88,295.25Z"/><path class="cls-2" d="M319.25,238.6a16.07,16.07,0,0,1,5.4-5.83v14.17Z"/><path class="cls-2" d="M315.9,247.61a28.63,28.63,0,0,1,3.35-9l5.4,8.34Z"/><path class="cls-3" d="M319.25,238.6a28.63,28.63,0,0,0-3.35,9l8.75-.67V232.77A16,16,0,0,0,319.25,238.6Z"/><path class="cls-5" d="M324.65,232.77a5.37,5.37,0,0,1,5.41-.41l-5.41,14.58Z"/><path class="cls-5" d="M330.06,232.36c1.55.85,2.74,2.62,3.35,5.15l-8.76,9.43Z"/><path class="cls-5" d="M315.9,256.37a17.8,17.8,0,0,1-.45-4.12,25.32,25.32,0,0,1,.45-4.64l8.75-.67Z"/><path class="cls-5" d="M333.41,246.26a28.63,28.63,0,0,1-3.35,9l-5.41-8.33Z"/><path class="cls-5" d="M324.65,261.11a5.37,5.37,0,0,1-5.4.4l5.4-14.57Z"/><path class="cls-5" d="M315.9,256.37l8.75-9.43-5.4,14.57C317.7,260.66,316.51,258.89,315.9,256.37Z"/><path class="cls-5" d="M333.41,237.51a17.65,17.65,0,0,1,.45,4.11,25.32,25.32,0,0,1-.45,4.64l-8.76.68Z"/><path class="cls-5" d="M330.06,255.27a16,16,0,0,1-5.41,5.84V246.94Z"/><path class="cls-8" d="M320.06,268.33l9.19-5.33c.46-.26.84-.07.84.43a1.83,1.83,0,0,1-.84,1.4l-9.19,5.33c-.46.26-.84.07-.84-.43A1.83,1.83,0,0,1,320.06,268.33Z"/><path class="cls-11" d="M318,275l13.23-7.67c.47-.27.84-.08.84.42a1.79,1.79,0,0,1-.84,1.4L318,276.82c-.47.27-.84.08-.84-.43A1.8,1.8,0,0,1,318,275Z"/><path class="cls-11" d="M318,280.48l13.23-7.68c.47-.26.84-.07.84.43a1.8,1.8,0,0,1-.84,1.4L318,282.3c-.47.27-.84.08-.84-.42A1.79,1.79,0,0,1,318,280.48Z"/><path class="cls-11" d="M318,286l13.23-7.68c.47-.27.84-.08.84.43a1.8,1.8,0,0,1-.84,1.4L318,287.79c-.47.27-.84.08-.84-.42A1.79,1.79,0,0,1,318,286Z"/><path class="cls-5" d="M357.84,213.53a5.39,5.39,0,0,1,5.41-.4l-5.41,14.57Z"/><path class="cls-2" d="M352.44,219.37a16.11,16.11,0,0,1,5.4-5.84V227.7Z"/><path class="cls-2" d="M349.09,228.38a28.54,28.54,0,0,1,3.35-9l5.4,8.33Z"/><path class="cls-5" d="M363.25,213.13c1.55.84,2.74,2.62,3.34,5.14l-8.75,9.43Z"/><path class="cls-2" d="M349.09,237.13a17.65,17.65,0,0,1-.45-4.11,25.23,25.23,0,0,1,.45-4.64l8.75-.68Z"/><path class="cls-5" d="M366.59,227a28.23,28.23,0,0,1-3.34,9l-5.41-8.33Z"/><path class="cls-5" d="M357.84,241.87a5.33,5.33,0,0,1-5.4.4l5.4-14.57Z"/><path class="cls-2" d="M349.09,237.13l8.75-9.43-5.4,14.57C350.89,241.43,349.7,239.66,349.09,237.13Z"/><path class="cls-3" d="M352.44,219.37a28.54,28.54,0,0,0-3.35,9,25.23,25.23,0,0,0-.45,4.64,17.65,17.65,0,0,0,.45,4.11c.61,2.53,1.8,4.3,3.35,5.14l5.4-14.57V213.53A16.11,16.11,0,0,0,352.44,219.37Z"/><path class="cls-5" d="M366.59,218.27a17.19,17.19,0,0,1,.46,4.12,24.49,24.49,0,0,1-.46,4.64l-8.75.67Z"/><path class="cls-5" d="M363.25,236a16,16,0,0,1-5.41,5.84V227.7Z"/><path class="cls-8" d="M353.25,249.17l9.18-5.33c.47-.27.85-.08.85.43a1.81,1.81,0,0,1-.85,1.4L353.25,251c-.46.27-.84.08-.84-.42A1.81,1.81,0,0,1,353.25,249.17Z"/><path class="cls-11" d="M351.23,255.83l13.23-7.68c.46-.26.84-.07.84.43a1.83,1.83,0,0,1-.84,1.4l-13.23,7.68c-.47.26-.84.07-.84-.43A1.8,1.8,0,0,1,351.23,255.83Z"/><path class="cls-11" d="M351.23,261.32l13.23-7.68c.46-.27.84-.08.84.43a1.83,1.83,0,0,1-.84,1.4l-13.23,7.67c-.47.27-.84.08-.84-.42A1.79,1.79,0,0,1,351.23,261.32Z"/><path class="cls-11" d="M351.23,266.81l13.23-7.68c.46-.27.84-.08.84.43a1.79,1.79,0,0,1-.84,1.39l-13.23,7.68c-.47.27-.84.08-.84-.43A1.77,1.77,0,0,1,351.23,266.81Z"/><path class="cls-5" d="M357.67,403.53A15.56,15.56,0,0,0,351,391.09c-1.88-1.18-3.62-1.35-4.92-.68h0c-7.81,3.92-62.69,39.11-66.2,40.85l0,0a2.5,2.5,0,0,0-1.11,2.26,7.84,7.84,0,0,0,3.34,6.27,2.5,2.5,0,0,0,2.51.33l.05,0C290.21,437,344.38,414,355.45,408h0C356.75,407.32,357.59,405.77,357.67,403.53Z"/><path class="cls-3" d="M355.51,395.94a14,14,0,0,0-4.48-4.85c-1.88-1.17-3.61-1.35-4.9-.69l-.16.09c-7.13,3.64-48,29.7-61.72,38.17l-.09,0-.55.34-.17.11-.32.19-.36.23h0c-1.45.89-2.44,1.47-2.82,1.66l0,0a1.54,1.54,0,0,0-.32.25,2.71,2.71,0,0,0-.79,2,5.29,5.29,0,0,0,0,.79c0,.1,0,.2,0,.3s.06.32.1.48.06.26.1.39.1.3.15.45l.12.33,0,.06Z"/><path class="cls-3" d="M282.09,439.8a7.79,7.79,0,0,1-3.33-6.24c.07-2.26,1.69-3.12,3.6-1.93a7.81,7.81,0,0,1,3.33,6.25C285.62,440.13,284,441,282.09,439.8Z"/><path class="cls-19" d="M265.69,441.31a6,6,0,0,0,2.56,4.8,1.89,1.89,0,0,0,1.9.25h0l13.28-7.06h0a1.94,1.94,0,0,0,.85-1.73,6.05,6.05,0,0,0-2.56-4.8,1.93,1.93,0,0,0-1.92-.25h0l-13.27,7.06h0A1.88,1.88,0,0,0,265.69,441.31Z"/><path class="cls-7" d="M266.55,439.58a1.88,1.88,0,0,0-.86,1.73,5.12,5.12,0,0,0,.4,2.05l17.12-9.13a5.27,5.27,0,0,0-1.47-1.47,1.93,1.93,0,0,0-1.92-.25l-13.27,7.06Z"/><path class="cls-5" d="M282.72,453.09c0-8.5-5.63-17-16.87-23.5-22.48-13-58.93-13-81.41,0-11.25,6.49-16.87,15-16.87,23.5h0v15.67c0,8.51,5.62,17,16.87,23.51,22.48,13,58.93,13,81.41,0,11.24-6.49,16.87-15,16.87-23.51V453.09Zm-95.5-18.68c10-5.79,23.51-9,37.92-9s27.89,3.2,37.93,9c9.08,5.24,14.08,11.88,14.08,18.68s-5,13.44-14.08,18.69c-10,5.79-23.51,9-37.93,9s-27.88-3.2-37.92-9c-9.08-5.25-14.08-11.88-14.08-18.69S178.14,439.65,187.22,434.41Z"/><path class="cls-20" d="M184.43,476.6c22.48,13,58.94,13,81.42,0s22.48-34,0-47-58.93-13-81.42,0S162,463.62,184.43,476.6Zm-11.29-23.51c0-6.8,5-13.44,14.08-18.68,10-5.79,23.51-9,37.92-9s27.89,3.2,37.93,9c9.07,5.24,14.07,11.88,14.07,18.68s-5,13.44-14.07,18.69c-10,5.79-23.51,9-37.93,9s-27.88-3.2-37.92-9C178.14,466.53,173.14,459.9,173.14,453.09Z"/><path class="cls-3" d="M173.13,453.09a15.44,15.44,0,0,0,2.25,7.84c2.29-3.95,6.31-7.66,11.84-10.84,10-5.8,23.51-9,37.93-9s27.88,3.2,37.91,9c5.54,3.18,9.56,6.89,11.85,10.84a15.53,15.53,0,0,0,2.24-7.84c0-6.8-5-13.44-14.09-18.68-10-5.79-23.5-9-37.91-9s-27.9,3.2-37.93,9C178.13,439.65,173.13,446.29,173.13,453.09Z"/><path class="cls-21" d="M173.13,453.09a15.44,15.44,0,0,0,2.25,7.84c2.29-3.95,6.31-7.66,11.84-10.84,10-5.8,23.51-9,37.93-9s27.88,3.2,37.91,9c5.54,3.18,9.56,6.89,11.85,10.84a15.53,15.53,0,0,0,2.24-7.84c0-6.8-5-13.44-14.09-18.68-10-5.79-23.5-9-37.91-9s-27.9,3.2-37.93,9C178.13,439.65,173.13,446.29,173.13,453.09Z"/><path class="cls-22" d="M187.22,441.51c10-5.8,23.51-9,37.92-9s27.89,3.19,37.93,9c7.49,4.32,12.19,9.6,13.61,15.13-1.42,5.54-6.12,10.81-13.61,15.14-10,5.79-23.51,9-37.93,9s-27.88-3.2-37.92-9c-7.49-4.33-12.2-9.6-13.62-15.14C175,451.11,179.72,445.83,187.22,441.51Z"/><path class="cls-3" d="M211.58,485.41v15.65c-10-1.38-19.38-4.31-27.14-8.79-11.25-6.5-16.87-15-16.87-23.51V453.09a19.62,19.62,0,0,1,.69-5.13h0c-2.73,10.12,2.66,20.83,16.17,28.64C192.2,481.09,201.63,484,211.58,485.41Z"/><path class="cls-7" d="M486,389.74c.68.27.83,1.58.87,4.19,0,2,.38,5.42-1.94,6.05s-5.69.21-7.13-1.68a91.45,91.45,0,0,0-5.56-7.31c-2.23-2.51-4.65-4.85-5.5-8.31-.76-3.13,0-4.46,2.1-5.32,2.95-1.17,7.44,3,9.71,3.68C480.47,381.64,485.29,389.46,486,389.74Z"/><path class="cls-23" d="M486,387.33l-.08,3.19s-3.38,2.48-8.08,0c-.13-.31-.73-4.59-.73-4.59Z"/><path class="cls-7" d="M459.68,407.57s.85,2.8,1.29,5.24c.35,1.94.84,5.18.13,6.62s-3.37,2.31-7.46,2.19c-2.65-.08-6.82,1.63-9.68,3.14s-9,2.08-12.12,1.65c-3.63-.51-7.36-2.71-7.91-4.23s.26-3.07,8.92-6.53c.08,0,12-3.62,16.27-8.1Z"/><path class="cls-23" d="M459.76,404.11s-.07,2.37-.09,3.73-1.66,3.34-5.8,3.1c-2.91-.17-4.92-1-4.75-3.39l.07-3.46Z"/><path class="cls-19" d="M489.06,345a86.92,86.92,0,0,0-3.4-16.73s1.46-14.33,2.32-27.93c.92-14.69,1.78-22.26-1.11-43.48,0,0-45.05-4-46.28,12.94s.52,60.31.91,67.79,1.54,14.11,2.81,26.25c1.25,12,4.88,40.28,4.88,40.28a11.23,11.23,0,0,0,10.57,0s4.1-33.91,3.95-42.53a73.93,73.93,0,0,0-2.85-18.88s1.22-14,2.29-26.17,2-18,2.34-23.31l1-.49s.57,21.06,1,28.54,1.42,14.67,3.27,28.59c1.6,12.07,6.61,37.65,6.61,37.65,5.36,3.06,8.67-.18,8.67-.18S490.29,355.44,489.06,345Z"/><path class="cls-7" d="M465.49,293.22s11.64-5.42,17.52-10.4c0,0-5.52,7.41-12.62,10.6,0,0-3.09,26.07-3.06,25.55l-.86-25.77Z"/><polygon class="cls-23" points="457.42 196.31 459.18 211.86 473.87 211.12 472.23 192.97 457.42 196.31"/><path class="cls-19" d="M479.4,202.26c5.47-.25,8.25.57,10.7,5.29s3.42,18.81,4.28,26.07,1.06,12.4-1.93,13.14-14.63,1.07-14.63,1.07Z"/><path class="cls-8" d="M488.63,210.32c-.79-4.35-6.51-8.92-11.87-8l-3.63.61c-.65,2.62-7.82,4.26-14.67,2.64-2.06.55-8.86,1.82-10.58,2.39-4.92,1.63-6.95,6.48-7.72,22.53,0,0,.4,36.36.21,43.6,12.15,5.13,24.91,5.27,32,3.89C487.11,275.05,489,269,489,269l-2.2-16.63S490.42,220.17,488.63,210.32Z"/><path class="cls-19" d="M458,201.44l.11,1a21.83,21.83,0,0,0,9,0c4.77-1.06,5.74-2.41,5.74-2.41l-.1-1.11s1.18-.44,1.81,1.39a20.71,20.71,0,0,1,.69,2.23s.55,3.34-5.06,5a17.33,17.33,0,0,1-14-1.53l-2.2.47s1.9-4.39,2.48-5.28a1.44,1.44,0,0,1,1.37-.76Z"/><polygon class="cls-8" points="413.17 184.76 384.04 199.96 398.51 239.53 425.69 224.3 413.17 184.76"/><polygon class="cls-24" points="411.83 188.64 387.4 201.39 400.2 235.4 423 222.63 411.83 188.64"/><path class="cls-9" d="M406.68,192.31s-.22-.54-.48-1.21-2.29-.27-4.54.89l-4.3,2.22c-2.25,1.16-3.86,2.64-3.6,3.31l.48,1.21Z"/><path class="cls-5" d="M406.2,187.46c-.16-.41-1-.34-2,.16l-1.69.91s-1-2.62-4.91-.81-3,4.84-3,4.84l-1.79,1c-1,.54-1.69,1.33-1.57,1.75l.22.77,15-7.83Z"/><path class="cls-2" d="M404.58,189.22c-1.39.69-1.94,1-1.54,2.05s.89,2,.89,2l-6.64,3.47s-.55-1.49-.79-2.07-.73-.85-1.79-.3l-.39-.42,10.47-5.33Z"/><path class="cls-3" d="M404.58,189.22c-1.39.69-1.94,1-1.54,2.05s.89,2,.89,2l-6.64,3.47s-.55-1.49-.79-2.07-.73-.85-1.79-.3l-.39-.42,10.47-5.33Z"/><path class="cls-5" d="M407,192.37l-.47-1.21c-.26-.67-2.3-.27-4.54.89l-4.31,2.22c-2.24,1.16-3.85,2.64-3.59,3.31l.47,1.21Z"/><path class="cls-23" d="M447.88,207.91c-6.72.58-9.58,1.81-14.63,10.91-5.48,9.88-16,27.76-17.34,30-1.86,3.14-2.21,7.92-.61,10.8,1.5,2.7,6.25,3.93,11.64-2.16,6.4-7.23,18.32-24.9,18.32-24.9S455.39,219.21,447.88,207.91Z"/><path class="cls-23" d="M418.09,261.7c-5.16-.62-17.19-16.95-20.62-22.29a38.11,38.11,0,0,0-10.42-11c-5.46-4-4.67-10.22-2.29-15.9.83-2,3.62-.68,3.62-.68l1,2.69,1.7,4.66c1.16,1.07,1.82,1.42,1.89,1.11.15-.61-.84-3.12-.82-5.73,0-3.14,2.23-1.08,2.89,0a37.62,37.62,0,0,1,2.32,5.19c1.1,2.82.65,5.67,2,7.58s19.29,19.13,19.29,19.13Z"/><path class="cls-19" d="M449.18,207.56c-4.07-.1-9,.55-12.76,5.47s-19,31.72-19,31.72l-8.51-7.64a14.82,14.82,0,0,0-6.55,9.26,92.13,92.13,0,0,0,7.71,10.46c3.6,3.95,7.62,6.69,10.91,5.48s6.65-3.82,13.74-13.69,14.82-21.51,14.82-21.51S454.45,215.73,449.18,207.56Z"/><path class="cls-25" d="M447.08,177.27s-3.67,5.57-3.25,6.11,3.11,1,3.11,1Z"/><path class="cls-7" d="M448.79,180.85a4.37,4.37,0,1,1,4.37-4.37A4.37,4.37,0,0,1,448.79,180.85Zm0-7.77a3.4,3.4,0,1,0,3.4,3.4A3.4,3.4,0,0,0,448.79,173.08Z"/><path class="cls-23" d="M457.26,161.88c-7.42,1.56-9.56,4.83-10.26,16.61-.73,12.32.52,16.19,2.14,17.85,1.1,1.12,7.16,1.32,10.23.48,3.83-1.06,12.49-4.13,16.55-10.32,4.77-7.29,6-17.17.91-21.22C469.64,159.57,460.28,161.24,457.26,161.88Z"/><path class="cls-25" d="M457.52,197.16l-.34-2.26a14.72,14.72,0,0,1-7.61,1.72C451,197.32,454.68,197.52,457.52,197.16Z"/><polygon class="cls-7" points="444.83 175.56 458.03 177.27 457.5 178.2 444.83 176.56 444.83 175.56"/><path class="cls-7" d="M445.73,166.64a4.14,4.14,0,0,0,1.68-.1,2.64,2.64,0,0,0,.9,3.09,3.76,3.76,0,0,0,3.33.44,3.22,3.22,0,0,0-.37,2.29,3.73,3.73,0,0,0,3.85,2.78c.08,1.72.1,3.41,1.94,4.19,0,0,1.17-4.55,5-4s4.38,5.5,1.95,8.49-4.67,1.86-4.7,1.85c.22.11.3,1.56.38,1.84a13.28,13.28,0,0,0,1,2.49,12.08,12.08,0,0,0,3.48,4.07c2,1.48,4.46,2.54,7,1.93a7.47,7.47,0,0,0,5.07-4.08,4.35,4.35,0,0,1,.83-1.47,4.74,4.74,0,0,1,1.89-.82,5.55,5.55,0,0,0,3.14-7.84,5.1,5.1,0,0,0,1.95-8.9,6.11,6.11,0,0,0,2.63-6.63,6.2,6.2,0,0,0-4.39-4.2c-1.5-.43-.92-.67-1.38-2.14a5.39,5.39,0,0,0-6.84-3.52,5.33,5.33,0,0,0-6.32-4.09c-.62.16-1.88.73-2.12,1.32-.78-.77-1-1.78-2-2.48a5.63,5.63,0,0,0-8.29,1.77,6.93,6.93,0,0,0-5.18-2.18,5.68,5.68,0,0,0-4.72,2.89A4.8,4.8,0,0,0,446,159a5.53,5.53,0,0,0-2.86,2.48,3.47,3.47,0,0,0,.4,3.88,3,3,0,0,0,1.45,1.07A4.2,4.2,0,0,0,445.73,166.64Z"/><path class="cls-7" d="M457,181.93l.14-5.15a2.58,2.58,0,1,0-.14,5.15Z"/></g></g></svg>