<svg xmlns="http://www.w3.org/2000/svg" viewBox="0 0 113 79.67">
   <defs>
      <style>.cls-1{fill:#cc9b00;fill-rule:evenodd;}</style>
   </defs>
   <g id="Layer_2" data-name="Layer 2">
      <g id="grid">
         <polygon class="cls-1" points="79.53 21.65 67.02 0 64.72 0 77.24 21.65 79.53 21.65" />
         <polygon class="cls-1" points="74.99 21.65 62.47 0 60.18 0 72.69 21.65 74.99 21.65" />
         <polygon class="cls-1" points="70.39 21.65 57.88 0 55.58 0 68.1 21.65 70.39 21.65" />
         <polygon class="cls-1" points="65.85 21.65 53.33 0 51.04 0 63.55 21.65 65.85 21.65" />
         <polygon class="cls-1" points="61.26 21.65 48.74 0 46.45 0 58.96 21.65 61.26 21.65" />
         <polygon class="cls-1" points="56.71 21.65 44.2 0 41.9 0 54.41 21.65 56.71 21.65" />
         <polygon class="cls-1" points="113 79.67 83.75 28.92 81.45 28.92 110.7 79.67 113 79.67" />
         <polygon class="cls-1" points="108.45 79.67 79.16 28.92 76.91 28.92 106.15 79.67 108.45 79.67" />
         <polygon class="cls-1" points="103.86 79.67 74.61 28.92 72.32 28.92 101.56 79.67 103.86 79.67" />
         <polygon class="cls-1" points="99.31 79.67 70.02 28.92 67.77 28.92 97.01 79.67 99.31 79.67" />
         <polygon class="cls-1" points="94.72 79.67 65.47 28.92 63.18 28.92 92.42 79.67 94.72 79.67" />
         <polygon class="cls-1" points="90.17 79.67 60.93 28.92 58.63 28.92 87.87 79.67 90.17 79.67" />
         <polygon class="cls-1" points="54.37 79.67 25.12 28.92 22.82 28.92 52.07 79.67 54.37 79.67" />
         <polygon class="cls-1" points="49.82 79.67 20.53 28.92 18.28 28.92 47.52 79.67 49.82 79.67" />
         <polygon class="cls-1" points="45.23 79.67 15.98 28.92 13.69 28.92 42.93 79.67 45.23 79.67" />
         <polygon class="cls-1" points="40.68 79.67 11.39 28.92 9.14 28.92 38.38 79.67 40.68 79.67" />
         <polygon class="cls-1" points="36.09 79.67 6.84 28.92 4.54 28.92 33.79 79.67 36.09 79.67" />
         <polygon class="cls-1" points="31.54 79.67 2.3 28.92 0 28.92 29.24 79.67 31.54 79.67" />
         <polygon class="cls-1" points="10.26 50.66 0 32.71 0 36.79 7.97 50.66 10.26 50.66" />
         <polygon class="cls-1" points="0 44.8 0 44.8 3.38 50.66 5.67 50.66 0 40.87 0 44.8" />
         <polygon class="cls-1" points="0 50.66 1.13 50.66 0 48.74 0 50.66" />
         <polygon class="cls-1" points="102.73 57.97 113 75.88 113 71.84 105.03 57.97 102.73 57.97" />
         <polygon class="cls-1" points="113 63.83 113 63.83 109.62 57.97 107.32 57.97 113 67.77 113 63.83" />
         <polygon class="cls-1" points="113 57.97 111.87 57.97 113 59.89 113 57.97" />
         <polygon class="cls-1" points="42.98 56 44.1 54.08 56.66 75.83 55.54 77.75 42.98 56" />
         <polygon class="cls-1" points="45.23 52.16 46.3 50.19 58.87 71.94 57.74 73.86 45.23 52.16" />
         <polygon class="cls-1" points="47.43 48.27 48.55 46.35 61.12 68.1 59.99 70.02 47.43 48.27" />
         <polygon class="cls-1" points="49.68 44.43 50.8 42.46 63.32 64.21 62.24 66.13 49.68 44.43" />
         <polygon class="cls-1" points="51.93 40.54 53.01 38.62 65.57 60.31 64.44 62.28 51.93 40.54" />
         <polygon class="cls-1" points="54.13 36.65 55.26 34.73 67.82 56.47 66.69 58.4 54.13 36.65" />
         <polygon class="cls-1" points="56.38 32.81 57.51 30.88 70.02 52.58 68.94 54.55 56.38 32.81" />
      </g>
   </g>
</svg>