<svg xmlns="http://www.w3.org/2000/svg" width="84.86" height="84.86" viewBox="0 0 84.86 84.86">
  <g id="Arte_1" data-name="Arte 1" transform="translate(42.43 42.43)">
    <g id="Grupo_169" data-name="Grupo 169" transform="translate(-42.43 -42.43)">
      <path id="Caminho_303" data-name="Caminho 303" d="M667.979,475.1a12.757,12.757,0,0,1-.478,3.458c-.176.023-.353.039-.533.055-.345.027-.693.043-1.046.043a12.854,12.854,0,0,1-1.876-.137,12.7,12.7,0,0,1-1.351-.282c.039-.2.078-.4.125-.6a12.783,12.783,0,0,1,.822-2.393,12.772,12.772,0,0,1,3.548-4.547,12.5,12.5,0,0,1,.666,2.655A12.168,12.168,0,0,1,667.979,475.1Z" transform="translate(-623.346 -442.757)" fill="#0c3d21"/>
      <path id="Caminho_304" data-name="Caminho 304" d="M585.6,379.877a13.626,13.626,0,0,0-3.775,4.468,13.182,13.182,0,0,0-1.057,2.636q-.147.493-.247,1a8.411,8.411,0,0,1-2.377-2.526,8.145,8.145,0,0,1-.638-1.265,8.5,8.5,0,0,1-.615-3.18c0-.051,0-.1,0-.149,0-.121,0-.239.012-.356a8.486,8.486,0,0,1,3.423-5.1c.247.325.509.642.787.948.078.09.161.18.243.266a15.646,15.646,0,0,0,1.649,1.531A16.311,16.311,0,0,0,585.6,379.877Z" transform="translate(-542.636 -353.114)" fill="#0c3d21"/>
      <path id="Caminho_305" data-name="Caminho 305" d="M84.848,41.516c-.012-.58-.035-1.155-.074-1.727A42.428,42.428,0,0,0,42.428,0c-.959,0-1.915.031-2.859.1A41.965,41.965,0,0,0,27.249,2.8,41.451,41.451,0,0,0,20.09,6.356q-1.733,1.069-3.348,2.307c-.235.176-.466.352-.693.537A42.327,42.327,0,0,0,.012,41.555Q0,41.948,0,42.342v.09c0,.2,0,.4.008.6a42.431,42.431,0,0,0,84.308,6.2,41.788,41.788,0,0,0,.54-6.5c0-.1,0-.2,0-.305Q84.86,41.974,84.848,41.516Zm-4.609,1.23c0,.153,0,.3,0,.454q-.006.347-.024.693c0,.047,0,.09-.008.137,0,.094-.008.184-.012.274a.474.474,0,0,1,0,.074,37.318,37.318,0,0,1-.619,5.162A37.81,37.81,0,0,1,11.236,63.795a36.24,36.24,0,0,1-2.361-3.928,37.837,37.837,0,0,1,2.017-38.289v0c.188-.294.384-.576.584-.858a38.028,38.028,0,0,1,6.383-7.022c.145-.125.29-.247.439-.368a36.293,36.293,0,0,1,3.219-2.4A37.814,37.814,0,0,1,80.227,41.453c.008.325.012.65.012.979Z" fill="#0c3d21"/>
      <path id="Caminho_306" data-name="Caminho 306" d="M147.472,179.126a25.132,25.132,0,0,1-30.636,4.026v0a36.04,36.04,0,0,1,1.476-44.116c.149-.18.3-.36.454-.537a35.584,35.584,0,0,1,3.3-3.352c.117-.11.235-.211.356-.317a36.4,36.4,0,0,1,9.277-5.855,34.688,34.688,0,0,1,4.081-1.484,26.963,26.963,0,0,0-9.442,6.7,25.6,25.6,0,0,0-2.009,2.5c-.07.09-.133.18-.2.274-.149.208-.29.419-.427.63-.059.09-.117.18-.176.274a26.888,26.888,0,0,0,22.718,41.288C146.662,179.153,147.069,179.145,147.472,179.126Z" transform="translate(-103.478 -119.917)" fill="#0c3d21"/>
      <path id="Caminho_307" data-name="Caminho 307" d="M330.642,735.574q-.006.258-.023.517a35.89,35.89,0,0,1-8.655,21.425l-.012.012a36.038,36.038,0,0,1-53.985.748,26.088,26.088,0,0,0,24.836-2.428,26.382,26.382,0,0,0,5.107-4.547c.11-.125.215-.251.321-.38a26.033,26.033,0,0,0,4.457-7.742q.159-.446.305-.893a25.888,25.888,0,0,0,1.226-6.665q2.309.623,4.7,1.026a49.822,49.822,0,0,0,5.044.587c.215.016.431.027.646.039q1.357.076,2.737.074c.325,0,.65,0,.971-.008a50.963,50.963,0,0,0,7.265-.662q1.416-.235,2.8-.544h0C329.15,735.966,329.9,735.778,330.642,735.574Z" transform="translate(-252.056 -691.897)" fill="#0c3d21"/>
      <path id="Caminho_308" data-name="Caminho 308" d="M760.465,288.957q-1,.282-2.025.517a51.176,51.176,0,0,1-9.461,1.3c-.775.039-1.559.055-2.346.055-.431,0-.862,0-1.288-.016-.2,0-.392-.012-.587-.02a51.851,51.851,0,0,1-6.137-.583q-2.332-.623-4.578-1.449c-.325-.117-.65-.243-.975-.368-.427-.164-.85-.337-1.269-.513a51.8,51.8,0,0,1-4.547-3.419c.02-.051.039-.1.055-.153a13.071,13.071,0,0,0,.431-1.461c.031-.125.059-.255.082-.38a14.162,14.162,0,0,0,.2-4.464,13.833,13.833,0,0,0-.713-3.129h0c-.094-.278-.2-.544-.317-.815v0a13.087,13.087,0,0,0-.627-1.292v0h0a6.051,6.051,0,0,1-.924-1.465,0,0,0,0,1,0,0,5.675,5.675,0,0,1-.368-1.081h0c-.031-.141-.063-.286-.086-.435-.012-.07-.024-.145-.031-.219a5.716,5.716,0,0,1-.051-.783,6.138,6.138,0,0,1,.078-.975,5.3,5.3,0,0,1,.157-.709,5.2,5.2,0,0,1,.164-.493c.016-.055.039-.106.059-.157a6.149,6.149,0,0,1,9.979-2.076,5.783,5.783,0,0,1,.568.631v0s0,0,0,.008a4.825,4.825,0,0,1,.294.4,5.589,5.589,0,0,1,.309.536c.082,0,.161,0,.243,0,.149-.008.3-.008.446-.008a21.278,21.278,0,0,1,12.681,4.171v0a21.451,21.451,0,0,1,5.827,6.517,26.985,26.985,0,0,1,4.758,11.627v.008C760.465,288.5,760.469,288.726,760.465,288.957Z" transform="translate(-681.847 -247.031)" fill="#0c3d21"/>
      <path id="Caminho_309" data-name="Caminho 309" d="M661.553,197.384a24.62,24.62,0,0,0-4.782-2.733c-.49-.211-1-.415-1.527-.6a21.914,21.914,0,0,0-12.324-1,15.613,15.613,0,0,0-10.28,7.116c-.051.086-.094.172-.141.258-.035.07-.07.137-.1.208a.737.737,0,0,0-.039.078s.051-.016.133-.035.188-.055.309-.09h0c.137-.039.29-.078.435-.11a2.629,2.629,0,0,1,.478-.082c.043,0,.051.2.055.376,0,.161,0,.305.023.294s.035-.09.09-.231a8.842,8.842,0,0,1,8.343-5.788,7.574,7.574,0,0,1,1.5.184l.2.047a4.1,4.1,0,0,1,.431.114,7.243,7.243,0,0,1,1.143.415c.157.07.313.145.47.227.055.027.11.055.161.086.094.051.188.1.282.161a8.447,8.447,0,0,1,1.759,1.357,7.472,7.472,0,0,1,.662.768c.035.043.067.086.1.129,0,0,.7-.061,2.022-.045a22.718,22.718,0,0,1,9.375,2.217c.411.192.826.4,1.241.631a27.348,27.348,0,0,1,8.424,7.28A24,24,0,0,0,661.553,197.384Z" transform="translate(-594.81 -181.139)" fill="#0c3d21"/>
    </g>
  </g>
</svg>
